<?xml version="1.0" standalone="no"?> 
<!DOCTYPE svg PUBLIC "-//W3C//DTD SVG 1.1//EN" "http://www.w3.org/Graphics/SVG/1.1/DTD/svg11.dtd" >
<svg xmlns="http://www.w3.org/2000/svg">
<defs>
  <font id="talk-iconfonts" horiz-adv-x="323">
    <font-face font-family="talk-iconfonts"
      units-per-em="323" ascent="323"
      descent="0" />
    <missing-glyph horiz-adv-x="0" />
    <glyph glyph-name="activity"
      unicode="&#xEA01;"
      horiz-adv-x="323" d=" M156.284 212.018C149.975 212.018 144.855 206.898 144.855 200.59V147.8A11.42 11.42 0 0 1 150.57 137.903L196.284 111.514A11.367 11.367 0 0 1 201.987 109.983C205.935 109.983 209.775 112.029 211.895 115.697C215.05 121.166 213.175 128.154 207.713 131.309L167.713 154.4V200.59C167.713 206.898 162.593 212.018 156.284 212.018 M230.69 229.69C224.005 236.375 224.005 247.25 230.69 253.935A17.044 17.044 0 0 0 242.81 258.953C247.393 258.953 251.696 257.17 254.936 253.935A17.048 17.048 0 0 0 259.9530000000001 241.81C259.9530000000001 237.233 258.17 232.93 254.9360000000001 229.69C254.7820000000001 229.535 254.5990000000001 229.433 254.439 229.284C254.4050000000001 229.267 254.3700000000001 229.255 254.336 229.238C253.485 228.724 252.753 228.095 252.085 227.415A17.024 17.024 0 0 0 242.81 224.667C238.233 224.667 233.93 226.45 230.69 229.69M279.405 205.947C277.925 209.804 276.205 213.57 274.353 217.255C286.599 232.953 285.53 255.661 271.096 270.0950000000001C263.285 277.907 253.05 281.81 242.81 281.81C232.576 281.81 222.336 277.907 214.53 270.0950000000001C198.907 254.473 198.907 229.147 214.53 213.53C222.336 205.718 232.576 201.81 242.81 201.81C247.073 201.81 251.325 202.53 255.41 203.884C256.342 201.867 257.267 199.844 258.062 197.77C278.336 144.804 251.736 85.215 198.77 64.941C185.027 59.678 170.496 57.495 155.639 58.427C149.359 58.873 143.913 54.033 143.519 47.73C143.119 41.4329999999999 147.907 36.0099999999999 154.21 35.61C156.919 35.444 159.616 35.353 162.307 35.353A124.3 124.3 0 0 1 206.936 43.593C238.302 55.593 263.102 79.095 276.793 109.758C290.485 140.421 291.416 174.581 279.405 205.947M93.307 92.306C99.993 85.621 99.993 74.746 93.307 68.061A17.044 17.044 0 0 0 81.187 63.043A17.048 17.048 0 0 0 69.061 68.061C62.381 74.746 62.381 85.621 69.061 92.306A17.03 17.03 0 0 0 81.187 97.329C85.764 97.329 90.067 95.546 93.307 92.306M125.233 257.0660000000001C138.97 262.318 153.49 264.506 168.364 263.581C174.713 263.209 180.084 267.969 180.484 274.272C180.878 280.569 176.09 285.998 169.793 286.392C151.627 287.523 133.878 284.849 117.061 278.409C85.701 266.409 60.89 242.906 47.198 212.249C33.513 181.581 32.587 147.426 44.587 116.072A125.637 125.637 0 0 1 49.621 104.706C37.404 89.015 38.473 66.323 52.901 51.901C60.713 44.089 70.947 40.186 81.187 40.186C91.421 40.186 101.661 44.0890000000001 109.467 51.901C125.09 67.523 125.09 92.849 109.467 108.466C101.661 116.278 91.421 120.186 81.187 120.186C76.947 120.186 72.718 119.478 68.65 118.135C67.718 120.163 66.73 122.163 65.935 124.232C56.113 149.8890000000001 56.873 177.843 68.073 202.929C79.273 228.0150000000001 99.57 247.243 125.233 257.0660000000001" />
    <glyph glyph-name="alert-circle-solid"
      unicode="&#xEA02;"
      horiz-adv-x="320" d=" M160.001 285.714C90.567 285.714 34.287 229.43 34.287 160S90.567 34.286 160 34.286C229.429 34.286 285.714 90.571 285.714 160S229.43 285.714 160.001 285.714M159.998 99.964C150.53 99.964 142.855 107.638 142.855 117.107C142.855 126.575 150.53 134.25 159.998 134.25C169.467 134.25 177.141 126.575 177.141 117.107C177.141 107.638 169.467 99.964 159.998 99.964zM148.57 220.038C148.57 226.347 153.69 231.467 159.998 231.467C166.307 231.467 171.427 226.347 171.427 220.038V162.895C171.427 156.581 166.307 151.461 159.998 151.461C153.69 151.461 148.57 156.581 148.57 162.895V220.038z" />
    <glyph glyph-name="alert-circle"
      unicode="&#xEA03;"
      horiz-adv-x="320" d=" M159.998 285.714C90.57 285.714 34.284 229.43 34.284 160S90.57 34.286 159.998 34.286C229.427 34.286 285.713 90.571 285.713 160S229.427 285.714 159.998 285.714M159.998 262.857C216.713 262.857 262.855 216.714 262.855 160S216.713 57.143 159.998 57.143C103.284 57.143 57.141 103.286 57.141 160S103.284 262.857 159.998 262.857 M142.855 117.106C142.855 126.575 150.53 134.249 159.998 134.249C169.467 134.249 177.141 126.575 177.141 117.106C177.141 107.638 169.467 99.963 159.998 99.963C150.53 99.963 142.855 107.638 142.855 117.106M159.998 151.462C153.69 151.462 148.57 156.582 148.57 162.891V220.034C148.57 226.348 153.69 231.462 159.998 231.462C166.307 231.462 171.427 226.348 171.427 220.034V162.891C171.427 156.582 166.307 151.462 159.998 151.462" />
    <glyph glyph-name="alert-solid"
      unicode="&#xEA04;"
      horiz-adv-x="320" d=" M281.353 177.141L235.524 256.524A34.285 34.285 0 0 1 205.827 273.667H114.17A34.285 34.285 0 0 1 84.473 256.524L38.644 177.141A34.28 34.28 0 0 1 38.644 142.855L84.473 63.478A34.285 34.285 0 0 1 114.17 46.335H205.827A34.285 34.285 0 0 1 235.524 63.4780000000001L281.353 142.8550000000001A34.28 34.28 0 0 1 281.353 177.1410000000001zM159.998 99.964C150.53 99.964 142.855 107.638 142.855 117.107C142.855 126.575 150.53 134.25 159.998 134.25C169.467 134.25 177.141 126.575 177.141 117.107C177.141 107.638 169.467 99.964 159.998 99.964zM148.57 220.038C148.57 226.347 153.69 231.467 159.998 231.467C166.307 231.467 171.427 226.347 171.427 220.038V162.895C171.427 156.581 166.307 151.461 159.998 151.461C153.69 151.461 148.57 156.581 148.57 162.895V220.038z" />
    <glyph glyph-name="alert"
      unicode="&#xEA05;"
      horiz-adv-x="320" d=" M205.83 273.6670000000001H114.167A34.295 34.295 0 0 1 84.475 256.525L38.647 177.142A34.28 34.28 0 0 1 38.647 142.856L84.475 63.473A34.295 34.295 0 0 1 114.167 46.33H205.8300000000001A34.288 34.288 0 0 1 235.5210000000001 63.4730000000001L281.355 142.8560000000001A34.308 34.308 0 0 1 281.355 177.1420000000001L235.521 256.5250000000001A34.288 34.288 0 0 1 205.83 273.6670000000001M205.83 250.8100000000001C209.898 250.8100000000001 213.693 248.6220000000001 215.727 245.0960000000001L261.5610000000001 165.7130000000001A11.464 11.464 0 0 0 261.5610000000001 154.2850000000001L215.727 74.902A11.47 11.47 0 0 0 205.8300000000001 69.187H114.1670000000001A11.47 11.47 0 0 0 104.27 74.902L58.44 154.285A11.436 11.436 0 0 0 58.44 165.713L104.269 245.096A11.459 11.459 0 0 0 114.166 250.81H205.829 M142.855 117.106C142.855 126.575 150.53 134.249 159.998 134.249C169.467 134.249 177.141 126.575 177.141 117.106C177.141 107.638 169.467 99.963 159.998 99.963C150.53 99.963 142.855 107.638 142.855 117.106M159.998 151.462C153.69 151.462 148.57 156.582 148.57 162.891V220.034C148.57 226.348 153.69 231.462 159.998 231.462C166.307 231.462 171.427 226.348 171.427 220.034V162.891C171.427 156.582 166.307 151.462 159.998 151.462" />
    <glyph glyph-name="android"
      unicode="&#xEA06;"
      horiz-adv-x="321" d=" M251.02 200.064V130.077C251.02 119.025 260.094 109.957 271.152 109.957C281.926 109.957 291 119.026 291 130.077V200.064C291 210.832 281.926 219.897 271.152 219.897C260.094 219.897 251.02 210.832 251.02 200.064zM241.096 219.897H80.904V90.118C80.904 79.633 89.407 71.13 99.897 71.13H101.035V20.12C101.035 9.07 110.105 0 121.162 0C131.941 0 141.01 9.07 141.01 20.12V71.13H180.985V20.12C180.985 9.07 190.059 0 201.115 0C211.89 0 220.965 9.07 220.965 20.12V71.13H222.381C232.588 71.13 241.096 79.632 241.096 90.118V219.897zM70.98 130.077V200.064C70.98 210.832 61.906 219.897 51.132 219.897C40.075 219.897 31.001 210.832 31.001 200.064V130.077C31.001 119.025 40.076 109.957 51.132 109.957C61.907 109.957 70.98 119.025 70.98 130.077zM180.986 269.774C180.986 275.4410000000001 185.527 279.976 190.909 279.976A10.16 10.16 0 0 0 201.116 269.774C201.116 264.39 196.584 259.855 190.909 259.855C185.527 259.855 180.986 264.39 180.986 269.775zM141.01 269.774C141.01 264.39 136.473 259.855 131.086 259.855C125.416 259.855 121.162 264.39 121.162 269.775C121.162 275.4410000000001 125.416 279.976 131.086 279.976C136.473 279.976 141.01 275.4410000000001 141.01 269.774zM80.904 229.816H241.096C241.096 256.453 228.056 280.259 207.924 294.707L224.647 311.43C226.639 313.412 226.639 316.532 224.647 318.514C222.664 320.495 219.549 320.495 217.566 318.514L199.134 300.09C187.793 306.328 174.754 310.009 161.137 310.009C147.247 310.009 134.207 306.329 122.867 300.09L104.434 318.514C102.735 320.495 99.331 320.495 97.631 318.514C95.649 316.532 95.649 313.412 97.631 311.43L114.076 294.707C94.226 280.26 80.904 256.453 80.904 229.816z" />
    <glyph glyph-name="apple"
      unicode="&#xEA07;"
      horiz-adv-x="321" d=" M264.798 110.05C255.716 122.871 251.442 137.295 251.442 152.788C251.442 167.212 255.716 180.568 263.73 192.855C268.0030000000001 199.265 275.4820000000001 206.745 285.6330000000001 215.826C278.6880000000001 223.84 272.2770000000001 230.2500000000001 265.3330000000001 235.058C253.045 243.606 239.689 247.346 224.197 247.346C215.1150000000001 247.346 203.897 245.209 191.0750000000001 240.935C178.2540000000001 236.661 169.1720000000001 234.5250000000001 163.2950000000001 234.5250000000001C159.0220000000001 234.5250000000001 149.9400000000001 236.661 136.585 240.401C123.2290000000001 244.141 111.475 246.2770000000001 102.394 246.2770000000001C80.491 246.2770000000001 62.327 237.195 47.904 218.497C33.478 199.8 26 175.76 26 146.377C26 115.392 35.616 82.805 54.314 49.683C73.546 16.56 92.778 0 112.544 0C118.954 0 127.503 2.137 138.187 6.41C148.337 10.684 157.953 12.821 165.432 12.821C173.98 12.821 183.596 10.684 194.28 6.411C206.033 2.137 215.1150000000001 0 220.992 0C237.552 0 254.1140000000001 12.821 270.6740000000001 37.93C281.3590000000001 53.957 289.372 69.983 294.1800000000001 86.01C284.0300000000001 89.215 273.8800000000001 97.763 264.7980000000001 110.05zM178.254 245.21C173.446 243.607 167.035 242.539 157.954 242.004C158.487 261.236 163.295 277.797 172.912 291.687C182.528 305.577 198.554 315.193 220.992 320.001C220.992 319.467 221.526 318.933 221.526 317.864C221.526 316.796 222.06 316.261 222.06 315.727V311.453C222.06 303.44 220.4569999999999 294.893 216.7179999999999 285.276C212.9779999999999 275.66 207.1019999999999 266.579 199.0879999999999 258.566C192.144 252.155 185.1979999999999 247.346 178.2539999999999 245.21z" />
    <glyph glyph-name="arrow-down-circle&download"
      unicode="&#xEA08;"
      horiz-adv-x="321" d=" M192.918 155.793L172.427 135.3V212.29C172.427 218.598 167.313 223.718 160.998 223.718C154.69 223.718 149.57 218.598 149.57 212.29V135.3L129.078 155.792C124.621 160.254 117.375 160.254 112.918 155.792C108.455 151.329 108.455 144.094 112.918 139.632L152.918 99.632A11.373 11.373 0 0 1 160.998 96.283C163.924 96.283 166.85 97.397 169.078 99.632L209.078 139.632C213.541 144.094 213.541 151.329 209.078 155.792C204.6150000000001 160.254 197.381 160.254 192.918 155.792 M160.998 57.143C104.284 57.143 58.141 103.286 58.141 160S104.284 262.857 160.998 262.857C217.713 262.857 263.855 216.714 263.855 160S217.713 57.143 160.998 57.143M160.998 285.7140000000001C91.678 285.714 35.284 229.32 35.284 160S91.678 34.286 160.998 34.286S286.713 90.68 286.713 160S230.318 285.714 160.998 285.714" />
    <glyph glyph-name="arrow-down-circle-solid&download-solid"
      unicode="&#xEA09;"
      horiz-adv-x="321" d=" M209.079 139.631L169.079 99.631A11.383 11.383 0 0 0 160.999 96.283A11.373 11.373 0 0 0 152.919 99.631L112.919 139.631C108.456 144.094 108.456 151.329 112.919 155.791C117.376 160.254 124.622 160.254 129.079 155.791L149.57 135.3V212.289C149.57 218.597 154.685 223.717 160.999 223.717C167.307 223.717 172.427 218.597 172.427 212.289V135.3L192.919 155.791C197.382 160.254 204.616 160.254 209.079 155.791C213.542 151.329 213.542 144.094 209.079 139.631M160.999 285.711C91.57 285.711 35.285 229.431 35.285 159.997C35.285 90.569 91.57 34.283 160.999 34.283C230.427 34.283 286.713 90.569 286.713 159.997C286.713 229.431 230.427 285.711 160.999 285.711" />
    <glyph glyph-name="arrow-down"
      unicode="&#xEA0A;"
      horiz-adv-x="321" d=" M149.57 251.427V96.164L89.078 156.65C84.615 161.113 77.381 161.113 72.918 156.65C68.455 152.193 68.455 144.947 72.918 140.49L152.918 60.49C157.381 56.027 164.615 56.027 169.078 60.49L249.078 140.49A11.373 11.373 0 0 1 252.427 148.57C252.427 151.496 251.313 154.421 249.078 156.65C244.615 161.113 237.381 161.113 232.918 156.65L172.427 96.1640000000001V251.427C172.427 257.736 167.307 262.856 160.998 262.856C154.69 262.856 149.57 257.736 149.57 251.427" />
    <glyph glyph-name="arrow-left-circle-solid"
      unicode="&#xEA0B;"
      horiz-adv-x="321" d=" M140.63 111.92L100.63 151.92A11.383 11.383 0 0 0 97.282 160C97.282 162.926 98.396 165.851 100.63 168.08L140.63 208.08C145.093 212.543 152.327 212.543 156.79 208.08C161.253 203.623 161.253 196.377 156.79 191.92L136.3 171.429H213.288C219.597 171.429 224.717 166.314 224.717 160C224.717 153.691 219.597 148.571 213.288 148.571H136.3L156.791 128.08C161.254 123.617 161.254 116.383 156.791 111.92C152.328 107.457 145.094 107.457 140.631 111.92M161 285.711C91.571 285.711 35.286 229.431 35.286 159.997C35.286 90.569 91.571 34.283 161 34.283C230.428 34.283 286.714 90.569 286.714 159.997C286.714 229.431 230.428 285.711 161 285.711" />
    <glyph glyph-name="arrow-left-circle"
      unicode="&#xEA0C;"
      horiz-adv-x="321" d=" M156.79 128.081L136.298 148.573H213.287C219.595 148.573 224.715 153.687 224.715 160.001C224.715 166.31 219.595 171.43 213.287 171.43H136.298L156.79 191.921C161.253 196.378 161.253 203.624 156.79 208.081C152.327 212.544 145.093 212.544 140.63 208.081L100.63 168.081A11.373 11.373 0 0 1 97.281 160.001C97.281 157.075 98.395 154.15 100.63 151.921L140.63 111.921C145.093 107.458 152.327 107.458 156.79 111.921C161.253 116.384 161.253 123.618 156.79 128.081 M160.998 57.143C104.284 57.143 58.141 103.286 58.141 160S104.284 262.857 160.998 262.857C217.713 262.857 263.855 216.714 263.855 160S217.713 57.143 160.998 57.143M160.998 285.7140000000001C91.678 285.714 35.284 229.32 35.284 160S91.678 34.286 160.998 34.286S286.713 90.68 286.713 160S230.318 285.714 160.998 285.714" />
    <glyph glyph-name="arrow-left"
      unicode="&#xEA0D;"
      horiz-adv-x="321" d=" M252.427 171.429H97.164L157.65 231.92C162.113 236.383 162.113 243.617 157.65 248.08C153.193 252.543 145.947 252.543 141.49 248.08L61.49 168.08C57.027 163.617 57.027 156.383 61.49 151.92L141.49 71.92A11.373 11.373 0 0 1 149.57 68.571C152.495 68.571 155.421 69.686 157.65 71.92C162.113 76.383 162.113 83.617 157.65 88.08L97.1640000000001 148.571H252.4270000000001C258.7350000000001 148.571 263.8550000000001 153.691 263.8550000000001 160S258.7350000000001 171.429 252.4270000000001 171.429" />
    <glyph glyph-name="arrow-right-circle-solid"
      unicode="&#xEA0E;"
      horiz-adv-x="321" d=" M181.367 208.074L221.367 168.074A11.383 11.383 0 0 0 224.716 159.994C224.716 157.069 223.602 154.143 221.367 151.914L181.367 111.914C176.905 107.451 169.67 107.451 165.207 111.914C160.745 116.371 160.745 123.617 165.207 128.074L185.699 148.566H108.71C102.402 148.566 97.282 153.68 97.282 159.994C97.282 166.303 102.402 171.423 108.71 171.423H185.7L165.208 191.914C160.746 196.377 160.746 203.611 165.208 208.074C169.671 212.537 176.906 212.537 181.368 208.074M161 34.283C230.428 34.283 286.714 90.563 286.714 159.997C286.714 229.426 230.428 285.711 161 285.711C91.571 285.711 35.286 229.426 35.286 159.997C35.286 90.563 91.571 34.283 161 34.283" />
    <glyph glyph-name="arrow-right-circle"
      unicode="&#xEA0F;"
      horiz-adv-x="321" d=" M165.207 191.921L185.698 171.43H108.71C102.401 171.43 97.281 166.315 97.281 160.001C97.281 153.693 102.401 148.573 108.71 148.573H185.698L165.207 128.081C160.744 123.624 160.744 116.378 165.207 111.921C169.67 107.458 176.904 107.458 181.367 111.921L221.367 151.921A11.373 11.373 0 0 1 224.715 160.001C224.715 162.927 223.601 165.853 221.367 168.0810000000001L181.367 208.0810000000001C176.904 212.5440000000001 169.67 212.5440000000001 165.207 208.0810000000001C160.744 203.6180000000001 160.744 196.3840000000001 165.207 191.9210000000001 M160.998 262.857C217.713 262.857 263.855 216.714 263.855 160S217.713 57.143 160.998 57.143C104.284 57.143 58.141 103.286 58.141 160S104.284 262.857 160.998 262.857M160.998 34.286C230.318 34.286 286.713 90.68 286.713 160S230.318 285.714 160.998 285.714S35.284 229.32 35.284 160S91.678 34.286 160.998 34.286" />
    <glyph glyph-name="arrow-right"
      unicode="&#xEA10;"
      horiz-adv-x="320" d=" M69.571 147.57H224.834L164.348 87.079C159.885 82.616 159.885 75.381 164.348 70.919C168.805 66.456 176.051 66.456 180.508 70.919L260.5080000000001 150.919C264.9710000000001 155.381 264.9710000000001 162.616 260.5080000000001 167.079L180.5080000000001 247.079A11.373 11.373 0 0 1 172.428 250.427A11.373 11.373 0 0 1 164.348 247.079C159.885 242.616 159.885 235.381 164.348 230.919L224.834 170.427H69.571C63.263 170.427 58.143 165.307 58.143 158.999C58.143 152.69 63.263 147.57 69.571 147.57" />
    <glyph glyph-name="arrow-up-circle&upload"
      unicode="&#xEA11;"
      horiz-adv-x="321" d=" M129.078 164.21L149.57 184.7V107.712C149.57 101.403 154.684 96.283 160.998 96.283C167.307 96.283 172.427 101.403 172.427 107.712V184.7L192.918 164.209C197.375 159.746 204.621 159.746 209.078 164.209C213.541 168.672 213.541 175.906 209.078 180.369L169.078 220.369A11.373 11.373 0 0 1 160.998 223.717A11.373 11.373 0 0 1 152.918 220.369L112.918 180.369C108.455 175.906 108.455 168.672 112.918 164.209C117.381 159.746 124.615 159.746 129.078 164.209 M160.998 262.857C217.713 262.857 263.855 216.714 263.855 160S217.713 57.143 160.998 57.143C104.284 57.143 58.141 103.286 58.141 160S104.284 262.857 160.998 262.857M160.998 34.286C230.318 34.286 286.713 90.68 286.713 160S230.318 285.714 160.998 285.714S35.284 229.32 35.284 160S91.678 34.286 160.998 34.286" />
    <glyph glyph-name="arrow-up-circle-solid&upload-solid"
      unicode="&#xEA12;"
      horiz-adv-x="321" d=" M112.919 180.363L152.919 220.363A11.383 11.383 0 0 0 160.999 223.711C163.925 223.711 166.85 222.597 169.079 220.363L209.079 180.363C213.542 175.9 213.542 168.666 209.079 164.203C204.622 159.74 197.376 159.74 192.919 164.203L172.427 184.694V107.706C172.427 101.397 167.313 96.277 160.999 96.277C154.69 96.277 149.57 101.397 149.57 107.706V184.694L129.079 164.203C124.616 159.7400000000001 117.382 159.7400000000001 112.919 164.203C108.456 168.666 108.456 175.9 112.919 180.363M160.999 34.283C230.427 34.283 286.713 90.563 286.713 159.997C286.713 229.426 230.427 285.711 160.999 285.711C91.57 285.711 35.285 229.426 35.285 159.997C35.285 90.563 91.57 34.283 160.999 34.283" />
    <glyph glyph-name="arrow-up"
      unicode="&#xEA13;"
      horiz-adv-x="321" d=" M172.428 68.571V223.834L232.92 163.349C237.383 158.886 244.617 158.886 249.08 163.349C253.543 167.806 253.543 175.051 249.08 179.509L169.08 259.509C164.617 263.971 157.383 263.971 152.92 259.509L72.92 179.509A11.373 11.373 0 0 1 69.571 171.429C69.571 168.503 70.685 165.577 72.92 163.349C77.383 158.886 84.617 158.886 89.08 163.349L149.571 223.834V68.571C149.571 62.263 154.691 57.143 161 57.143C167.308 57.143 172.428 62.263 172.428 68.571" />
    <glyph glyph-name="at"
      unicode="&#xEA14;"
      horiz-adv-x="320" d=" M159.998 125.714C141.084 125.714 125.713 141.086 125.713 160S141.084 194.286 159.998 194.286C178.913 194.286 194.284 178.914 194.284 160S178.913 125.714 159.998 125.714M285.655 162.457C284.341 230.63 228.513 285.714 159.998 285.714C90.684 285.714 34.284 229.314 34.284 160S90.684 34.286 159.998 34.286C184.513 34.286 208.284 41.371 228.684 54.686C233.998 58.171 235.484 65.257 231.998 70.514C228.57 75.829 221.484 77.314 216.17 73.829C199.484 62.914 180.055 57.143 159.998 57.143C103.255 57.143 57.141 103.314 57.141 160C57.141 216.743 103.255 262.857 159.998 262.857C201.027 262.857 236.513 238.743 252.97 203.829C259.313 190.571 262.855 175.657 262.855 160C262.855 147.371 252.627 137.143 239.998 137.143C227.37 137.143 217.141 147.371 217.141 160C217.141 171.886 213.541 182.857 207.313 192A55.845 55.845 0 0 1 194.284 205.657V205.714C184.741 212.857 172.855 217.143 159.998 217.143C128.455 217.143 102.855 191.543 102.855 160S128.455 102.857 159.998 102.857C177.313 102.857 192.798 110.571 203.313 122.743C204.741 124.4 206.113 126.171 207.313 128C215.655 119.543 227.198 114.286 239.998 114.286C265.255 114.286 285.713 134.743 285.713 160C285.713 160.8 285.713 161.657 285.655 162.457" />
    <glyph glyph-name="bell"
      unicode="&#xEA15;"
      horiz-adv-x="320" d=" M256.5 214.517C268.568 185.465 262.836 150.601 239.305 127.07L196.636 84.4A45.754 45.754 0 0 1 183.887 59.692L181.79 47.297A11.428 11.428 0 0 0 162.442 41.12L124.027 79.535C111.397 73.813 96.01 76.144 85.627 86.527C75.243 96.91 72.912 112.297 78.634 124.927L40.22 163.345A11.436 11.436 0 0 0 37.414 174.899A11.425 11.425 0 0 0 46.397 182.694L58.791 184.791C68.151 186.374 76.791 190.825 83.5 197.539L126.168 240.202C141.723 255.762 162.226 263.539 182.734 263.539C193.975 263.539 205.215 261.203 215.64 256.529A34.142 34.142 0 0 0 224.594 272.187C231.2910000000001 278.879 240.063 282.227 248.8400000000001 282.227S266.3880000000001 278.879 273.086 272.187C286.474 258.793 286.474 237.09 273.086 223.696A34.15 34.15 0 0 0 256.5 214.518zM89.05 172.686A67.934 67.934 0 0 0 71.516 164.373L163.47 72.418A67.934 67.934 0 0 0 171.783 89.953L89.05 172.686zM186.983 107.074L223.139 143.23C233.87 153.961 239.779 168.31 239.779 183.635C239.779 198.961 233.87 213.31 223.139 224.041C212.407 234.773 198.059 240.6810000000001 182.733 240.6810000000001S153.059 234.773 142.327 224.041L106.174 187.888L186.983 107.074zM240.759 256.02C237.845 253.111 237.41 249.705 237.41 247.94C237.41 246.174 237.845 242.768 240.759 239.86C243.667 236.945 247.073 236.511 248.839 236.511S254.01 236.945 256.919 239.86C261.376 244.317 261.376 251.562 256.919 256.02C254.01 258.934 250.605 259.368 248.839 259.368S243.673 258.934 240.759 256.02z" />
    <glyph glyph-name="bot"
      unicode="&#xEA16;"
      horiz-adv-x="320" d=" M239.998 68.571C239.998 62.4 234.741 57.143 228.57 57.143H91.427C85.255 57.143 79.998 62.4 79.998 68.571V114.286C79.998 118.686 80.341 122.971 81.027 127.2C87.255 165.2 120.284 194.286 159.998 194.286C199.713 194.286 232.741 165.2 238.97 127.2A80.375 80.375 0 0 0 239.998 114.286V68.571zM159.998 263.257C166.284 263.257 171.427 258.1140000000001 171.427 251.829C171.427 245.543 166.284 240.4 159.998 240.4C153.713 240.4 148.57 245.543 148.57 251.829C148.57 258.1140000000001 153.713 263.257 159.998 263.257zM261.027 133.43C252.741 177.258 216.341 211.487 171.427 216.515V219.544C184.741 224.172 194.284 236.915 194.284 251.83C194.284 270.801 178.913 286.115 159.998 286.115C141.084 286.115 125.713 270.801 125.713 251.83C125.713 236.915 135.255 224.172 148.57 219.544V216.515C103.655 211.487 67.255 177.258 58.97 133.43C45.027 131.544 34.284 119.601 34.284 105.144C34.284 91.258 44.113 79.772 57.141 77.144V68.572C57.141 49.715 72.57 34.287 91.427 34.287H228.57C247.427 34.287 262.855 49.715 262.855 68.572V77.144C275.884 79.7720000000001 285.713 91.258 285.713 105.144C285.713 119.601 274.9700000000001 131.5440000000001 261.0270000000001 133.43zM213.347 102.936C197.575 88.925 179.13 81.519 159.998 81.519C140.867 81.519 122.415 88.925 106.65 102.931A5.697 5.697 0 0 1 98.587 102.456A5.707 5.707 0 0 1 99.061 94.394C116.953 78.496 138.021 70.091 159.998 70.091C181.97 70.091 203.038 78.496 220.935 94.388A5.72 5.72 0 0 1 221.415 102.456A5.71 5.71 0 0 1 213.347 102.936M131.427 114.286C137.735 114.286 142.855 119.406 142.855 125.716V137.144C142.855 141.784 140.078 145.761 136.101 147.55A11.287 11.287 0 0 0 137.13 142.858C137.13 136.544 132.015 131.43 125.701 131.43C123.615 131.43 121.684 132.03 119.998 133.012V125.715C119.998 119.407 125.118 114.287 131.427 114.287M188.57 114.287C194.878 114.287 199.998 119.407 199.998 125.715V137.144C199.998 141.784 197.221 145.761 193.244 147.55A11.287 11.287 0 0 0 194.273 142.858C194.273 136.544 189.158 131.43 182.844 131.43C180.758 131.43 178.827 132.03 177.141 133.012V125.715C177.141 119.407 182.261 114.287 188.57 114.287" />
    <glyph glyph-name="bottle"
      unicode="&#xEA17;"
      horiz-adv-x="320" d=" M215.274 265.591L263.759 217.106L227.6790000000001 181.02C219.474 172.82 215.999 161.02 218.382 149.666C224.525 120.494 216.285 88.814 193.617 66.146C175.754 48.289 152.359 39.357 128.965 39.357S82.177 48.289 64.319 66.146C28.599 101.866 28.599 159.729 64.319 195.449C82.148 213.277 105.554 222.18 128.925 222.18C135.268 222.18 141.611 221.529 147.834 220.214A34.81 34.81 0 0 1 154.931 219.477C163.937 219.477 172.691 223.009 179.194 229.511M215.274 233.266L195.354 213.346C184.571 202.563 170.211 196.62 154.931 196.62C150.977 196.62 147.011 197.031 143.137 197.849A69.398 69.398 0 0 1 128.925 199.323C110.611 199.323 93.405 192.209 80.479 179.283C53.742 152.546 53.742 109.043 80.479 82.311C93.439 69.351 110.657 62.2140000000001 128.965 62.2140000000001C147.274 62.2140000000001 164.497 69.3510000000001 177.451 82.3110000000001C193.879 98.7340000000001 200.817 122.1570000000001 196.017 144.9570000000001C192.028 163.9690000000001 197.822 183.489 211.514 197.186L231.434 217.1060000000001 M272.004 208.861C276.37 204.495 276.37 197.387 272.004 193.021L271.678 192.701C267.318 188.335 260.204 188.335 255.844 192.701L190.867 257.673C186.507 262.038 186.507 269.147 190.867 273.5130000000001L191.193 273.8330000000001C195.558 278.198 202.667 278.198 207.033 273.8330000000001L272.004 208.861zM269.475 222.818L220.99 271.304L228.87 279.19C233.315 283.63 240.79 283.83 245.23 279.384L277.555 247.064C282.0010000000001 242.618 281.801 235.144 277.355 230.698L269.475 222.818zM103.34 92.347C100.277 92.347 97.266 92.553 94.289 92.89C114.471 74.41 145.786 74.885 165.323 94.422C178.849 107.947 183.22 127.119 178.534 144.336C167.02 113.97 137.74 92.347 103.34 92.347" />
    <glyph glyph-name="box-open"
      unicode="&#xEA18;"
      horiz-adv-x="320" d=" M245.713 217.486C245.713 217.029 245.541 216.8 245.484 216.743L171.324 172.577L171.29 213.874C171.29 216.743 172.684 219.354 174.93 220.691L245.707 262.857H245.713V217.486zM245.713 108.914C245.713 108.457 245.541 108.229 245.484 108.171L171.427 64.063L171.353 145.989C171.358 145.994 171.364 145.994 171.37 146L245.713 190.229V108.914zM74.513 108.171C74.455 108.229 74.284 108.457 74.284 108.914V190.23L148.495 146.081L148.57 64.064L74.513 108.172zM148.467 172.691L121.398 188.817L148.438 204.926L148.467 172.691zM159.998 262.743L180.444 250.583L99.067 202.114L78.627 214.286L159.998 262.743zM257.004 282.731A22.864 22.864 0 0 1 234.015 282.497L202.764 263.874L171.37 282.571C167.884 284.686 163.941 285.714 159.998 285.714C156.055 285.714 152.113 284.686 148.627 282.571L62.798 231.486A21.05 21.05 0 0 1 57.255 226.743C54.227 223.314 52.284 218.971 51.655 214.343V214.229C51.484 213.2 51.427 212.114 51.427 211.086V108.914C51.427 100.514 55.77 92.743 62.798 88.514L148.627 37.429C152.113 35.314 156.055 34.286 159.998 34.286C163.941 34.286 167.884 35.314 171.37 37.429L257.198 88.514C264.227 92.743 268.57 100.514 268.57 108.914V262.857A22.86 22.86 0 0 1 257.004 282.731z" />
    <glyph glyph-name="brush"
      unicode="&#xEA19;"
      horiz-adv-x="321" d=" M178.5 223.477L107.88 153.699C103.94 149.8 104.985 145.078 109.829 142.385C122.048 135.612 132.177 125.422 138.949 113.063C141.602 108.199 146.325 107.154 150.244 111.093C169.859 130.969 193.996 155.387 220.122 181.855C285.94 248.437 326.94 308.085 315.8450000000001 319.2C304.7310000000001 330.273 245.0830000000001 289.275 178.501 223.477M74.717 121.557C54.841 121.557 36.371 107.47 31.729 88.016C26.484 67.476 20.113 37.23 3.874 14.44C-3.16 4.572 -0.527 -0.513 11.049 1.397C47.204 7.305 118.207 35.361 118.207 76.821C118.207 76.821 118.207 73.083 118.207 76.821C118.207 101.541 98.15 121.558 74.717 121.558" />
    <glyph glyph-name="calendar"
      unicode="&#xEA1A;"
      horiz-adv-x="320" d=" M240.286 286H80.286C61.429 286 46 270.5710000000001 46 251.714V68.857C46 50 61.429 34.571 80.286 34.571H240.286C259.1430000000001 34.571 274.5710000000001 50 274.5710000000001 68.857V251.714C274.5710000000001 270.5710000000001 259.1430000000001 286 240.2860000000001 286M240.2860000000001 57.429H80.286C74.091 57.429 68.857 62.663 68.857 68.857V217.43H251.7140000000001V68.858C251.7140000000001 62.664 246.48 57.43 240.2860000000001 57.43M206 251.714C206 245.406 200.88 240.286 194.571 240.286H126C119.691 240.286 114.571 245.406 114.571 251.714C114.571 258.023 119.691 263.1430000000001 126 263.1430000000001H194.571C200.88 263.1430000000001 206 258.023 206 251.714 M196.919 188.86H191.993C174.49 188.86 160.17 174.534 160.17 157.03V117.8250000000001C160.17 100.3220000000001 174.49 86.002 191.993 86.002H196.919C214.422 86.002 228.742 100.322 228.742 117.8250000000001V157.0310000000001C228.742 174.5340000000001 214.422 188.8590000000001 196.919 188.8590000000001zM205.885 117.825C205.885 112.962 201.776 108.859 196.919 108.859H191.993C187.136 108.859 183.027 112.962 183.027 117.825V157.031C183.027 161.894 187.136 166.002 191.993 166.002H196.919C201.776 166.002 205.885 161.894 205.885 157.031V117.825zM133.116 185.486A11.28 11.28 0 0 1 117.002 185.486L95.173 163.714C90.716 159.257 90.716 152 95.173 147.543C97.402 145.314 100.316 144.171 103.23 144.171C106.202 144.171 109.116 145.314 111.345 147.543L113.63 149.829V98.343C113.63 91.543 118.773 86 125.059 86C131.345 86 136.487 91.543 136.487 98.343V177.429C136.487 178.2290000000001 136.373 179.0860000000001 136.202 179.886C135.745 181.943 134.716 183.886 133.116 185.486" />
    <glyph glyph-name="camera"
      unicode="&#xEA1B;"
      horiz-adv-x="320" d=" M251.427 240H68.57C49.713 240 34.284 224.571 34.284 205.714V80C34.284 61.143 49.713 45.714 68.57 45.714H251.427C270.284 45.714 285.713 61.143 285.713 80V205.714C285.713 224.571 270.284 240 251.427 240M251.427 217.143C257.621 217.143 262.855 211.909 262.855 205.714V80C262.855 73.806 257.621 68.571 251.427 68.571H68.57C62.375 68.571 57.141 73.806 57.141 80V205.714C57.141 211.909 62.375 217.143 68.57 217.143H251.427 M160.016 205.154C125.302 205.154 97.159 177.011 97.159 142.297C97.159 107.582 125.302 79.439 160.016 79.439S222.873 107.582 222.873 142.297C222.873 177.011 194.73 205.154 160.016 205.154M160.016 182.297C182.073 182.297 200.016 164.354 200.016 142.297C200.016 120.239 182.073 102.297 160.016 102.297S120.016 120.239 120.016 142.297C120.016 164.354 137.959 182.297 160.016 182.297 M181.45 161.006C180.674 139.6 163.125 122.469 141.525 122.469C140.811 122.469 140.119 122.537 139.417 122.577C144.617 117.143 151.902 113.726 160.017 113.726C175.794 113.726 188.588 126.514 188.588 142.297C188.588 149.491 185.839 155.983 181.451 161.006M119.105 228.571L126.625 251.429H193.368L200.894 228.571H224.957L215.082 258.5710000000001A22.858 22.858 0 0 1 193.368 274.286H126.625A22.856 22.856 0 0 1 104.917 258.5710000000001L95.042 228.571H119.105z" />
    <glyph glyph-name="case"
      unicode="&#xEA1C;"
      horiz-adv-x="321" d=" M200 151C200 156.52 195.52 161 190 161H130C124.48 161 120 156.52 120 151V141H40V221H280V141H200V151zM40 41V101H120V91C120 85.48 124.48 81 130 81H190C195.52 81 200 85.48 200 91V101H280V41H40zM120 281H200V261H120V281zM240 301C240 312.06 231.06 321 220 321H100C88.94 321 80 312.06 80 301V261H20C8.94 261 0 252.06 0 241V21C0 9.94 8.94 1 20 1H300C311.06 1 320 9.94 320 21V241C320 252.06 311.06 261 300 261H240V301z" />
    <glyph glyph-name="chain"
      unicode="&#xEA1D;"
      horiz-adv-x="320" d=" M144.51 133.066A11.373 11.373 0 0 0 136.43 136.415C124.842 147.998 118.459 163.455 118.459 179.935C118.459 196.409 124.842 211.872 136.43 223.455L180.722 267.746C204.722 291.741 243.767 291.752 267.762 267.746C279.3450000000001 256.163 285.727 240.706 285.727 224.232C285.727 207.752 279.345 192.295 267.762 180.712L242.367 155.323C237.905 150.855 230.676 150.855 226.207 155.323C221.745 159.786 221.745 167.021 226.207 171.483L251.602 196.878C258.865 204.141 262.87 213.861 262.87 224.232C262.87 234.603 258.865 244.318 251.602 251.586C236.51 266.672 211.973 266.672 196.887 251.586L152.59 207.29C145.322 200.022 141.316 190.307 141.316 179.936C141.316 169.564 145.322 159.844 152.59 152.576C157.053 148.113 157.053 140.879 152.59 136.416A11.373 11.373 0 0 0 144.51 133.067 M95.783 34.255C80.023 34.255 64.263 40.255 52.263 52.249C28.269 76.249 28.269 115.295 52.263 139.2890000000001L77.657 164.6780000000001C82.114 169.1410000000001 89.354 169.1410000000001 93.817 164.6780000000001C98.28 160.2150000000001 98.28 152.9810000000001 93.817 148.5180000000001L68.423 123.1290000000001C53.343 108.043 53.343 83.4950000000001 68.429 68.4150000000001C83.514 53.3290000000001 108.063 53.335 123.143 68.4150000000001L167.44 112.7060000000001C182.52 127.7920000000001 182.52 152.341 167.44 167.4260000000001C162.971 171.8830000000001 162.971 179.1230000000001 167.44 183.5860000000001C171.903 188.049 179.131 188.049 183.6 183.5860000000001C207.594 159.5920000000001 207.594 120.5460000000001 183.6 96.5460000000001L139.303 52.249C127.303 40.255 111.543 34.255 95.783 34.255" />
    <glyph glyph-name="chats"
      unicode="&#xEA1E;"
      horiz-adv-x="320" d=" M20 240C8.94 240 0 231.06 0 220V60C0 48.94 8.94 40 20 40H80L132.46 5.5C137.06 2.46 145.3 0 150.82 0H190C195.52 0 200 4.48 200 10V40H220C231.06 40 240 48.94 240 60V220C240 231.06 231.06 240 220 240H20zM200 80H160V40L100 80H40V200H200V80zM100 320C88.94 320 80 311.06 80 300V260H120V280H270C275.52 280 280 275.52 280 270V160H260V120H300C311.06 120 320 128.94 320 140V300C320 311.06 311.06 320 300 320H100L148.037 214.205" />
    <glyph glyph-name="chevron-down"
      unicode="&#xEA1F;"
      horiz-adv-x="320" d=" M160 98C153.6 98 147.2 100.437 142.324 105.324L67.322 180.327C57.559 190.09 57.559 205.915 67.322 215.677C77.072 225.441 92.922 225.441 102.673 215.677L160 158.365L217.327 215.679C227.09 225.442 242.915 225.442 252.677 215.679C262.441 205.916 262.441 190.091 252.677 180.328L177.676 105.325A24.901 24.901 0 0 0 160 98" />
    <glyph glyph-name="chevron-left"
      unicode="&#xEA20;"
      horiz-adv-x="320" d=" M97.5 160.5C97.5 166.9 99.937 173.3 104.825 178.175L179.827 253.178C189.59 262.94 205.415 262.94 215.178 253.178C224.941 243.428 224.941 227.577 215.178 217.826L157.864 160.5L215.178 103.173C224.941 93.41 224.941 77.585 215.178 67.822C205.415 58.059 189.59 58.059 179.828 67.822L104.825 142.824A24.901 24.901 0 0 0 97.5 160.5" />
    <glyph glyph-name="chevron-right"
      unicode="&#xEA21;"
      horiz-adv-x="320" d=" M222.5 160.5C222.5 154.1 220.063 147.7 215.175 142.824L140.173 67.822C130.41 58.059 114.585 58.059 104.822 67.822C95.059 77.572 95.059 93.422 104.822 103.172L162.136 160.5L104.822 217.826C95.059 227.589 95.059 243.415 104.822 253.178C114.585 262.94 130.41 262.94 140.172 253.178L215.175 178.175A24.901 24.901 0 0 0 222.5 160.5" />
    <glyph glyph-name="chevron-up"
      unicode="&#xEA22;"
      horiz-adv-x="320" d=" M160 223C166.4 223 172.8 220.562 177.676 215.675L252.678 140.672C262.441 130.91 262.441 115.084 252.678 105.322C242.928 95.559 227.078 95.559 217.327 105.322L160 162.635L102.673 105.32C92.91 95.558 77.085 95.558 67.323 105.32C57.559 115.083 57.559 130.909 67.323 140.671L142.324 215.674A24.901 24.901 0 0 0 160 223" />
    <glyph glyph-name="chrome"
      unicode="&#xEA23;"
      horiz-adv-x="321" d=" M160 100C193.137 100 220 126.863 220 160S193.137 220 160 220S100 193.137 100 160S126.863 100 160 100zM307.9700000000001 220H215C231.25 203.75 241.88 182.91 241.88 160C241.88 142.91 237.09 127.29 227.5 113.12L161.88 0C205.63 0.42 242.92 16.25 273.76 47.5C304.58 78.75 320 116.25 320 160C320 180.41 316.56 201.88 307.9700000000001 220zM109.69 224.69C124.47 236.14 141.25 240 160 240H297.5C283.33 264.16 264.06 284.58 239.69 298.75C215.31 312.9100000000001 188.75 320 160 320C135 320 111.66 314.69 90 304.06C68.33 293.44 48.28 277.9700000000001 33.59 258.12L80 180C84.58 197.91 94.89 213.22 109.69 224.69zM160 78.12C143.75 78.12 128.96 82.5 115.62 91.24C102.28 99.99 92.28 111.24 85.62 124.99L20 240C6.25 215.41 0 187.91 0 160C0 120 13.02 85.1 39.06 55.31C65.1 25.52 97.5 7.71 136.25 1.87L182.66 82.18C177.99 80.81 170.2 78.12 160 78.12z" />
    <glyph glyph-name="cloud-upload"
      unicode="&#xEA24;"
      horiz-adv-x="320" d=" M243.475 219.587C230.852 251.638 200.046 272.81 165.223 272.81C124.595 272.81 89.898 243.295 82.566 204.118C54.481 197.347 34.286 172.318 34.286 142.558C34.286 107.61 62.715 79.181 97.658 79.181H125.715C132.023 79.181 137.143 84.295 137.143 90.61C137.143 96.918 132.023 102.038 125.715 102.038H97.658C75.321 102.038 57.143 120.21 57.143 142.558C57.143 163.593 72.921 180.93 93.841 182.878A11.433 11.433 0 0 1 104.178 193.387C106.601 225.107 133.418 249.953 165.223 249.953C191.892 249.953 215.315 232.907 223.526 207.53A11.424 11.424 0 0 1 230.275 200.393C250.063 192.735 262.858 174.113 262.858 152.947C262.858 124.878 240.018 102.038 211.943 102.038H194.286C187.972 102.038 182.858 96.918 182.858 90.61C182.858 84.295 187.972 79.181 194.286 79.181H211.943C252.623 79.181 285.7150000000001 112.273 285.7150000000001 152.947C285.7150000000001 181.821 269.3090000000001 207.433 243.475 219.587 M191.918 120.826A11.383 11.383 0 0 1 199.998 117.477C202.924 117.477 205.85 118.591 208.078 120.826C212.541 125.289 212.541 132.523 208.078 136.986L168.078 176.986C163.6150000000001 181.449 156.375 181.449 151.918 176.986L111.918 136.986C107.455 132.523 107.455 125.289 111.918 120.826C116.375 116.363 123.6210000000001 116.363 128.078 120.826L148.57 141.317V64.329C148.57 58.02 153.69 52.9 159.998 52.9C166.313 52.9 171.427 58.02 171.427 64.329V141.317L191.918 120.826z" />
    <glyph glyph-name="cog-solid"
      unicode="&#xEA25;"
      horiz-adv-x="320" d=" M159.998 188.571C144.244 188.571 131.427 175.754 131.427 160C131.427 144.246 144.244 131.429 159.998 131.429C175.753 131.429 188.57 144.246 188.57 160C188.57 175.754 175.753 188.571 159.998 188.571 M159.998 108.571C131.593 108.571 108.57 131.594 108.57 160C108.57 188.406 131.593 211.429 159.998 211.429C188.404 211.429 211.427 188.406 211.427 160C211.427 131.594 188.404 108.571 159.998 108.571M256.775 167.303L279.655 198.56A126.246 126.246 0 0 1 268.873 222.857A126.21 126.21 0 0 1 253.22 244.35L214.712 240.161C210.637 242.932 206.426 245.452 202.014 247.567L186.437 282.898A125.58 125.58 0 0 1 133.569 282.915L117.934 247.464C115.752 246.407 113.563 245.361 111.426 244.127C109.289 242.898 107.289 241.527 105.289 240.161L66.769 244.35A125.522 125.522 0 0 1 40.346 198.555L63.157 167.395C62.78 162.521 62.854 157.612 63.22 152.698L40.34 121.441A126.246 126.246 0 0 1 51.123 97.144A125.939 125.939 0 0 1 66.774 75.658L105.283 79.841C109.357 77.07 113.569 74.55 117.98 72.435L133.557 37.104A125.58 125.58 0 0 1 186.426 37.087L202.06 72.544C204.243 73.595 206.432 74.641 208.569 75.875C210.706 77.104 212.706 78.475 214.706 79.841L253.2260000000001 75.652A125.522 125.522 0 0 1 279.649 121.447L256.837 152.607C257.214 157.481 257.14 162.39 256.774 167.304" />
    <glyph glyph-name="cog"
      unicode="&#xEA26;"
      horiz-adv-x="320" d=" M159.95 285.7200000000001C151.157 285.7200000000001 142.317 284.794 133.568 282.914L117.934 247.463C115.751 246.406 113.562 245.36 111.425 244.126C109.294 242.897 107.294 241.526 105.288 240.16L66.768 244.349A125.684 125.684 0 0 1 40.345 198.554L63.157 167.394C62.779 162.52 62.854 157.611 63.225 152.697L40.34 121.44A126.272 126.272 0 0 1 51.129 97.143A126.183 126.183 0 0 1 66.775 75.651L105.289 79.84C109.358 77.069 113.575 74.549 117.98 72.434L133.563 37.103A125.539 125.539 0 0 1 186.432 37.086L202.06 72.537C204.249 73.594 206.438 74.64 208.569 75.874C210.706 77.103 212.706 78.474 214.712 79.84L253.2320000000001 75.651A125.589 125.589 0 0 1 279.649 121.446L256.843 152.606C257.2200000000001 157.48 257.1400000000001 162.389 256.7750000000001 167.303L279.6550000000001 198.56A125.896 125.896 0 0 1 268.872 222.857A126.211 126.211 0 0 1 253.2200000000001 244.3490000000001L214.712 240.1600000000001C210.638 242.9310000000001 206.426 245.451 202.015 247.5660000000001L186.438 282.8970000000001A125.79 125.79 0 0 1 159.952 285.7200000000001M159.952 262.8630000000001C163.483 262.8630000000001 167.015 262.6800000000001 170.535 262.314L181.1 238.343A22.88 22.88 0 0 1 192.146 226.949C195.226 225.4740000000001 198.398 223.617 201.843 221.269A22.854 22.854 0 0 1 214.712 217.3030000000001C215.535 217.3030000000001 216.358 217.3430000000001 217.18 217.434L243.34 220.28A103.55 103.55 0 0 0 249.078 211.429A102.933 102.933 0 0 0 253.872 202.0340000000001L238.329 180.8060000000001A22.867 22.867 0 0 1 233.98 165.6000000000001C234.289 161.4400000000001 234.318 157.7660000000001 234.055 154.3660000000001A22.86 22.86 0 0 1 238.398 139.103L253.883 117.954A101.64 101.64 0 0 0 243.363 99.72L217.18 102.566A22.329 22.329 0 0 1 214.712 102.697A22.854 22.854 0 0 1 201.843 98.731L201.598 98.566C199.912 97.417 198.455 96.423 197.14 95.669C195.832 94.9090000000001 194.243 94.143 192.403 93.257L192.135 93.131A22.883 22.883 0 0 1 181.146 81.76L170.529 57.674A102.395 102.395 0 0 0 149.466 57.6850000000001L138.895 81.6570000000001A22.868 22.868 0 0 1 127.855 93.0510000000001C124.775 94.5260000000001 121.603 96.3830000000001 118.158 98.7310000000001A22.867 22.867 0 0 1 105.289 102.6970000000001C104.466 102.6970000000001 103.638 102.6570000000001 102.815 102.5660000000001L76.66 99.7200000000001A102.184 102.184 0 0 0 66.129 117.9660000000001L81.666 139.1940000000001A22.871 22.871 0 0 1 86.02 154.4C85.706 158.56 85.683 162.234 85.946 165.634A22.86 22.86 0 0 1 81.603 180.897L66.118 202.046A101.64 101.64 0 0 0 76.638 220.28L102.815 217.434C103.643 217.343 104.466 217.303 105.289 217.303C109.86 217.303 114.346 218.674 118.158 221.269L118.403 221.434C120.089 222.583 121.546 223.577 122.855 224.331C124.169 225.091 125.758 225.8570000000001 127.598 226.7430000000001L127.86 226.8690000000001A22.883 22.883 0 0 1 138.849 238.2400000000001L149.472 262.326C152.952 262.6800000000001 156.455 262.8630000000001 159.952 262.8630000000001M159.999 211.429C131.594 211.429 108.571 188.406 108.571 160C108.571 131.594 131.594 108.571 159.999 108.571C188.405 108.571 211.428 131.594 211.428 160C211.428 188.406 188.405 211.429 159.999 211.429M159.999 188.571C175.754 188.571 188.571 175.754 188.571 160C188.571 144.2460000000001 175.754 131.429 159.999 131.429C144.245 131.429 131.428 144.2460000000001 131.428 160C131.428 175.754 144.245 188.571 159.999 188.571" />
    <glyph glyph-name="collection"
      unicode="&#xEA27;"
      horiz-adv-x="320" d=" M234.284 57.143H85.713C79.518 57.143 74.284 62.377 74.284 68.571V102.851L127.164 102.857A40.027 40.027 0 0 1 159.998 85.714A40.027 40.027 0 0 1 192.833 102.857H245.713V68.571C245.713 62.377 240.478 57.143 234.284 57.143M85.713 262.857H234.284C240.478 262.857 245.713 257.623 245.713 251.429V125.714H186.193A11.442 11.442 0 0 1 175.713 118.857C173.073 112.806 167.027 108.571 159.998 108.571C152.97 108.571 146.924 112.806 144.284 118.857A11.442 11.442 0 0 1 133.804 125.714H74.284V251.43C74.284 257.624 79.518 262.858 85.713 262.858M234.284 285.7150000000001H85.713C66.855 285.7150000000001 51.427 270.2870000000001 51.427 251.43V68.57C51.427 49.713 66.855 34.285 85.713 34.285H234.284C253.141 34.285 268.57 49.713 268.57 68.57V251.43C268.57 270.2870000000001 253.141 285.7150000000001 234.284 285.7150000000001 M108.57 205.714H211.427C217.735 205.714 222.855 210.834 222.855 217.143C222.855 223.451 217.735 228.571 211.427 228.571H108.57C102.261 228.571 97.141 223.451 97.141 217.143C97.141 210.834 102.261 205.714 108.57 205.714M108.57 160H211.427C217.735 160 222.855 165.12 222.855 171.429C222.855 177.737 217.735 182.857 211.427 182.857H108.57C102.261 182.857 97.141 177.737 97.141 171.429C97.141 165.12 102.261 160 108.57 160" />
    <glyph glyph-name="comment"
      unicode="&#xEA28;"
      horiz-adv-x="321" d=" M160.998 251.429C104.284 251.429 58.141 218.76 58.141 178.6C58.141 145.606 91.05 115.88 136.398 107.92A11.432 11.432 0 0 0 145.85 96.663V74.966L191.69 96.017C240.204 119.057 263.855 146.091 263.855 178.6C263.855 218.76 217.713 251.429 160.998 251.429M134.421 45.714A11.418 11.418 0 0 0 122.993 57.143V87.36C70.884 99.771 35.284 136.291 35.284 178.6C35.284 231.36 91.678 274.2860000000001 160.998 274.2860000000001S286.713 231.36 286.713 178.6C286.713 115.84 222.473 85.337 201.364 75.309L139.1870000000001 46.76A11.438 11.438 0 0 0 134.4210000000001 45.714 M121.075 182.857C114.761 182.857 109.646 177.743 109.646 171.429C109.646 165.114 114.761 160 121.075 160S132.503 165.114 132.503 171.429C132.503 177.743 127.389 182.857 121.075 182.857M161.287 182.857C154.973 182.857 149.859 177.743 149.859 171.429C149.859 165.114 154.973 160 161.287 160C167.602 160 172.716 165.114 172.716 171.429C172.716 177.743 167.602 182.857 161.287 182.857M200.922 182.857C194.608 182.857 189.494 177.743 189.494 171.429C189.494 165.114 194.608 160 200.922 160C207.237 160 212.351 165.114 212.351 171.429C212.351 177.743 207.237 182.857 200.922 182.857" />
    <glyph glyph-name="compass"
      unicode="&#xEA29;"
      horiz-adv-x="320" d=" M159.714 286C90.286 286 34 229.714 34 160.286C34 90.857 90.286 34.571 159.714 34.571C229.143 34.571 285.429 90.857 285.429 160.286C285.429 229.714 229.143 286 159.714 286M159.714 263.1430000000001C216.429 263.1430000000001 262.5710000000001 217 262.5710000000001 160.286C262.5710000000001 103.571 216.429 57.429 159.714 57.429C103 57.429 56.857 103.571 56.857 160.286C56.857 217 103 263.1430000000001 159.714 263.1430000000001M176.857 160.286C176.857 150.817 169.183 143.143 159.714 143.143C150.246 143.143 142.571 150.817 142.571 160.286C142.571 169.754 150.246 177.429 159.714 177.429C169.183 177.429 176.857 169.754 176.857 160.286M216.677 228.857C215.614 228.857 214.54 228.709 213.488 228.411L131.078 204.863A23.212 23.212 0 0 1 115.135 188.92L91.593 106.509A11.608 11.608 0 0 1 94.541 95.114A11.621 11.621 0 0 1 105.941 92.16L188.351 115.709A23.212 23.212 0 0 1 204.294 131.651L227.837 214.063A11.608 11.608 0 0 1 216.677 228.857M200.294 200.869L182.312 137.931A0.337 0.337 0 0 0 182.072 137.686L119.129 119.703L137.112 182.64A0.355 0.355 0 0 0 137.358 182.886L200.294 200.869" />
    <glyph glyph-name="computer"
      unicode="&#xEA2A;"
      horiz-adv-x="321" d=" M284.444 114.053V276.223C284.444 286.444 277.156 294 266.738 294H49.973C39.591 294 35.556 286.444 35.556 276.222V114.053L0 62.89V45.112C0 35.281 7.947 27.3339999999999 17.778 27.3339999999999H302.2220000000001C312.0530000000001 27.3339999999999 320.0000000000001 35.281 320.0000000000001 45.112V62.89L284.4440000000001 114.054zM248.889 116.223H71.11V258.443H248.89V116.221zM195.556 62.889H124.444V80.667H195.556V62.889zM97.778 151.778H222.222C227.129 151.778 231.112 155.76 231.112 160.667V178.444C231.112 183.351 227.129 187.334 222.222 187.334H97.778C92.871 187.334 88.888 183.351 88.888 178.444V160.667C88.888 155.76 92.871 151.7770000000001 97.778 151.7770000000001zM97.778 205.111H222.222C227.129 205.111 231.112 209.093 231.112 214V231.778C231.112 236.6840000000001 227.129 240.667 222.222 240.667H97.778C92.871 240.667 88.888 236.684 88.888 231.777V214C88.888 209.093 92.871 205.111 97.778 205.111z" />
    <glyph glyph-name="crown"
      unicode="&#xEA2B;"
      horiz-adv-x="320" d=" M159.998 280C155.775 280 151.873 277.583 149.735 273.646L110.484 201.246L66.593 256.017C64.278 258.909 60.97 260.457 57.598 260.457C55.89 260.457 54.164 260.063 52.547 259.24C47.724 256.794 44.998 251.189 45.873 245.514L67.615 104.091C70.261 86.891 84.038 74.286 100.187 74.286H219.81C235.958 74.286 249.735 86.897 252.375 104.091L274.118 245.6C274.993 251.28 272.261 256.886 267.438 259.331A11.151 11.151 0 0 1 262.393 260.543C259.021 260.543 255.707 258.989 253.393 256.097L209.513 201.234L170.261 273.646C168.124 277.5830000000001 164.221 280 159.998 280M159.998 244.617L205.844 160.046L245.461 209.583L229.787 107.566C228.873 101.623 224.587 97.143 219.81 97.143H100.187C95.41 97.143 91.124 101.623 90.21 107.566L74.524 209.566L114.17 160.091L159.998 244.617M239.998 40.0000000000001H79.998C73.69 40.0000000000001 68.57 45.1200000000001 68.57 51.429C68.57 57.737 73.69 62.857 79.998 62.857H239.998C246.307 62.857 251.427 57.737 251.427 51.429C251.427 45.12 246.307 40.0000000000001 239.998 40.0000000000001M159.998 199.9730000000001V159.9790000000001H137.147L137.141 159.9670000000001L159.998 119.9730000000001L182.855 159.9670000000001L159.998 199.9730000000001z" />
    <glyph glyph-name="diamond"
      unicode="&#xEA2C;"
      horiz-adv-x="320" d=" M92.513 251.385C92.593 251.407 92.707 251.43 92.856 251.43H136.399L111.77 205.716H65.925L92.513 251.385zM210.519 182.859H254.867L180.49 92.876L210.519 182.859zM109.479 182.859L139.485 92.939L65.13 182.859H109.479zM137.707 205.716L160 247.819L182.291 205.716H137.708zM133.57 182.859H186.422L159.999 103.67L133.57 182.859zM227.485 251.385L254.073 205.716H208.227L183.6 251.43H227.143C227.286 251.43 227.406 251.407 227.486 251.385zM282.9820000000001 201.482L247.016 263.27C243.062 270.0590000000001 235.433 274.2870000000001 227.142 274.2870000000001H92.856C84.565 274.2870000000001 76.936 270.0590000000001 72.982 263.27L37.016 201.482C32.759 194.173 33.525 185.207 38.976 178.619L142.085 53.922C146.365 48.745 152.982 45.716 159.999 45.716C167.016 45.716 173.633 48.745 177.913 53.922L281.022 178.619C286.467 185.207 287.2389999999999 194.173 282.9819999999999 201.482z" />
    <glyph glyph-name="edit"
      unicode="&#xEA2D;"
      horiz-adv-x="320" d=" M257.509 225.63L249.429 217.55L217.103 249.875L225.183 257.955C228.057 260.83 231.48 261.258 233.2630000000001 261.258C235.046 261.258 238.469 260.83 241.3490000000001 257.955L257.5090000000001 241.79C261.8910000000001 237.413 261.8910000000001 230.013 257.5090000000001 225.63zM106.81 74.915L74.485 107.241L200.949 233.704L233.274 201.378L106.811 74.915zM59.75 89.658L89.23 60.178L59.064 59.493L59.75 89.658zM273.67 257.955L257.51 274.115C250.8409999999999 280.784 242.052 284.115 233.2639999999999 284.115C224.4749999999999 284.115 215.6869999999999 280.784 209.0239999999999 274.115L40.274 105.355C38.28 103.361 37.394 100.407 37.331 97.555L36.326 47.807C36.257 44.681 37.554 41.561 39.794 39.321C42.04 37.081 45.12 35.813 48.251 35.8869999999999L97.629 37.2579999999999C100.48 37.3269999999999 102.931 38.7149999999999 104.926 40.7099999999999L273.669 209.4699999999999C287.006 222.8009999999999 287.006 244.6179999999999 273.669 257.955z" />
    <glyph glyph-name="ellipsis-vertical"
      unicode="&#xEA2E;"
      horiz-adv-x="320" d=" M159.998 274.49C144.221 274.49 131.427 261.695 131.427 245.918S144.221 217.346 159.998 217.346C175.775 217.346 188.57 230.141 188.57 245.918S175.775 274.4890000000001 159.998 274.4890000000001M159.998 251.632A5.724 5.724 0 0 0 165.713 245.918A5.724 5.724 0 0 0 159.998 240.203A5.724 5.724 0 0 0 154.284 245.918A5.724 5.724 0 0 0 159.998 251.632M159.998 188.572C144.221 188.572 131.427 175.777 131.427 160S144.221 131.429 159.998 131.429C175.775 131.429 188.57 144.223 188.57 160C188.57 175.777 175.775 188.571 159.998 188.571M159.998 165.714A5.724 5.724 0 0 0 165.713 160A5.724 5.724 0 0 0 159.998 154.286A5.724 5.724 0 0 0 154.284 160A5.724 5.724 0 0 0 159.998 165.714M159.998 102.856C144.221 102.856 131.427 90.062 131.427 74.285C131.427 58.507 144.221 45.713 159.998 45.713C175.775 45.713 188.57 58.507 188.57 74.285C188.57 90.062 175.775 102.856 159.998 102.856M159.998 79.999A5.724 5.724 0 0 0 165.713 74.285A5.724 5.724 0 0 0 159.998 68.57A5.724 5.724 0 0 0 154.284 74.285A5.724 5.724 0 0 0 159.998 79.999" />
    <glyph glyph-name="ellipsis"
      unicode="&#xEA2F;"
      horiz-adv-x="320" d=" M274.386 160.101C274.386 175.878 261.5920000000001 188.673 245.8150000000001 188.673C230.0380000000001 188.673 217.243 175.878 217.243 160.101S230.038 131.53 245.8150000000001 131.53S274.386 144.324 274.386 160.101M251.529 160.101A5.724 5.724 0 0 0 245.8150000000001 154.387A5.724 5.724 0 0 0 240.1010000000001 160.101A5.724 5.724 0 0 0 245.8150000000001 165.815A5.724 5.724 0 0 0 251.529 160.101M188.469 160.101C188.469 175.878 175.674 188.673 159.897 188.673S131.326 175.878 131.326 160.101S144.12 131.53 159.897 131.53C175.674 131.53 188.469 144.324 188.469 160.101M165.611 160.101A5.724 5.724 0 0 0 159.897 154.387A5.724 5.724 0 0 0 154.183 160.101A5.724 5.724 0 0 0 159.897 165.815A5.724 5.724 0 0 0 165.611 160.101M102.753 160.101C102.753 175.878 89.959 188.673 74.182 188.673C58.405 188.673 45.61 175.878 45.61 160.101S58.405 131.53 74.182 131.53S102.753 144.324 102.753 160.101M79.896 160.101A5.724 5.724 0 0 0 74.182 154.387A5.724 5.724 0 0 0 68.467 160.101A5.724 5.724 0 0 0 74.182 165.815A5.724 5.724 0 0 0 79.896 160.101" />
    <glyph glyph-name="emoji&face"
      unicode="&#xEA30;"
      horiz-adv-x="320" d=" M159.714 286C90.286 286 34 229.714 34 160.286C34 90.857 90.286 34.571 159.714 34.571C229.143 34.571 285.429 90.857 285.429 160.286C285.429 229.714 229.143 286 159.714 286M159.714 263.1430000000001C216.429 263.1430000000001 262.5710000000001 217 262.5710000000001 160.286C262.5710000000001 103.571 216.429 57.429 159.714 57.429C103 57.429 56.857 103.571 56.857 160.286C56.857 217 103 263.1430000000001 159.714 263.1430000000001M132.037 183.149C132.037 173.681 124.362 166.006 114.894 166.006C105.425 166.006 97.751 173.681 97.751 183.149C97.751 192.618 105.425 200.292 114.894 200.292C124.362 200.292 132.037 192.618 132.037 183.149M159.714 84.438C132.223 84.438 107.874 100.963 97.674 126.529C95.331 132.398 98.189 139.043 104.051 141.381C109.909 143.712 116.566 140.866 118.897 135.003C125.617 118.169 141.634 107.295 159.714 107.295C177.794 107.295 193.817 118.169 200.531 135.003C202.869 140.861 209.503 143.735 215.377 141.381C221.24 139.043 224.097 132.398 221.754 126.529C211.554 100.963 187.206 84.438 159.714 84.438M192.142 164.072C189.673 164.072 187.193 164.866 185.102 166.506C180.13 170.398 179.256 177.5809999999999 183.153 182.5459999999999C184.416 184.1689999999999 196.13 198.478 216.33 201.946A11.404 11.404 0 0 0 229.53 192.615C230.599 186.398 226.422 180.489 220.205 179.4209999999999C208.627 177.4259999999999 201.216 168.541 201.142 168.4549999999999A11.396 11.396 0 0 0 192.142 164.0719999999999" />
    <glyph glyph-name="export"
      unicode="&#xEA31;"
      horiz-adv-x="320" d=" M217.141 34.286H102.855C83.947 34.286 68.57 48.931 68.57 66.937V173.063C68.57 191.069 83.947 205.714 102.855 205.714H119.998C126.307 205.714 131.427 200.594 131.427 194.286C131.427 187.977 126.307 182.857 119.998 182.857H102.855C96.553 182.857 91.427 178.463 91.427 173.063V66.937C91.427 61.537 96.553 57.143 102.855 57.143H217.141C223.444 57.143 228.57 61.537 228.57 66.937V173.063C228.57 178.463 223.444 182.857 217.141 182.857H199.998C193.69 182.857 188.57 187.977 188.57 194.286C188.57 200.594 193.69 205.714 199.998 205.714H217.141C236.05 205.714 251.427 191.069 251.427 173.063V66.937C251.427 48.931 236.05 34.286 217.141 34.286 M208.079 242.366L168.079 282.366C163.616 286.829 156.376 286.829 151.919 282.366L111.919 242.366C107.456 237.903 107.456 230.669 111.919 226.206C116.376 221.743 123.622 221.743 128.079 226.206L148.57 246.698V145.995C148.57 139.686 153.685 134.566 159.999 134.566C166.307 134.566 171.427 139.686 171.427 145.995V246.698L191.919 226.206A11.373 11.373 0 0 1 199.999 222.858C202.925 222.858 205.845 223.972 208.079 226.206C212.542 230.669 212.542 237.903 208.079 242.366" />
    <glyph glyph-name="eye-slash"
      unicode="&#xEA32;"
      horiz-adv-x="320" d=" M154.342 149.494C152.474 149.002 150.548 148.654 148.519 148.654C145.177 148.654 142.028 149.408 139.165 150.699C142.737 142.728 150.714 137.139 159.999 137.139C162.028 137.139 163.965 137.494 165.845 137.991L183.188 120.648C176.382 116.631 168.474 114.282 159.999 114.282C134.754 114.282 114.285 134.751 114.285 159.997C114.285 168.471 116.634 176.379 120.651 183.185L154.3420000000001 149.494zM199.348 136.814V136.808L182.005 154.157L170.519 165.637L136.811 199.345L102.674 233.488L87.268 248.888C82.811 253.357 75.565 253.357 71.108 248.894C66.639 244.431 66.639 237.191 71.108 232.728L81.885 221.951C63.577 209.642 48.382 193.174 37.782 173.871C33.114 165.368 33.119 154.614 37.788 146.111C61.279 103.345 107.1820000000001 74.282 159.999 74.282C180.451 74.282 199.845 78.682 217.325 86.511L232.731 71.105A11.393 11.393 0 0 1 240.8110000000001 67.757C243.737 67.757 246.6620000000001 68.871 248.8910000000001 71.105C253.3590000000001 75.568 253.3590000000001 82.802 248.8910000000001 87.265L238.1140000000001 98.042L199.3480000000001 136.8139999999999zM159.999 245.713C148.542 245.713 137.434 244.284 126.788 241.695L162.919 205.564C185.828 204.113 204.114 185.827 205.565 162.918L256.057 112.427C266.439 122.221 275.308 133.553 282.211 146.113C286.874 154.61 286.879 165.375 282.217 173.873C258.725 216.65 212.817 245.713 159.999 245.713" />
    <glyph glyph-name="eye-solid"
      unicode="&#xEA33;"
      horiz-adv-x="320" d=" M169.373 180.794C170.641 177.954 171.378 174.823 171.378 171.509C171.378 158.886 161.144 148.651 148.521 148.651C145.178 148.651 142.024 149.411 139.167 150.703C142.738 142.731 150.715 137.143 160.001 137.143C172.601 137.143 182.858 147.394 182.858 160C182.858 169.257 177.304 177.206 169.373 180.794M159.998 114.286C134.753 114.286 114.284 134.754 114.284 160S134.753 205.714 159.998 205.714C185.244 205.714 205.713 185.246 205.713 160S185.244 114.286 159.998 114.286M282.215 173.874C258.724 216.651 212.821 245.714 159.998 245.714C107.181 245.714 61.273 216.651 37.781 173.874C33.113 165.371 33.118 154.617 37.793 146.114C61.278 103.343 107.187 74.286 159.998 74.286C212.815 74.286 258.718 103.343 282.21 146.114C286.878 154.611 286.884 165.377 282.215 173.874" />
    <glyph glyph-name="eye"
      unicode="&#xEA34;"
      horiz-adv-x="320" d=" M262.176 157.118C241.856 120.124 202.707 97.141 159.999 97.141C117.296 97.141 78.142 120.124 57.822 157.118C56.925 158.764 56.919 161.233 57.816 162.873C78.136 199.873 117.29 222.855 159.999 222.855C202.707 222.855 241.862 199.873 262.182 162.873C263.079 161.233 263.079 158.764 262.176 157.118M282.216 173.873C258.725 216.65 212.822 245.713 159.999 245.713C107.182 245.713 61.273 216.65 37.782 173.873C33.113 165.37 33.119 154.615 37.787 146.113C61.279 103.347 107.187 74.284 159.999 74.284C212.816 74.284 258.7190000000001 103.347 282.2100000000001 146.113C286.879 154.61 286.8850000000001 165.375 282.216 173.873M159.998 137.143C150.713 137.143 142.735 142.731 139.164 150.697C142.027 149.411 145.175 148.651 148.518 148.651C161.147 148.651 171.375 158.886 171.375 171.509C171.375 174.823 170.638 177.954 169.37 180.794C177.301 177.206 182.855 169.257 182.855 160C182.855 147.394 172.604 137.143 159.998 137.143M159.998 205.714C134.753 205.714 114.284 185.246 114.284 160S134.753 114.286 159.998 114.286C185.244 114.286 205.713 134.754 205.713 160S185.244 205.714 159.998 205.714" />
    <glyph glyph-name="feedback"
      unicode="&#xEA35;"
      horiz-adv-x="319" d=" M238.998 179.6L158.998 133.314L78.998 179.6V251.429C78.998 257.714 84.141 262.857 90.427 262.857H227.57C233.855 262.857 238.998 257.714 238.998 251.429V179.6zM67.57 61.257C61.398 61.257 56.141 66.514 56.141 72.686V166.457L237.855 61.257H67.57zM270.713 207.771L261.855 214.286V251.429C261.855 270.286 246.427 285.714 227.57 285.714H90.427C71.57 285.714 56.141 270.286 56.141 251.429V214.286L47.284 207.771A34.32 34.32 0 0 1 33.284 180.114V72.686C33.284 53.829 48.713 38.4 67.57 38.4H250.427C269.284 38.4 284.713 53.829 284.713 72.686V180.114C284.713 191.029 279.5130000000001 201.314 270.713 207.771z M204.713 240H113.284C106.975 240 101.855 234.88 101.855 228.571C101.855 222.263 106.975 217.143 113.284 217.143H204.713C211.021 217.143 216.141 222.263 216.141 228.571C216.141 234.88 211.021 240 204.713 240M158.998 194.286H113.284C106.975 194.286 101.855 189.166 101.855 182.857C101.855 176.549 106.975 171.429 113.284 171.429H158.998C165.307 171.429 170.427 176.549 170.427 182.857C170.427 189.166 165.307 194.286 158.998 194.286" />
    <glyph glyph-name="file-fail"
      unicode="&#xEA36;"
      horiz-adv-x="320" d=" M239.998 137.143H222.57C204.101 152.783 182.553 161.114 159.998 161.114C136.575 161.114 114.193 152.217 95.255 135.366C90.541 131.171 90.118 123.949 94.318 119.234A11.403 11.403 0 0 1 102.855 115.4C105.564 115.4 108.273 116.354 110.455 118.291C125.135 131.354 142.267 138.257 159.998 138.257C167.353 138.257 174.593 137.006 181.61 134.68C168.987 129.629 159.998 117.297 159.998 102.914V57.143H91.427C85.255 57.143 79.998 62.4 79.998 68.571V251.43C79.998 257.601 85.255 262.858 91.427 262.858H228.57C234.741 262.858 239.998 257.601 239.998 251.43V137.144zM182.855 57.143V102.9140000000001C182.855 109.086 188.113 114.2860000000001 194.284 114.2860000000001H239.998L182.855 57.143zM228.57 285.714H91.427C72.57 285.714 57.141 270.286 57.141 251.429V68.57C57.141 49.713 72.57 34.285 91.427 34.285H182.873A22.854 22.854 0 0 1 199.038 40.982L256.158 98.102A22.854 22.854 0 0 1 262.855 114.268V251.429C262.855 270.286 247.427 285.714 228.57 285.714z M125.713 217.143C119.404 217.143 114.284 212.023 114.284 205.714V182.857C114.284 176.549 119.404 171.429 125.713 171.429C132.021 171.429 137.141 176.549 137.141 182.857V205.714C137.141 212.023 132.021 217.143 125.713 217.143M194.284 217.143C187.975 217.143 182.855 212.023 182.855 205.714V182.857C182.855 176.549 187.975 171.429 194.284 171.429S205.713 176.549 205.713 182.857V205.714C205.713 212.023 200.593 217.143 194.284 217.143" />
    <glyph glyph-name="file-holder"
      unicode="&#xEA37;"
      horiz-adv-x="320" d=" M239.998 182.857V68.571C239.998 62.4 234.741 57.143 228.57 57.143H91.427C85.255 57.143 79.998 62.4 79.998 68.571V251.43C79.998 257.601 85.255 262.858 91.427 262.858H159.998V217.087C159.998 198.23 175.427 182.858 194.284 182.858H239.998zM239.998 205.714H194.284C188.113 205.714 182.855 210.914 182.855 217.086V262.857L239.998 205.714zM262.855 205.731A22.854 22.854 0 0 1 256.158 221.897L199.038 279.017A22.854 22.854 0 0 1 182.873 285.714H91.427C72.57 285.714 57.141 270.286 57.141 251.429V68.57C57.141 49.713 72.57 34.285 91.427 34.285H228.57C247.427 34.285 262.855 49.713 262.855 68.57V205.73z" />
    <glyph glyph-name="file"
      unicode="&#xEA38;"
      horiz-adv-x="320" d=" M239.998 182.857V68.571C239.998 62.4 234.741 57.143 228.57 57.143H91.427C85.255 57.143 79.998 62.4 79.998 68.571V251.43C79.998 257.601 85.255 262.858 91.427 262.858H159.998V217.087C159.998 198.23 175.427 182.858 194.284 182.858H239.998zM239.998 205.714H194.284C188.113 205.714 182.855 210.914 182.855 217.086V262.857L239.998 205.714zM262.855 205.731A22.854 22.854 0 0 1 256.158 221.897L199.038 279.017A22.854 22.854 0 0 1 182.873 285.714H91.427C72.57 285.714 57.141 270.286 57.141 251.429V68.57C57.141 49.713 72.57 34.285 91.427 34.285H228.57C247.427 34.285 262.855 49.713 262.855 68.57V205.73z M205.713 137.143H114.284C107.975 137.143 102.855 142.263 102.855 148.571C102.855 154.88 107.975 160 114.284 160H205.713C212.021 160 217.141 154.88 217.141 148.571C217.141 142.263 212.021 137.143 205.713 137.143M159.998 91.429H114.284C107.975 91.429 102.855 96.549 102.855 102.857C102.855 109.166 107.975 114.286 114.284 114.286H159.998C166.307 114.286 171.427 109.166 171.427 102.857C171.427 96.549 166.307 91.429 159.998 91.429" />
    <glyph glyph-name="files"
      unicode="&#xEA39;"
      horiz-adv-x="320" d=" M239.998 102.857C239.998 96.663 235.941 91.429 229.747 91.429H228.57V165.68A22.846 22.846 0 0 1 221.878 181.834L159.038 244.726A22.863 22.863 0 0 1 142.867 251.429H114.284C114.284 257.623 120.695 262.857 126.89 262.857H228.57C234.764 262.857 239.998 257.623 239.998 251.429V102.857zM165.713 200V205.714L182.798 188.571H177.141C170.97 188.571 165.713 193.829 165.713 200zM205.713 165.657V68.571C205.713 62.4 200.455 57.143 194.284 57.143H91.427C85.255 57.143 79.998 62.4 79.998 68.571V217.143C79.998 223.314 85.255 228.571 91.427 228.571H142.855V200C142.855 181.143 158.284 165.714 177.141 165.714H205.713V165.657zM229.158 285.714H126.89C108.033 285.714 91.427 270.286 91.427 251.429C72.57 251.429 57.14 236 57.14 217.143V68.57C57.14 49.713 72.569 34.285 91.426 34.285H194.283C213.14 34.285 228.569 49.713 228.569 68.57H229.746C248.603 68.57 262.854 83.999 262.854 102.856V251.43C262.854 270.2870000000001 248.014 285.7150000000001 229.157 285.7150000000001z M182.855 142.857H102.855C96.547 142.857 91.427 137.737 91.427 131.429C91.427 125.12 96.547 120 102.855 120H182.855C189.164 120 194.284 125.12 194.284 131.429C194.284 137.737 189.164 142.857 182.855 142.857M148.57 102.857H102.855C96.547 102.857 91.427 97.737 91.427 91.429C91.427 85.12 96.547 80 102.855 80H148.57C154.878 80 159.998 85.12 159.998 91.429C159.998 97.737 154.878 102.857 148.57 102.857" />
    <glyph glyph-name="forward&share"
      unicode="&#xEA3A;"
      horiz-adv-x="320" d=" M205.713 239.06V210.728C205.713 204.665 200.975 199.654 194.924 199.317C141.307 196.317 96.93 166.025 73.404 119.654C103.57 145.888 142.015 160.974 182.147 160.974C185.467 160.974 187.844 160.848 191.741 160.637L194.884 160.465A11.428 11.428 0 0 0 205.713 149.054V120.597L259.301 171.557H259.307A11.675 11.675 0 0 1 262.924 180.008A11.698 11.698 0 0 1 259.273 188.471L205.713 239.059zM45.615 56.241A11.38 11.38 0 0 0 41.975 56.841A11.427 11.427 0 0 0 34.295 69.218C45.644 152.23 104.724 212.058 182.855 221.207V240.785C182.855 250.539 187.655 258.425 195.69 261.882C204.027 265.477 212.718 263.877 219.484 257.488L274.9640000000001 205.094C281.8210000000001 198.619 285.7640000000001 189.494 285.7810000000001 180.059C285.8040000000001 170.637 281.8950000000001 161.494 275.0610000000001 154.991L220.0500000000001 102.659C213.347 96.334 204.0150000000001 94.631 195.6780000000001 98.242C187.6500000000001 101.694 182.8550000000001 109.585 182.8550000000001 119.334V137.145H182.1470000000001C130.4950000000001 137.145 82.0040000000001 108.488 55.581 61.574C53.5070000000001 57.899 49.655 56.242 45.615 56.242z" />
    <glyph glyph-name="github"
      unicode="&#xEA3B;"
      horiz-adv-x="320" d=" M320 160C320 87.289 271.467 25.867 205.022 6.444C203.778 6.0889999999999 202.533 5.734 201.244 5.378C200.934 6.267 200.8 7.2 200.8 8.222V53.29C200.8 67.068 197.067 77.201 189.689 83.601C197.822 84.445 205.111 85.734 211.556 87.468C218.044 89.157 224.756 91.912 231.644 95.778C238.534 99.601 244.311 104.357 248.934 109.957C253.6 115.601 257.334 123.067 260.267 132.401C263.2 141.734 264.622 152.445 264.622 164.534C264.622 181.779 259.022 196.445 247.778 208.534C253.022 221.468 252.4880000000001 236.0010000000001 246.044 252.0900000000001C242.089 253.379 236.311 252.579 228.756 249.7340000000001C221.2 246.8900000000001 214.666 243.779 209.111 240.3570000000001L201.022 235.2450000000001C187.778 238.9350000000001 174.089 240.7570000000001 160 240.7570000000001C145.911 240.7570000000001 132.222 238.9340000000001 118.978 235.2450000000001C116.711 236.8010000000001 113.688 238.7120000000001 109.911 240.9790000000001C106.133 243.2450000000001 100.222 246.0010000000001 92.089 249.201C83.956 252.401 77.867 253.379 73.733 252.0900000000001C67.467 236.0010000000001 66.978 221.468 72.223 208.534C60.978 196.445 55.333 181.779 55.333 164.534C55.333 152.445 56.8 141.779 59.733 132.49C62.667 123.245 66.4 115.779 70.933 110.09C75.511 104.401 81.244 99.601 88.133 95.779C95.023 91.912 101.733 89.157 108.223 87.468C114.667 85.734 122 84.445 130.089 83.601C124.4 78.49 120.933 71.157 119.644 61.601A43.12 43.12 0 0 0 110 58.401C106.622 57.69 102.533 57.334 97.867 57.334C93.156 57.334 88.489 58.845 83.867 61.912C79.244 64.979 75.289 69.423 72 75.29C69.289 79.823 65.867 83.512 61.644 86.357C57.467 89.201 53.911 90.934 51.067 91.512L46.8 92.134C43.822 92.134 41.778 91.824 40.622 91.201C39.467 90.534 39.112 89.734 39.556 88.712C40 87.734 40.622 86.712 41.466 85.734C42.311 84.757 43.244 83.868 44.266 83.157L45.733 82.09C48.889 80.668 51.956 77.957 55.023 74.001C58.089 70.001 60.356 66.357 61.778 63.112L63.911 58.179C65.733 52.757 68.889 48.401 73.289 45.068C77.689 41.69 82.489 39.557 87.6 38.623C92.711 37.734 97.689 37.201 102.444 37.157C107.2 37.067 111.156 37.334 114.311 37.912L119.2 38.757C119.2 33.334 119.244 27.023 119.333 19.734C119.378 12.49 119.423 8.624 119.423 8.224C119.423 7.201 119.289 6.224 118.933 5.334C118.4 5.468 117.867 5.601 117.378 5.779C49.733 24.4 0 86.4 0 160C0 244.178 65.022 313.156 147.556 319.556C151.644 319.866 155.822 320 160 320C164.178 320 168.356 319.867 172.444 319.556C173.734 319.466 175.022 319.378 176.311 319.2C256.978 310.978 320 242.844 320 160" />
    <glyph glyph-name="heart&like"
      unicode="&#xEA3C;"
      horiz-adv-x="320" d=" M100.038 264.642C83.072 264.642 66.066 258.19 53.283 245.407L52.809 244.933C27.483 219.607 28.438 179.122 53.758 153.802L145.032 62.533A22.78 22.78 0 0 1 161.192 55.836A22.78 22.78 0 0 1 177.352 62.533L266.718 151.899C292.043 177.219 292.043 218.659 266.718 243.985C254.061 256.642 237.369 262.973 220.678 262.973C203.986 262.973 187.301 256.647 174.638 243.985L161.192 230.539L145.843 245.887C133.301 258.43 116.689 264.642 100.038 264.642M100.038 241.785C111.375 241.785 121.906 237.499 129.683 229.722L145.032 214.373A22.849 22.849 0 0 1 161.192 207.682A22.849 22.849 0 0 1 177.352 214.373L190.798 227.819C198.729 235.75 209.341 240.116 220.678 240.116S242.626 235.75 250.558 227.819C267.032 211.345 267.032 184.533 250.558 168.059L161.192 78.693L69.923 169.962C53.1689999999999 186.716 52.7459999999999 212.55 68.969 228.767L69.443 229.247C77.529 237.333 88.398 241.785 100.038 241.785" />
    <glyph glyph-name="heart-solid&like-solid"
      unicode="&#xEA3D;"
      horiz-adv-x="320" d=" M266.7200000000001 243.982C241.3950000000001 269.307 199.96 269.307 174.6350000000001 243.982L161.1890000000001 230.536L145.8460000000001 245.885C120.5210000000001 271.2100000000001 78.6060000000001 270.73 53.2860000000001 245.4100000000001L52.8060000000001 244.936C27.4860000000001 219.61 28.4350000000001 179.125 53.7610000000001 153.799L145.0290000000001 62.53C153.9550000000001 53.605 168.4290000000001 53.605 177.3550000000001 62.53L266.7210000000001 151.896C292.0460000000001 177.222 292.0460000000001 218.656 266.7210000000001 243.982" />
    <glyph glyph-name="help-solid"
      unicode="&#xEA3E;"
      horiz-adv-x="320" d=" M160.001 285.714C90.567 285.714 34.287 229.43 34.287 160S90.567 34.286 160 34.286C229.429 34.286 285.714 90.571 285.714 160S229.43 285.714 160.001 285.714M157.173 86.303C150.864 86.303 145.744 91.417 145.744 97.731C145.744 104.046 150.864 109.16 157.173 109.16C163.487 109.16 168.601 104.046 168.601 97.731C168.601 91.417 163.487 86.303 157.173 86.303M168.618 143.697V130.84C168.618 124.526 163.498 119.411 157.19 119.411C150.881 119.411 145.761 124.526 145.761 130.84V153.697C145.761 160.006 150.881 165.126 157.19 165.126C157.241 165.126 157.287 165.109 157.338 165.109C157.39 165.109 157.435 165.126 157.487 165.126C170.087 165.126 180.338 175.377 180.338 187.983S170.087 210.84 157.487 210.84C149.464 210.84 142.173 206.749 137.973 199.897C134.675 194.514 127.647 192.823 122.258 196.126C116.875 199.423 115.19 206.457 118.487 211.84C126.87 225.526 141.447 233.697 157.487 233.697C182.687 233.697 203.195 213.189 203.195 187.983C203.195 166.623 188.447 148.691 168.618 143.697" />
    <glyph glyph-name="help"
      unicode="&#xEA3F;"
      horiz-adv-x="320" d=" M159.998 285.714C90.57 285.714 34.284 229.43 34.284 160S90.57 34.286 159.998 34.286C229.427 34.286 285.713 90.571 285.713 160S229.427 285.714 159.998 285.714M159.998 262.857C216.713 262.857 262.855 216.714 262.855 160S216.713 57.143 159.998 57.143C103.284 57.143 57.141 103.286 57.141 160S103.284 262.857 159.998 262.857 M168.602 97.732C168.602 91.418 163.488 86.303 157.174 86.303C150.859 86.303 145.745 91.418 145.745 97.732S150.859 109.161 157.174 109.161C163.488 109.161 168.602 104.046 168.602 97.732M203.197 187.983C203.197 213.189 182.688 233.697 157.482 233.697C141.448 233.697 126.871 225.526 118.488 211.84C115.191 206.457 116.877 199.423 122.259 196.126C127.648 192.823 134.677 194.52 137.974 199.897C142.174 206.749 149.465 210.84 157.482 210.84C170.088 210.84 180.339 200.589 180.339 187.983S170.088 165.126 157.482 165.126C157.437 165.126 157.385 165.109 157.339 165.109C157.288 165.109 157.242 165.126 157.191 165.126C150.877 165.126 145.762 160.006 145.762 153.697V130.84C145.762 124.531 150.877 119.411 157.191 119.411C163.499 119.411 168.619 124.531 168.619 130.84V143.697C188.448 148.691 203.197 166.623 203.197 187.983" />
    <glyph glyph-name="home"
      unicode="&#xEA40;"
      horiz-adv-x="320" d=" M228.57 86.166C228.57 79.863 223.444 74.738 217.141 74.738H199.998V121.195C199.998 143.195 181.998 161.195 159.998 161.195S119.998 143.195 119.998 121.195V74.738H102.855C96.553 74.738 91.427 79.863 91.427 86.166V196.372L159.998 253.269L228.57 196.372V86.166zM177.141 74.738H142.855V121.195C142.855 130.652 150.547 138.338 159.998 138.338C169.45 138.338 177.141 130.652 177.141 121.195V74.738zM281.581 182.081L167.295 276.915A11.433 11.433 0 0 1 152.701 276.915L38.415 182.08C33.558 178.051 32.884 170.845 36.918 165.988C40.953 161.131 48.158 160.457 53.01 164.491L68.57 177.4V86.165C68.57 67.228 83.918 51.88 102.855 51.88H217.141C236.078 51.88 251.427 67.228 251.427 86.165V177.4L266.987 164.491A11.383 11.383 0 0 1 274.278 161.857C277.558 161.857 280.821 163.262 283.078 165.988C287.107 170.845 286.438 178.051 281.581 182.08z" />
    <glyph glyph-name="horn"
      unicode="&#xEA41;"
      horiz-adv-x="320" d=" M251.408 143.58V176.42C258.077 173.917 262.854 167.529 262.854 159.997C262.854 152.471 258.077 146.083 251.408 143.58zM228.551 239.923V80.077L102.854 132.751V187.25L228.557 239.924H228.551zM57.139 123.163V196.837L79.997 188.169V131.831L57.139 123.163zM285.711 159.997C285.711 180.243 270.825 196.963 251.408 199.929V239.923A22.864 22.864 0 0 1 241.2080000000001 258.957A22.843 22.843 0 0 1 228.551 262.78C225.557 262.78 222.557 262.197 219.717 261.003L92.722 207.786L65.242 218.209A22.832 22.832 0 0 1 44.157 215.643A22.845 22.845 0 0 1 34.282 196.837V123.163A22.845 22.845 0 0 1 44.157 104.357A22.842 22.842 0 0 1 65.242 101.791L92.722 112.209L219.717 58.997A22.757 22.757 0 0 1 228.551 57.22C232.991 57.22 237.402 58.511 241.208 61.043A22.864 22.864 0 0 1 251.408 80.077V120.071C270.825 123.037 285.711 139.757 285.711 159.997z" />
    <glyph glyph-name="idea&lamp-bulb-lean"
      unicode="&#xEA42;"
      horiz-adv-x="320" d=" M255.415 255.42C235.238 275.598 208.792 285.69 182.341 285.69C155.895 285.69 129.449 275.598 109.266 255.42C87.563 233.718 77.592 204.775 79.255 176.37A51.671 51.671 0 0 0 70.192 143.998C66.255 138.306 64.592 131.661 64.969 125.152L44.352 104.535C30.963 91.146 30.963 69.438 44.352 56.049L56.043 44.358C69.432 30.963 91.141 30.963 104.535 44.358L125.192 65.015C125.763 64.986 126.323 64.849 126.895 64.849C132.838 64.849 138.815 66.609 143.998 70.192A51.484 51.484 0 0 0 173.329 79.341C174.341 79.341 175.352 79.312 176.369 79.255C178.392 79.135 180.421 79.078 182.449 79.078C208.861 79.078 235.261 89.112 255.415 109.272C295.775 149.626 295.775 215.061 255.415 255.421M239.255 125.432C224.101 110.278 203.929 101.935 182.449 101.935A82.33 82.33 0 0 0 177.701 102.072A74.423 74.423 0 0 1 173.329 102.198C158.129 102.198 143.495 97.632 130.9979999999999 88.992A7.231 7.231 0 0 0 126.895 87.706C125.7689999999999 87.706 123.615 87.986 121.7689999999999 89.826L89.826 121.77A7.235 7.235 0 0 0 88.992 131.004C98.392 144.593 103.032 161.182 102.072 177.702C100.729 200.639 109.243 223.073 125.432 239.2560000000001C140.632 254.4620000000001 160.843 262.8330000000001 182.341 262.8330000000001C203.843 262.8330000000001 224.055 254.4620000000001 239.255 239.2560000000001C254.455 224.0560000000001 262.826 203.844 262.826 182.347C262.826 160.8440000000001 254.455 140.6330000000001 239.255 125.4330000000001 M179.39 243.128C164.11 242.625 149.733 236.385 138.916 225.568C127.573 214.219 121.322 199.139 121.322 183.099C121.322 176.785 126.442 171.671 132.75 171.671C139.065 171.671 144.179 176.785 144.179 183.099C144.179 193.031 148.053 202.379 155.076 209.408A37.11 37.11 0 0 0 180.15 220.282C186.453 220.494 191.402 225.774 191.19 232.082C190.979 238.391 185.642 243.208 179.39 243.128" />
    <glyph glyph-name="image"
      unicode="&#xEA43;"
      horiz-adv-x="320" d=" M251.427 74.286H68.57C62.375 74.286 57.141 79.52 57.141 85.714V112.446L114.233 156.857A11.41 11.41 0 0 0 128.267 156.857L202.255 99.314A11.378 11.378 0 0 1 209.261 96.909A11.42 11.42 0 0 1 218.29 101.32C222.164 106.303 221.267 113.48 216.284 117.36L199.158 130.68L217.09 144.634A11.435 11.435 0 0 0 231.13 144.634L262.855 119.96V85.714C262.855 79.52 257.621 74.286 251.427 74.286M68.57 245.714H251.427C257.621 245.714 262.855 240.48 262.855 234.286V148.914L245.158 162.68A34.279 34.279 0 0 1 203.055 162.674L180.541 145.16L142.301 174.897A34.238 34.238 0 0 1 100.204 174.897L57.141 141.406V234.286C57.141 240.48 62.375 245.714 68.57 245.714M251.427 268.5709999999999H68.57C49.713 268.5709999999999 34.284 253.143 34.284 234.286V85.7139999999999C34.284 66.8569999999999 49.713 51.429 68.57 51.429H251.427C270.284 51.429 285.713 66.857 285.713 85.714V234.286C285.713 253.143 270.284 268.5710000000001 251.427 268.5710000000001 M182 175.691C191.469 175.691 199.143 183.366 199.143 192.834C199.143 202.303 191.469 209.977 182 209.977C172.531 209.977 164.857 202.303 164.857 192.834C164.857 183.366 172.531 175.691 182 175.691" />
    <glyph glyph-name="info-solid"
      unicode="&#xEA44;"
      horiz-adv-x="320" d=" M160.999 284.7150000000001C91.57 284.7150000000001 35.285 228.429 35.285 159C35.285 89.571 91.57 33.285 160.999 33.285C230.427 33.285 286.713 89.571 286.713 159C286.713 228.428 230.427 284.714 160.999 284.714M177.141 205.824C177.141 196.356 169.467 188.682 159.998 188.682C150.53 188.682 142.855 196.356 142.855 205.825C142.855 215.293 150.53 222.968 159.998 222.968C169.467 222.968 177.141 215.293 177.141 205.825M159.997 97.03C153.689 97.03 148.569 102.15 148.569 108.459V165.602C148.569 171.916 153.689 177.03 159.997 177.03C166.306 177.03 171.426 171.916 171.426 165.602V108.459C171.426 102.15 166.306 97.03 159.997 97.03" />
    <glyph glyph-name="info"
      unicode="&#xEA45;"
      horiz-adv-x="320" d=" M159.998 57.143C103.284 57.143 57.141 103.286 57.141 160S103.284 262.857 159.998 262.857C216.713 262.857 262.855 216.714 262.855 160S216.713 57.143 159.998 57.143M159.998 285.7140000000001C90.57 285.714 34.284 229.43 34.284 160S90.57 34.286 159.998 34.286C229.427 34.286 285.713 90.571 285.713 160S229.427 285.714 159.998 285.714 M159.997 97.031C153.689 97.031 148.569 102.151 148.569 108.46V165.603C148.569 171.917 153.689 177.031 159.997 177.031C166.306 177.031 171.426 171.917 171.426 165.603V108.46C171.426 102.151 166.306 97.031 159.997 97.031M177.141 205.826C177.141 196.357 169.467 188.683 159.998 188.683C150.53 188.683 142.855 196.357 142.855 205.826C142.855 215.294 150.53 222.969 159.998 222.969C169.467 222.969 177.141 215.294 177.141 205.826" />
    <glyph glyph-name="jianliao"
      unicode="&#xEA46;"
      horiz-adv-x="321" d=" M163.137 319.893C162.497 320 161.857 320 161.11 320H107.671C95.938 320 86.338 310.4 86.338 298.6670000000001V234.667H22.34C10.606 234.667 1.007 225.067 1.007 213.333V160C1.007 159.253 1.007 158.507 1.113 157.867C1.327 132.693 7.513 109.013 18.18 88L1.753 26.88A21.036 21.036 0 0 1 7.3 6.293C11.353 2.24 16.793 0 22.34 0C24.153 0 26.073 0.213 27.886 0.747L89.005 17.173C110.658 6.187 135.084 0 161.003 0C216.896 0 266.174 28.8 294.761 72.32C311.4 97.493 321 127.573 321 160V160.107C320.893 247.573 250.388 318.827 163.137 319.8930000000001zM52.526 51.52L63.939 94.08C51.139 112.853 43.672 135.573 43.672 160V192H86.34V160C86.34 159.253 86.34 158.507 86.446 157.76C86.446 157.547 86.446 157.227 86.553 157.013C86.446 156.8 86.553 156.693 86.553 156.48C86.553 154.773 86.659 153.173 86.873 151.573C86.979 150.187 87.193 148.8 87.513 147.52C87.619 146.24 87.833 145.067 88.153 143.787C88.366 143.04 88.473 142.293 88.686 141.44C88.793 141.12 88.793 140.907 88.899 140.587C89.006 140.373 89.006 140.053 89.112 139.84C89.432 138.56 89.859 137.387 90.286 136.107C90.926 134.293 91.566 132.4799999999999 92.312 130.773A36.154 36.154 0 0 1 94.232 126.613C94.659 125.6529999999999 95.192 124.8 95.619 123.947C96.152 122.88 96.792 121.92 97.539 120.853C98.072 119.68 98.819 118.613 99.672 117.44C100.846 115.733 102.126 114.0269999999999 103.512 112.4269999999999C103.619 112.3199999999999 103.619 112.3199999999999 103.619 112.2129999999999C104.472 111.2529999999999 105.325 110.293 106.285 109.3329999999999C106.499 109.013 106.819 108.8 107.139 108.4799999999999C107.885 107.6269999999999 108.525 106.8799999999999 109.379 106.1329999999999L109.485 106.0269999999999C110.765 104.7469999999999 112.152 103.5729999999999 113.539 102.3999999999999C114.605 101.4399999999999 115.779 100.5869999999999 116.952 99.8399999999999C117.485 99.4129999999999 118.019 98.9869999999999 118.552 98.6669999999999C118.979 98.3469999999999 119.405 98.0269999999999 119.939 97.7069999999999C121.859 96.3199999999999 123.885 95.1469999999999 126.019 94.0799999999999C126.339 93.8669999999999 126.765 93.6529999999999 127.085 93.5469999999999C128.578 92.6929999999999 130.072 91.9469999999999 131.672 91.3069999999999C133.805 90.3469999999999 136.045 89.5999999999999 138.392 88.8529999999999C138.818 88.7469999999999 139.138 88.6399999999999 139.458 88.5329999999999C139.885 88.3199999999999 140.311 88.3199999999999 140.631 88.2129999999999C142.018 87.7869999999999 143.511 87.3599999999999 145.005 87.0399999999999C145.751 86.9329999999999 146.498 86.7199999999999 147.138 86.6129999999999C149.165 86.1869999999999 151.298 85.9729999999999 153.431 85.7599999999999C155.884 85.4399999999999 158.444 85.3329999999999 161.004 85.3329999999999C202.177 85.3329999999999 235.669 118.8269999999999 235.669 159.9999999999999C235.669 162.5599999999999 235.563 165.1199999999999 235.243 167.5729999999999C235.243 167.8929999999999 235.243 168.3199999999999 235.136 168.6399999999999A59.973 59.973 0 0 1 234.176 174.72C234.069 175.573 233.856 176.3199999999999 233.643 177.067C233.429 178.24 233.109 179.413 232.79 180.587C232.576 181.44 232.256 182.293 232.043 183.147C231.936 183.253 231.936 183.253 231.936 183.36A29.224 29.224 0 0 1 230.336 187.627C230.336 187.733 230.23 187.733 230.23 187.84A48.915 48.915 0 0 1 228.416 192L228.096 192.6399999999999C228.096 192.7469999999999 227.99 192.8529999999999 227.99 192.9599999999999C227.776 193.2799999999999 227.67 193.5999999999999 227.456 193.9199999999999A50.701 50.701 0 0 1 225.6430000000001 197.2269999999999A3.194 3.194 0 0 1 225.2160000000001 198.0799999999999C225.1100000000001 198.1869999999999 225.1100000000001 198.2929999999999 225.0030000000001 198.3999999999999C224.8960000000001 198.6129999999999 224.6830000000001 198.8269999999999 224.5760000000001 199.0399999999999C223.8300000000001 200.4269999999999 222.9760000000001 201.5999999999999 222.1230000000001 202.8799999999999C222.0160000000001 202.8799999999999 222.0160000000001 202.9869999999999 222.0160000000001 202.9869999999999A72.372 72.372 0 0 1 203.9900000000001 221.0129999999999S203.8830000000001 221.0129999999999 203.8830000000001 221.1199999999999C202.603 221.9729999999999 201.43 222.8269999999999 200.043 223.5729999999999C199.8300000000001 223.6799999999999 199.6170000000001 223.8929999999999 199.4030000000001 223.9999999999999C199.2970000000001 224.1069999999999 199.1900000000001 224.1069999999999 199.0830000000001 224.2129999999999A3.194 3.194 0 0 1 198.2300000000001 224.6399999999999A50.7 50.7 0 0 1 194.924 226.4529999999999C194.6040000000001 226.6669999999999 194.2840000000001 226.7729999999999 193.964 226.9869999999999C193.857 226.9869999999999 193.75 227.0929999999999 193.644 227.0929999999999H193.537C193.43 227.2 193.43 227.2 193.3240000000001 227.2C191.2970000000001 228.2669999999999 189.1640000000001 229.2269999999999 186.924 229.9729999999999C186.6040000000001 230.08 186.2840000000001 230.2929999999999 185.964 230.2929999999999C183.831 231.1469999999999 181.697 231.7869999999999 179.457 232.3199999999999C179.244 232.4269999999999 178.924 232.4269999999999 178.711 232.5329999999999C178.391 232.6399999999999 178.177 232.6399999999999 177.857 232.7469999999999C177.644 232.7469999999999 177.431 232.8529999999999 177.217 232.8529999999999C176.577 233.0669999999999 175.831 233.0669999999999 175.191 233.2799999999999C174.977 233.3869999999999 174.657 233.3869999999999 174.444 233.3869999999999C174.231 233.3869999999999 174.124 233.4929999999999 173.911 233.4929999999999A28.783 28.783 0 0 1 169.537 234.1329999999999C169.217 234.1329999999999 168.791 234.2399999999999 168.471 234.2399999999999C166.871 234.4529999999999 165.164 234.5599999999999 163.351 234.5599999999999H163.244C162.498 234.6669999999999 161.751 234.6669999999999 161.004 234.6669999999999H129.005V277.333H161.005C182.337 277.333 202.177 271.68 219.35 261.76A117.72 117.72 0 0 0 262.762 218.347C272.682 201.173 278.335 181.333 278.335 160C278.335 154.453 277.909 149.013 277.162 143.573C275.455 131.307 271.829 119.573 266.709 108.8C247.616 69.653 207.403 42.667 161.004 42.667C136.578 42.667 113.859 50.133 95.086 62.9330000000001L52.526 51.52zM161.003 192C178.603 192 193.003 177.6 193.003 160S178.603 128 161.003 128S129.004 142.4 129.004 160V192H161.004z" />
    <glyph glyph-name="ladder"
      unicode="&#xEA47;"
      horiz-adv-x="320" d=" M148.011 261H266.081C279.081 261 289.67 250.43 289.67 237.393V83.955C289.67 70.923 279.11 60.347 266.082 60.347H124.423V83.954H266.062V237.394H124.423C124.423 250.424 134.984 261 148.011 261z M30 142.97H136.228V60.347H53.575C40.555 60.347 30 70.895 30 83.913M53.606 119.363V83.953H112.622V119.363H53.606z M183.438 201.985V143.547C183.438 130.505 174.232 119.363 161.196 119.363H77.21V201.985M100.816 142.969H159.831V178.379H100.816 M230.65 261V202.81C230.65 189.774 220.14 178.378 207.104 178.378H124.423V261M207.045 201.985V237.394H148.029V201.984H207.045z" />
    <glyph glyph-name="lamp-bulb"
      unicode="&#xEA48;"
      horiz-adv-x="320" d=" M48 207.059C48 178.089 58.95 151.755 76.819 131.765C92.325 116.198 99.375 96.056 102.338 84.518C103.631 79.492 108.431 75.294 113.625 75.294H207.375C212.55 75.294 217.369 79.492 218.662 84.518C221.625 96.056 228.675 116.198 244.182 131.765C262.05 151.755 273 178.089 273 207.059C273 269.42 222.619 320 160.5 320C98.362 320 48 269.421 48 207.059zM216.806 157.515C202.95 143.304 194.1 126.945 188.531 112.941H132.47C126.901 126.946 118.051 143.304 104.195 157.515C92.119 171.332 85.5 188.875 85.5 207.06C85.5 248.566 119.156 282.354 160.5 282.354S235.5 248.566 235.5 207.06C235.5 188.876 228.863 171.333 216.806 157.516zM123 18.824C123 8.414 131.381 0 141.75 0H179.25C189.619 0 198 8.414 198 18.824H207.375C212.55 18.824 216.75 23.04 216.75 28.235V47.06C216.75 52.255 212.55 56.472 207.375 56.472H113.625C108.431 56.472 104.25 52.255 104.25 47.06V28.236C104.25 23.041 108.431 18.825 113.625 18.825H123z" />
    <glyph glyph-name="language"
      unicode="&#xEA49;"
      horiz-adv-x="320" d=" M196.936 64.116C204.107 77.499 209.747 94.693 213.227 114.287H252.005C240.587 91.413 220.953 73.402 196.936 64.116zM67.993 114.287H106.77C110.25 94.693 115.89 77.499 123.062 64.116C99.045 73.402 79.41 91.413 67.993 114.287zM123.062 255.882C115.89 242.505 110.25 225.305 106.77 205.716H67.993C79.41 228.59 99.045 246.596 123.062 255.882zM159.999 262.8590000000001C167.365 262.8590000000001 182.587 243.065 190.01 205.716H129.987C137.41 243.065 152.633 262.859 160 262.859zM57.142 160.002C57.142 167.865 58.113 175.493 59.787 182.859H103.816A275.724 275.724 0 0 1 102.856 160.002C102.856 152.19 103.199 144.556 103.816 137.145H59.787C58.113 144.505 57.142 152.133 57.142 160.002zM126.725 137.145A256.594 256.594 0 0 0 125.713 160.002C125.713 168.082 126.085 175.687 126.725 182.859H193.273A256.692 256.692 0 0 0 194.285 160.002C194.285 151.922 193.913 144.31 193.273 137.145H126.725zM159.999 57.145C152.633 57.145 137.41 76.939 129.987 114.287H190.01C182.587 76.939 167.365 57.145 159.999 57.145zM262.856 160.002C262.856 152.133 261.885 144.505 260.205 137.145H216.182C216.799 144.556 217.142 152.19 217.142 160.002C217.142 167.807 216.799 175.442 216.182 182.859H260.205C261.885 175.493 262.856 167.865 262.856 160.002zM252.005 205.716H213.227C209.747 225.305 204.107 242.505 196.936 255.882C220.953 246.596 240.587 228.59 252.005 205.716zM159.999 285.716C90.57 285.716 34.285 229.43 34.285 160.002C34.285 90.567 90.57 34.287 159.999 34.287C229.427 34.287 285.713 90.567 285.713 160.002C285.713 229.43 229.427 285.716 159.999 285.716z" />
    <glyph glyph-name="laptop"
      unicode="&#xEA4A;"
      horiz-adv-x="320" d=" M74.284 113.952V216.809C74.284 223.003 79.518 228.569 85.713 228.569H234.284C240.478 228.569 245.713 223.003 245.713 216.809V113.952C245.713 107.758 240.478 102.855 234.284 102.855H85.713C79.518 102.855 74.284 107.758 74.284 113.952M274.284 80.335H238.844C255.558 82.541 268.57 96.643 268.57 113.952V216.809C268.57 235.666 253.141 251.426 234.284 251.426H85.713C66.855 251.426 51.427 235.666 51.427 216.809V113.952C51.427 96.643 64.438 82.541 81.153 80.335H45.713C39.404 80.335 34.284 75.215 34.284 68.906C34.284 62.598 39.404 57.478 45.713 57.478H274.284C280.593 57.478 285.713 62.598 285.713 68.906C285.713 75.215 280.593 80.335 274.284 80.335 M116.937 133.939C129.634 125.882 144.525 121.625 159.999 121.625C175.474 121.625 190.359 125.882 203.062 133.939A5.72 5.72 0 0 1 204.822 141.83A5.72 5.72 0 0 1 196.937 143.59C186.068 136.693 173.297 133.053 159.999 133.053C146.697 133.053 133.925 136.693 123.057 143.59A5.71 5.71 0 0 1 115.171 141.83A5.726 5.726 0 0 1 116.937 133.939M131.427 160.105C137.735 160.105 142.855 165.225 142.855 171.534V182.962C142.855 187.602 140.078 191.574 136.107 193.368A11.307 11.307 0 0 0 137.135 188.677C137.135 182.362 132.021 177.248 125.707 177.248C123.615 177.248 121.684 177.848 119.998 178.831V171.534C119.998 165.225 125.118 160.105 131.427 160.105M188.57 160.105C194.878 160.105 199.998 165.225 199.998 171.534V182.962C199.998 187.602 197.301 191.574 193.33 193.368C193.975 191.934 194.398 190.351 194.398 188.677C194.398 182.362 189.221 177.248 182.913 177.248C180.821 177.248 177.141 177.848 177.141 178.831V171.534C177.141 165.225 182.261 160.105 188.57 160.105" />
    <glyph glyph-name="launch-calendar"
      unicode="&#xEA4B;"
      horiz-adv-x="320" d=" M239.998 57.143H79.998C73.804 57.143 68.57 62.377 68.57 68.571V217.143H251.427V68.57C251.427 62.376 246.193 57.142 239.998 57.142M205.713 251.429C205.713 245.12 200.593 240 194.284 240H125.713C119.404 240 114.284 245.12 114.284 251.429C114.284 257.737 119.404 262.857 125.713 262.857H194.284C200.593 262.857 205.713 257.737 205.713 251.429M239.998 285.714H79.998C61.141 285.714 45.713 270.286 45.713 251.429V68.57C45.713 49.713 61.141 34.285 79.998 34.285H239.998C258.855 34.285 274.284 49.713 274.284 68.57V251.43C274.284 270.2870000000001 258.855 285.7150000000001 239.998 285.7150000000001 M136.99 118.822L141.717 133.679C142.437 135.931 142.437 138.354 141.717 140.611L136.991 155.462L175.368 137.142L136.991 118.822zM206.825 147.457L123.014 187.457C118.894 189.422 114.014 188.754 110.585 185.759A11.434 11.434 0 0 1 107.202 173.674L118.831 137.142L107.202 100.605A11.427 11.427 0 0 1 123.014 86.828L206.825 126.828A11.43 11.43 0 1 1 206.825 147.457z" />
    <glyph glyph-name="launch"
      unicode="&#xEA4C;"
      horiz-adv-x="320" d=" M267.778 170.314L62.063 268.497A11.415 11.415 0 0 1 49.635 266.794A11.421 11.421 0 0 1 46.252 254.714L76.401 160L46.252 65.286A11.421 11.421 0 0 1 49.635 53.206A11.383 11.383 0 0 1 57.143 50.389C58.812 50.389 60.498 50.76 62.063 51.509L267.778 149.686A11.436 11.436 0 0 1 274.286 160C274.286 164.406 271.749 168.417 267.778 170.314zM76.035 236.497L212.372 171.429H96.749L76.035 236.497zM96.749 148.571H212.378L76.035 83.497L96.749 148.571z" />
    <glyph glyph-name="leave&log-out"
      unicode="&#xEA4D;"
      horiz-adv-x="320" d=" M192.223 111.92L232.223 151.92C236.686 156.382 236.686 163.622 232.223 168.08L192.223 208.08C187.761 212.542 180.526 212.542 176.063 208.08C171.601 203.622 171.601 196.377 176.063 191.92L196.555 171.428H95.852C89.543 171.428 84.423 166.314 84.423 159.999C84.423 153.691 89.543 148.571 95.852 148.571H196.555L176.063 128.079A11.373 11.373 0 0 1 172.715 119.999C172.715 117.074 173.829 114.154 176.063 111.919C180.526 107.457 187.761 107.457 192.223 111.919 M250.222 40.301H69.77C50.205 40.301 34.285 56.221 34.285 75.787V244.21C34.285 263.775 50.205 279.701 69.77 279.701H250.222C269.793 279.701 285.713 263.775 285.713 244.21V214.135C285.713 207.821 280.593 202.707 274.285 202.707C267.97 202.707 262.856 207.821 262.856 214.135V244.21C262.856 251.175 257.187 256.844 250.222 256.844H69.77C62.81 256.844 57.142 251.175 57.142 244.21V75.787C57.142 68.821 62.81 63.158 69.77 63.158H250.222C257.187 63.158 262.856 68.821 262.856 75.787V105.867C262.856 112.175 267.97 117.295 274.285 117.295C280.593 117.295 285.713 112.175 285.713 105.867V75.787C285.713 56.221 269.793 40.301 250.222 40.301" />
    <glyph glyph-name="life-belt"
      unicode="&#xEA4E;"
      horiz-adv-x="320" d=" M159.998 285.714C90.57 285.714 34.284 229.43 34.284 160S90.57 34.286 159.998 34.286C229.427 34.286 285.713 90.571 285.713 160S229.427 285.714 159.998 285.714M159.998 262.857C216.713 262.857 262.855 216.714 262.855 160S216.713 57.143 159.998 57.143C103.284 57.143 57.141 103.286 57.141 160S103.284 262.857 159.998 262.857 M186.43 210.676L235.922 260.168C229.619 265.014 222.911 269.139 216.002 272.574L160.57 217.14L160 217.143C128.44 217.143 102.856 191.56 102.856 160L102.859 159.43L47.426 103.997C50.86 97.088 54.986 90.379 59.832 84.077L109.323 133.568A57.396 57.396 0 0 1 133.567 109.325L84.077 59.831C90.38 54.985 97.089 50.865 103.997 47.431L159.427 102.86C159.617 102.858 159.808 102.8570000000001 159.999 102.8570000000001C191.559 102.8570000000001 217.142 128.4400000000001 217.142 160.0000000000001C217.142 160.1910000000001 217.142 160.3820000000001 217.139 160.5730000000001L272.569 216.0030000000001C269.135 222.9110000000001 265.0150000000001 229.6190000000001 260.1690000000001 235.9230000000001L210.6750000000001 186.4330000000001A57.396 57.396 0 0 1 186.4310000000001 210.6760000000001zM159.998 194.286C178.901 194.286 194.284 178.903 194.284 160C194.284 141.097 178.901 125.714 159.998 125.714C141.095 125.714 125.713 141.097 125.713 160C125.713 178.903 141.095 194.286 159.998 194.286" />
    <glyph glyph-name="linux"
      unicode="&#xEA4F;"
      horiz-adv-x="320" d=" M178.507 120.952C168.312 109.032 151.687 109.032 141.493 120.952L88.482 183.688C84.09 171.454 81.581 158.28 81.581 144.478C81.581 118.286 90.521 94.604 105.107 77.508C128.632 75.94 148.864 66.686 156.55 50.375H163.45C171.136 66.059 190.583 74.842 214.266 76.567C229.1660000000001 93.663 238.419 117.816 238.419 144.478C238.419 158.28 235.909 171.454 231.519 183.688L178.507 120.952zM285.4700000000001 22.93C285.4700000000001 14.303 274.492 3.325 265.8660000000001 3.325H179.6050000000001C170.9790000000001 3.325 160.0000000000001 14.303 160.0000000000001 22.93C160.0000000000001 14.303 149.0210000000001 3.325 140.3950000000001 3.325H54.1350000000001C45.5080000000001 3.325 34.5300000000001 14.303 34.5300000000001 22.93C34.5300000000001 43.319 49.2720000000001 61.198 70.6020000000001 71.55C58.0550000000001 92.095 50.2130000000001 117.346 50.2130000000001 144.48C34.5300000000001 113.111 14.1410000000001 104.329 4.5730000000001 113.111C-4.6799999999999 121.894 -0.1319999999999 147.145 20.4140000000001 169.416C32.0200000000001 182.12 50.2140000000001 197.49 62.9170000000001 203.293C67.9360000000001 214.1150000000001 74.3670000000001 223.9960000000001 81.5810000000001 232.6230000000001V238.58C81.58 281.89 116.69 317 160 317C203.31 317 238.42 281.89 238.42 238.58V232.621C245.634 223.995 252.064 214.114 257.0830000000001 203.292C269.7870000000001 197.489 287.98 182.119 299.586 169.415C320.132 147.145 324.68 121.893 315.426 113.11C305.859 104.328 285.47 113.11 269.786 144.478C269.786 117.031 261.945 91.624 248.927 70.921C270.571 60.883 285.47 43.474 285.47 22.929zM126.75 207.213C120.163 199.371 120.163 187.295 126.75 179.767L146.355 156.241C152.785 148.713 163.294 148.713 169.881 156.241L189.486 179.767C195.916 187.295 195.916 199.371 189.486 207.213H126.75zM128.632 266.028C120.006 266.028 112.949 255.833 112.949 238.581S120.006 211.134 128.632 211.134S144.316 221.329 144.316 238.581S137.258 266.028 128.632 266.028zM191.368 266.028C182.742 266.028 175.684 255.833 175.684 238.581S182.742 211.134 191.368 211.134S207.05 221.33 207.05 238.581S199.993 266.028 191.367 266.028z" />
    <glyph glyph-name="lock-solid"
      unicode="&#xEA50;"
      horiz-adv-x="320" d=" M171.427 126.026V105.718C171.427 99.403 166.307 94.289 159.998 94.289C153.69 94.289 148.57 99.403 148.57 105.718V126.026C141.764 129.986 137.141 137.272 137.141 145.712C137.141 158.335 147.375 168.569 159.998 168.569S182.855 158.335 182.855 145.712C182.855 137.272 178.233 129.986 171.427 126.026zM131.427 234.283C131.427 250.038 144.244 262.855 159.998 262.855C175.753 262.855 188.57 250.038 188.57 234.283V228.569H131.427V234.283zM222.855 228.569H211.427V234.283C211.427 262.569 188.284 285.712 159.998 285.712C131.713 285.712 108.57 262.569 108.57 234.283V228.569H97.14C78.283 228.569 62.854 213.141 62.854 194.283V68.57C62.854 49.713 78.283 34.284 97.14 34.284H222.854C241.712 34.284 257.14 49.713 257.14 68.57V194.283C257.14 213.141 241.712 228.569 222.854 228.569z" />
    <glyph glyph-name="lock"
      unicode="&#xEA51;"
      horiz-adv-x="320" d=" M234.284 68.571C234.284 62.377 229.05 57.143 222.855 57.143H97.141C90.947 57.143 85.713 62.377 85.713 68.571V194.286C85.713 200.48 90.947 205.714 97.141 205.714H222.855C229.05 205.714 234.284 200.48 234.284 194.286V68.57zM131.427 234.286C131.427 250.04 144.244 262.857 159.998 262.857C175.753 262.857 188.57 250.04 188.57 234.286V228.571H131.427V234.286zM222.855 228.571H211.427V234.286C211.427 262.5710000000001 188.284 285.714 159.998 285.714C131.713 285.714 108.57 262.5710000000001 108.57 234.286V228.571H97.14C78.283 228.571 62.854 213.143 62.854 194.286V68.57C62.854 49.713 78.283 34.285 97.14 34.285H222.854C241.712 34.285 257.14 49.713 257.14 68.57V194.286C257.14 213.143 241.712 228.571 222.854 228.571z M159.998 168.57C147.375 168.57 137.141 158.336 137.141 145.713C137.141 137.273 141.764 129.987 148.57 126.027V105.719C148.57 99.405 153.69 94.29 159.998 94.29C166.307 94.29 171.427 99.405 171.427 105.719V126.027C178.233 129.987 182.855 137.273 182.855 145.713C182.855 158.336 172.621 168.57 159.998 168.57" />
    <glyph glyph-name="loop"
      unicode="&#xEA52;"
      horiz-adv-x="320" d=" M152.334 79.729C119.162 82.917 91.162 106.689 82.654 138.883C73.939 171.837 87.202 206.203 114.522 225.06V188.574C114.522 182.266 119.642 177.146 125.951 177.146C132.265 177.146 137.379 182.266 137.379 188.574V251.431C137.379 257.746 132.265 262.86 125.951 262.86H57.379C51.071 262.86 45.951 257.746 45.951 251.431C45.951 245.123 51.071 240.003 57.379 240.003H96.374C64.785 215.11 49.917 173.27 60.55 133.043C71.498 91.643 107.498 61.071 150.144 56.974C150.521 56.94 150.887 56.923 151.253 56.923C157.07 56.923 162.047 61.346 162.613 67.254C163.218 73.54 158.618 79.123 152.333 79.729M262.855 80H223.678C255.267 104.897 270.13 146.737 259.495 186.96C248.553 228.366 212.547 258.931 169.901 263.029A11.388 11.388 0 0 1 157.433 252.743C156.833 246.463 161.433 240.88 167.718 240.274C200.884 237.091 228.89 213.314 237.398 181.12C246.0900000000001 148.24 232.9070000000001 113.96 205.713 95.069V131.429C205.713 137.737 200.593 142.857 194.284 142.857S182.855 137.737 182.855 131.429V68.571C182.855 62.263 187.975 57.143 194.284 57.143H262.855C269.1640000000001 57.143 274.284 62.263 274.284 68.571C274.284 74.88 269.164 80 262.855 80" />
    </font>
</defs>
</svg>
