<?xml version="1.0" standalone="no"?> 
<!DOCTYPE svg PUBLIC "-//W3C//DTD SVG 1.1//EN" "http://www.w3.org/Graphics/SVG/1.1/DTD/svg11.dtd" >
<svg xmlns="http://www.w3.org/2000/svg">
<defs>
  <font id="talk-iconfonts" horiz-adv-x="323">
    <font-face font-family="talk-iconfonts"
      units-per-em="323" ascent="323"
      descent="0" />
    <missing-glyph horiz-adv-x="0" />
    <glyph glyph-name="activity"
      unicode="&#xEA01;"
      horiz-adv-x="323" d=" M156.284 212.018C149.974 212.018 144.854 206.898 144.854 200.59V147.8A11.42 11.42 0 0 1 150.57 137.904L196.284 111.514C198.084 110.474 200.05 109.984 201.987 109.984C205.935 109.984 209.775 112.03 211.895 115.698C215.05 121.168 213.175 128.155 207.713 131.31L167.713 154.4V200.59C167.713 206.898 162.593 212.018 156.283 212.018 M230.69 229.69C224.005 236.375 224.005 247.25 230.69 253.935A17.044 17.044 0 0 0 242.81 258.953C247.393 258.953 251.696 257.17 254.936 253.935A17.048 17.048 0 0 0 259.9530000000001 241.81C259.9530000000001 237.233 258.17 232.93 254.9360000000001 229.69C254.7820000000001 229.535 254.5990000000001 229.433 254.439 229.284C254.404 229.267 254.3690000000001 229.254 254.335 229.238C253.485 228.724 252.752 228.095 252.085 227.415A17.024 17.024 0 0 0 242.809 224.667C238.232 224.667 233.929 226.45 230.689 229.69M279.404 205.947C277.924 209.804 276.204 213.57 274.352 217.255C286.598 232.953 285.529 255.661 271.095 270.0950000000001C263.285 277.907 253.049 281.81 242.809 281.81C232.575 281.81 222.335 277.907 214.529 270.0950000000001C198.906 254.473 198.906 229.147 214.529 213.53C222.335 205.718 232.575 201.81 242.809 201.81C247.072 201.81 251.324 202.53 255.409 203.884C256.341 201.867 257.266 199.844 258.061 197.77C278.335 144.804 251.735 85.215 198.769 64.94C185.026 59.678 170.495 57.495 155.639 58.427C149.359 58.8730000000001 143.912 54.033 143.519 47.73C143.119 41.433 147.906 36.01 154.209 35.61C156.919 35.444 159.615 35.353 162.306 35.353A124.3 124.3 0 0 1 206.936 43.593C238.301 55.593 263.101 79.095 276.792 109.758C290.484 140.4210000000001 291.415 174.581 279.404 205.948M93.307 92.306C99.993 85.621 99.993 74.746 93.307 68.061A17.044 17.044 0 0 0 81.187 63.044A17.048 17.048 0 0 0 69.061 68.062C62.381 74.748 62.381 85.622 69.061 92.308A17.03 17.03 0 0 0 81.188 97.331C85.765 97.331 90.068 95.547 93.308 92.307M125.234 257.067C138.971 262.319 153.491 264.507 168.364 263.582C174.714 263.212 180.084 267.972 180.484 274.274C180.879 280.571 176.091 286 169.794 286.394C151.628 287.524 133.879 284.851 117.062 278.411C85.702 266.411 60.892 242.907 47.2 212.251C33.515 181.581 32.59 147.427 44.59 116.073A125.637 125.637 0 0 1 49.623 104.707C37.407 89.017 38.476 66.324 52.903 51.902C60.716 44.092 70.95 40.188 81.19 40.188C91.424 40.188 101.664 44.091 109.47 51.903C125.093 67.526 125.093 92.853 109.47 108.469C101.664 116.281 91.424 120.189 81.19 120.189C76.95 120.189 72.72 119.481 68.653 118.139C67.721 120.166 66.733 122.166 65.938 124.235C56.116 149.892 56.876 177.845 68.076 202.932C79.276 228.017 99.573 247.245 125.236 257.068" />
    <glyph glyph-name="android"
      unicode="&#xEA02;"
      horiz-adv-x="321" d=" M251.02 200.064V130.077C251.02 119.025 260.094 109.957 271.152 109.957C281.926 109.957 291 119.027 291 130.077V200.064C291 210.832 281.926 219.897 271.152 219.897C260.094 219.897 251.02 210.832 251.02 200.064zM241.096 219.897H80.904V90.117C80.904 79.633 89.407 71.13 99.897 71.13H101.035V20.12C101.035 9.07 110.105 0 121.162 0C131.942 0 141.01 9.07 141.01 20.12V71.13H180.985V20.12C180.985 9.07 190.059 0 201.115 0C211.89 0 220.965 9.07 220.965 20.12V71.13H222.381C232.589 71.13 241.097 79.632 241.097 90.118V219.898zM70.98 130.077V200.064C70.98 210.832 61.905 219.897 51.13 219.897C40.074 219.897 31 210.832 31 200.064V130.077C31 119.025 40.075 109.957 51.13 109.957C61.906 109.957 70.98 119.025 70.98 130.077zM180.985 269.774C180.985 275.4410000000001 185.525 279.976 190.908 279.976A10.16 10.16 0 0 0 201.114 269.774C201.114 264.39 196.582 259.854 190.907 259.854C185.524 259.854 180.983 264.39 180.983 269.774zM141.009 269.774C141.009 264.39 136.472 259.854 131.085 259.854C125.415 259.854 121.161 264.39 121.161 269.774C121.161 275.4410000000001 125.415 279.976 131.085 279.976C136.472 279.976 141.009 275.4410000000001 141.009 269.774zM80.904 229.816H241.096C241.096 256.453 228.056 280.259 207.924 294.706L224.647 311.43C226.639 313.412 226.639 316.532 224.647 318.514C222.664 320.494 219.549 320.494 217.567 318.514L199.133 300.09C187.793 306.33 174.753 310.01 161.136 310.01C147.2460000000001 310.01 134.206 306.33 122.866 300.09L104.434 318.515C102.734 320.495 99.331 320.495 97.631 318.515C95.651 316.533 95.651 313.413 97.631 311.431L114.077 294.7080000000001C94.227 280.26 80.905 256.454 80.905 229.818z" />
    <glyph glyph-name="apple"
      unicode="&#xEA03;"
      horiz-adv-x="321" d=" M264.798 110.05C255.716 122.87 251.442 137.295 251.442 152.788C251.442 167.212 255.716 180.568 263.73 192.855C268.0030000000001 199.265 275.4820000000001 206.745 285.6330000000001 215.825C278.6880000000001 223.84 272.2770000000001 230.25 265.3330000000001 235.058C253.045 243.606 239.689 247.346 224.197 247.346C215.1150000000001 247.346 203.897 245.209 191.0750000000001 240.9360000000001C178.2550000000001 236.661 169.1720000000001 234.524 163.2950000000001 234.524C159.0220000000001 234.524 149.9400000000001 236.661 136.585 240.401C123.2290000000001 244.141 111.475 246.278 102.395 246.278C80.491 246.278 62.327 237.196 47.903 218.498C33.48 199.8 26 175.76 26 146.377C26 115.392 35.616 82.805 54.314 49.683C73.546 16.56 92.778 0 112.544 0C118.954 0 127.504 2.137 138.187 6.41C148.337 10.684 157.953 12.8200000000001 165.432 12.8200000000001C173.98 12.8200000000001 183.596 10.684 194.28 6.41C206.033 2.137 215.1150000000001 0 220.992 0C237.552 0 254.1140000000001 12.82 270.6740000000001 37.93C281.3590000000001 53.957 289.372 69.983 294.1800000000001 86.01C284.0300000000001 89.215 273.8800000000001 97.763 264.7980000000001 110.05zM178.254 245.21C173.446 243.606 167.034 242.538 157.954 242.003C158.487 261.235 163.294 277.796 172.912 291.686C182.528 305.576 198.554 315.192 220.992 320C220.992 319.466 221.526 318.932 221.526 317.863C221.526 316.795 222.06 316.26 222.06 315.726V311.45C222.06 303.437 220.4569999999999 294.89 216.7179999999999 285.273C212.9779999999999 275.657 207.1019999999999 266.576 199.0879999999999 258.563C192.144 252.153 185.1979999999999 247.343 178.2539999999999 245.207z" />
    <glyph glyph-name="arrow-down"
      unicode="&#xEA04;"
      horiz-adv-x="321" d=" M149.57 251.427V96.164L89.078 156.65C84.615 161.113 77.381 161.113 72.918 156.65C68.455 152.193 68.455 144.947 72.918 140.49L152.918 60.49C157.381 56.027 164.615 56.027 169.078 60.49L249.078 140.49A11.373 11.373 0 0 1 252.428 148.57C252.428 151.496 251.313 154.42 249.078 156.65C244.615 161.113 237.381 161.113 232.918 156.65L172.428 96.1640000000001V251.427C172.428 257.737 167.308 262.8570000000001 160.998 262.8570000000001C154.69 262.8570000000001 149.57 257.737 149.57 251.427" />
    <glyph glyph-name="arrow-left"
      unicode="&#xEA05;"
      horiz-adv-x="321" d=" M252.427 171.43H97.164L157.65 231.92C162.113 236.383 162.113 243.617 157.65 248.08C153.193 252.543 145.947 252.543 141.49 248.08L61.49 168.08C57.027 163.617 57.027 156.383 61.49 151.92L141.49 71.92A11.373 11.373 0 0 1 149.57 68.57C152.495 68.57 155.42 69.686 157.65 71.92C162.113 76.383 162.113 83.617 157.65 88.08L97.1640000000001 148.57H252.4270000000001C258.7350000000001 148.57 263.8550000000001 153.69 263.8550000000001 160S258.7350000000001 171.43 252.4270000000001 171.43" />
    <glyph glyph-name="arrow-right"
      unicode="&#xEA06;"
      horiz-adv-x="320" d=" M69.57 147.57H224.834L164.348 87.08C159.885 82.616 159.885 75.38 164.348 70.92C168.805 66.456 176.051 66.456 180.508 70.92L260.5080000000001 150.92C264.9710000000001 155.38 264.9710000000001 162.616 260.5080000000001 167.08L180.5080000000001 247.08A11.373 11.373 0 0 1 172.428 250.427C169.503 250.427 166.578 249.313 164.348 247.079C159.885 242.615 159.885 235.379 164.348 230.919L224.834 170.426H69.57C63.263 170.426 58.143 165.306 58.143 158.998C58.143 152.688 63.263 147.568 69.571 147.568" />
    <glyph glyph-name="arrow-up"
      unicode="&#xEA07;"
      horiz-adv-x="321" d=" M172.428 68.57V223.835L232.92 163.35C237.383 158.886 244.617 158.886 249.08 163.35C253.543 167.806 253.543 175.05 249.08 179.51L169.08 259.51C164.617 263.97 157.383 263.97 152.92 259.51L72.92 179.51A11.373 11.373 0 0 1 69.57 171.43C69.57 168.503 70.685 165.577 72.92 163.35C77.383 158.886 84.617 158.886 89.08 163.35L149.57 223.834V68.57C149.57 62.263 154.69 57.143 161 57.143C167.308 57.143 172.428 62.263 172.428 68.571" />
    <glyph glyph-name="at"
      unicode="&#xEA08;"
      horiz-adv-x="320" d=" M159.998 125.714C141.084 125.714 125.713 141.086 125.713 160S141.083 194.286 159.998 194.286S194.284 178.914 194.284 160S178.914 125.714 159.998 125.714M285.655 162.457C284.34 230.63 228.513 285.714 159.998 285.714C90.684 285.714 34.284 229.314 34.284 160S90.684 34.286 159.998 34.286C184.513 34.286 208.284 41.371 228.684 54.686C233.998 58.171 235.484 65.256 231.998 70.514C228.57 75.829 221.484 77.314 216.17 73.829C199.484 62.913 180.055 57.142 159.998 57.142C103.255 57.142 57.141 103.312 57.141 159.999C57.141 216.742 103.256 262.856 159.999 262.856C201.029 262.856 236.514 238.742 252.971 203.828C259.314 190.568 262.856 175.655 262.856 159.998C262.856 147.368 252.628 137.141 239.999 137.141C227.371 137.141 217.142 147.369 217.142 159.998C217.142 171.884 213.542 182.855 207.315 191.998A55.845 55.845 0 0 1 194.285 205.655V205.712C184.743 212.855 172.857 217.142 160 217.142C128.457 217.142 102.857 191.542 102.857 159.998C102.857 128.455 128.457 102.855 160 102.855C177.315 102.855 192.8 110.569 203.315 122.741C204.743 124.398 206.115 126.169 207.315 127.998C215.657 119.541 227.2 114.284 240 114.284C265.257 114.284 285.7150000000001 134.741 285.7150000000001 159.998C285.7150000000001 160.798 285.7150000000001 161.655 285.6570000000001 162.455" />
    <glyph glyph-name="bell"
      unicode="&#xEA09;"
      horiz-adv-x="320" d=" M78.634 124.93C72.912 112.3 75.244 96.91 85.626 86.528C96.01 76.145 111.396 73.814 124.026 79.536L162.442 41.121A11.43 11.43 0 0 1 174.002 38.316A11.428 11.428 0 0 1 181.79 47.299L183.887 59.694A45.754 45.754 0 0 0 196.637 84.402L239.3050000000001 127.072C270.413 158.18 270.413 209.095 239.3050000000001 240.202C223.745 255.762 203.242 263.54 182.733 263.54C162.225 263.54 141.7230000000001 255.763 126.167 240.203L83.5 197.54A45.696 45.696 0 0 0 58.79 184.792L46.396 182.695C42.179 181.985 38.716 178.975 37.413 174.9A11.436 11.436 0 0 1 40.219 163.346L78.633 124.931zM186.984 107.074L223.139 143.23C233.869 153.96 239.779 168.31 239.779 183.635C239.779 198.961 233.869 213.31 223.139 224.041C212.406 234.7740000000001 198.059 240.6810000000001 182.732 240.6810000000001C167.406 240.6810000000001 153.058 234.7740000000001 142.326 224.041L106.173 187.889L186.983 107.075zM171.784 89.954A67.934 67.934 0 0 1 163.47 72.418L71.516 164.373A67.934 67.934 0 0 1 89.05 172.686L171.783 89.953z M248.84 282.226C240.062 282.226 231.29 278.878 224.593 272.186C211.205 258.7920000000001 211.205 237.089 224.593 223.696C231.29 217.003 240.063 213.656 248.8390000000001 213.656C257.615 213.656 266.386 217.003 273.084 223.696C286.472 237.089 286.472 258.792 273.084 272.186C266.386 278.878 257.614 282.226 248.838 282.226M248.838 259.3690000000001C250.603 259.3690000000001 254.008 258.934 256.918 256.019C261.374 251.562 261.374 244.317 256.918 239.859C254.008 236.945 250.603 236.511 248.838 236.511C247.071 236.511 243.665 236.945 240.758 239.861C237.843 242.768 237.408 246.174 237.408 247.941C237.408 249.705 237.843 253.111 240.758 256.021C243.665 258.934 247.071 259.368 248.838 259.368" />
    <glyph glyph-name="bot"
      unicode="&#xEA0A;"
      horiz-adv-x="320" d=" M239.998 68.57C239.998 62.4 234.741 57.143 228.57 57.143H91.427C85.255 57.143 79.997 62.4 79.997 68.571V114.287C79.997 118.687 80.341 122.972 81.027 127.201C87.255 165.201 120.284 194.287 159.997 194.287C199.713 194.287 232.741 165.201 238.9700000000001 127.201A80.375 80.375 0 0 0 239.998 114.287V68.572zM159.998 263.257C166.284 263.257 171.428 258.1140000000001 171.428 251.829C171.428 245.542 166.284 240.399 159.998 240.399C153.713 240.399 148.57 245.542 148.57 251.829C148.57 258.113 153.713 263.2560000000001 159.998 263.2560000000001zM261.028 133.429C252.741 177.256 216.341 211.485 171.428 216.513V219.543C184.741 224.17 194.284 236.913 194.284 251.828C194.284 270.798 178.914 286.112 159.998 286.112C141.084 286.112 125.713 270.798 125.713 251.827C125.713 236.911 135.255 224.167 148.57 219.54V216.51C103.655 211.483 67.255 177.254 58.97 133.426C45.027 131.539 34.284 119.596 34.284 105.139C34.284 91.253 44.114 79.767 57.141 77.139V68.567C57.141 49.711 72.571 34.283 91.428 34.283H228.57C247.427 34.283 262.855 49.711 262.855 68.568V77.141C275.885 79.769 285.713 91.255 285.713 105.141C285.713 119.598 274.9700000000001 131.541 261.0270000000001 133.427zM213.348 102.934C197.575 88.924 179.13 81.517 159.998 81.517C140.868 81.517 122.415 88.923 106.65 102.929A5.697 5.697 0 0 1 98.587 102.454A5.707 5.707 0 0 1 99.061 94.392C116.954 78.494 138.021 70.089 159.999 70.089C181.971 70.089 203.039 78.494 220.936 94.386A5.72 5.72 0 0 1 221.416 102.454A5.71 5.71 0 0 1 213.348 102.934M131.428 114.284C137.736 114.284 142.856 119.404 142.856 125.714V137.142C142.856 141.782 140.079 145.759 136.102 147.548C136.755 146.112 137.132 144.535 137.132 142.855C137.132 136.541 132.017 131.427 125.702 131.427C123.617 131.427 121.686 132.027 120 133.007V125.711C120 119.403 125.12 114.283 131.43 114.283M188.572 114.283C194.88 114.283 200 119.403 200 125.711V137.141C200 141.781 197.223 145.757 193.246 147.546C193.896 146.11 194.276 144.533 194.276 142.853C194.276 136.539 189.16 131.425 182.846 131.425C180.76 131.425 178.829 132.025 177.143 133.005V125.709C177.143 119.4010000000001 182.263 114.281 188.573 114.281" />
    <glyph glyph-name="bottle"
      unicode="&#xEA0B;"
      horiz-adv-x="320" d=" M215.274 265.5900000000001L179.194 229.51A34.294 34.294 0 0 0 154.931 219.477A34.81 34.81 0 0 0 147.835 220.214A91.534 91.534 0 0 1 128.925 222.18C105.555 222.18 82.149 213.277 64.32 195.45C28.6 159.73 28.6 101.866 64.32 66.146C82.177 48.289 105.57 39.356 128.965 39.356C152.359 39.356 175.755 48.289 193.617 66.146C216.285 88.814 224.525 120.494 218.382 149.666C215.999 161.02 219.474 172.82 227.679 181.02L263.759 217.106L215.273 265.591zM215.274 233.266L231.434 217.106L211.514 197.186C197.822 183.489 192.028 163.969 196.017 144.956C200.817 122.156 193.879 98.734 177.451 82.311C164.498 69.351 147.275 62.215 128.966 62.215C110.658 62.215 93.44 69.352 80.48 82.312C53.742 109.0450000000001 53.742 152.5480000000001 80.48 179.285C93.405 192.211 110.61 199.325 128.925 199.325C133.697 199.325 138.475 198.828 143.137 197.851C147.011 197.031 150.977 196.621 154.931 196.621C170.211 196.621 184.571 202.564 195.355 213.347L215.275 233.267z M272.004 208.86C276.37 204.495 276.37 197.387 272.004 193.02L271.678 192.7C267.318 188.335 260.204 188.335 255.844 192.7L190.867 257.673C186.507 262.038 186.507 269.147 190.867 273.5130000000001L191.193 273.8330000000001C195.558 278.198 202.667 278.198 207.033 273.8330000000001L272.003 208.861zM269.475 222.818L220.99 271.304L228.87 279.19C233.315 283.63 240.79 283.83 245.23 279.384L277.555 247.064C282.0010000000001 242.618 281.801 235.144 277.355 230.698L269.475 222.818zM103.34 92.347C100.277 92.347 97.266 92.553 94.29 92.89C114.47 74.41 145.786 74.885 165.323 94.422C178.849 107.947 183.22 127.119 178.533 144.336C167.02 113.97 137.74 92.346 103.34 92.346" />
    <glyph glyph-name="brush"
      unicode="&#xEA0C;"
      horiz-adv-x="321" d=" M178.5 223.477L107.88 153.7C103.94 149.8 104.985 145.078 109.83 142.385C122.048 135.612 132.177 125.422 138.95 113.063C141.602 108.199 146.325 107.153 150.244 111.093C169.859 130.969 193.996 155.387 220.122 181.855C285.94 248.437 326.94 308.085 315.8450000000001 319.2C304.73 330.273 245.083 289.275 178.5 223.477M74.718 121.557C54.842 121.557 36.372 107.47 31.73 88.017C26.484 67.477 20.113 37.23 3.874 14.44C-3.16 4.572 -0.526 -0.513 11.049 1.397C47.203 7.305 118.206 35.361 118.206 76.821C118.206 76.821 118.206 73.084 118.206 76.821C118.206 101.541 98.149 121.559 74.716 121.559" />
    <glyph glyph-name="calendar"
      unicode="&#xEA0D;"
      horiz-adv-x="320" d=" M240.286 286H80.286C61.43 286 46 270.57 46 251.714V68.857C46 50 61.43 34.57 80.286 34.57H240.286C259.1430000000001 34.57 274.5710000000001 50 274.5710000000001 68.857V251.714C274.57 270.57 259.144 286 240.287 286M240.287 57.43H80.287C74.092 57.43 68.857 62.663 68.857 68.857V217.43H251.715V68.857C251.715 62.663 246.481 57.429 240.287 57.429M206 251.713C206 245.405 200.88 240.285 194.57 240.285H126C119.69 240.285 114.57 245.405 114.57 251.713C114.57 258.023 119.69 263.143 126 263.143H194.57C200.88 263.143 206 258.023 206 251.713 M196.92 188.86H191.993C174.49 188.86 160.17 174.534 160.17 157.03V117.8250000000001C160.17 100.3220000000001 174.49 86.002 191.993 86.002H196.919C214.421 86.002 228.741 100.322 228.741 117.8250000000001V157.03C228.741 174.534 214.421 188.86 196.918 188.86zM205.885 117.825C205.885 112.962 201.775 108.859 196.919 108.859H191.992C187.135 108.859 183.026 112.961 183.026 117.824V157.03C183.026 161.894 187.136 166.002 191.992 166.002H196.918C201.774 166.002 205.883 161.894 205.883 157.032V117.825zM133.116 185.486A11.28 11.28 0 0 1 117.002 185.486L95.172 163.714C90.716 159.257 90.716 152 95.172 147.544C97.402 145.314 100.316 144.171 103.23 144.171A11.42 11.42 0 0 1 111.345 147.544L113.63 149.83V98.343C113.63 91.543 118.773 86 125.06 86C131.345 86 136.487 91.543 136.487 98.343V177.43C136.487 178.23 136.373 179.086 136.202 179.886A11.38 11.38 0 0 1 133.116 185.486" />
    <glyph glyph-name="case"
      unicode="&#xEA0E;"
      horiz-adv-x="321" d=" M200 151C200 156.52 195.52 161 190 161H130C124.48 161 120 156.52 120 151V141H40V221H280V141H200V151zM40 41V101H120V91C120 85.48 124.48 81 130 81H190C195.52 81 200 85.48 200 91V101H280V41H40zM120 281H200V261H120V281zM240 301C240 312.06 231.06 321 220 321H100C88.94 321 80 312.06 80 301V261H20C8.94 261 0 252.06 0 241V21C0 9.94 8.94 1 20 1H300C311.06 1 320 9.94 320 21V241C320 252.06 311.06 261 300 261H240V301z" />
    <glyph glyph-name="chain"
      unicode="&#xEA0F;"
      horiz-adv-x="320" d=" M176.363 143.613C168.197 144.967 160.613 148.813 154.711 154.716C148.775 160.653 144.987 168.179 143.638 176.362C151.804 174.996 159.388 171.185 165.284 165.287C171.227 159.345 175.021 151.802 176.364 143.613M265.054 265.0590000000001C240.552 289.5610000000001 200.672 289.5610000000001 176.158 265.0590000000001L138.548 227.4410000000001C126.718 215.6110000000001 120.204 199.824 120.204 182.995C120.204 166.165 126.718 150.3850000000001 138.547 138.555C148.077 129.025 160.4269999999999 122.965 173.615 120.978A39.678 39.678 0 0 0 165.285 108.714L127.672 71.104C112.0789999999999 55.5140000000001 86.7019999999999 55.5140000000001 71.108 71.104C55.513 86.704 55.513 112.08 71.108 127.674L103.805 160.3710000000001C108.268 164.834 108.268 172.0680000000001 103.811 176.531C99.341 181.001 92.1069999999999 180.994 87.644 176.537L54.94 143.84C30.437 119.325 30.437 79.445 54.94 54.943C67.197 42.685 83.294 36.56 99.39 36.56C115.49 36.56 131.586 42.685 143.837 54.943L181.443 92.553C193.277 104.383 199.797 120.171 199.797 137C199.797 153.834 193.277 169.617 181.443 181.445C171.923 190.971 159.586 197.085 146.413 199.075A39.524 39.524 0 0 0 154.711 211.28L192.318 248.89C207.924 264.485 233.301 264.485 248.895 248.89C264.485 233.297 264.485 207.92 248.895 192.32L216.192 159.623C211.732 155.165 211.732 147.925 216.192 143.463C220.656 139 227.892 139 232.352 143.463L265.056 176.16C289.566 200.668 289.566 240.543 265.056 265.057" />
    <glyph glyph-name="chats"
      unicode="&#xEA10;"
      horiz-adv-x="320" d=" M20 240C8.94 240 0 231.06 0 220V60C0 48.94 8.94 40 20 40H80L132.46 5.5C137.06 2.46 145.3 0 150.82 0H190C195.52 0 200 4.48 200 10V40H220C231.06 40 240 48.94 240 60V220C240 231.06 231.06 240 220 240H20zM200 80H160V40L100 80H40V200H200V80zM100 320C88.94 320 80 311.06 80 300V260H120V280H270C275.52 280 280 275.52 280 270V160H260V120H300C311.06 120 320 128.94 320 140V300C320 311.06 311.06 320 300 320H100L148.037 214.205" />
    <glyph glyph-name="chevron-down"
      unicode="&#xEA11;"
      horiz-adv-x="320" d=" M160 98.098L260 198.558L236.667 222L160 144.98L83.333 222L60 198.56L160 98.098z" />
    <glyph glyph-name="chevron-left"
      unicode="&#xEA12;"
      horiz-adv-x="320" d=" M98.05 160.05L198.51 60.05L221.95 83.383L144.93 160.049L221.95 236.715L198.51 260.048L98.05 160.048z" />
    <glyph glyph-name="chevron-right"
      unicode="&#xEA13;"
      horiz-adv-x="320" d=" M121.49 260.05L98.05 236.715L175.07 160.048L98.05 83.381L121.49 60.047L221.95 160.047L121.49 260.0470000000001z" />
    <glyph glyph-name="chevron-up"
      unicode="&#xEA14;"
      horiz-adv-x="320" d=" M160 222L60 121.54L83.333 98.098L160 175.118L236.667 98.098L260 121.538L160 222z" />
    <glyph glyph-name="chrome"
      unicode="&#xEA15;"
      horiz-adv-x="321" d=" M160 100C193.137 100 220 126.863 220 160S193.137 220 160 220S100 193.137 100 160S126.863 100 160 100zM307.9700000000001 220H215C231.25 203.75 241.88 182.91 241.88 160C241.88 142.91 237.09 127.29 227.5 113.12L161.88 0C205.63 0.42 242.92 16.25 273.76 47.5C304.58 78.75 320 116.25 320 160C320 180.41 316.56 201.88 307.9700000000001 220zM109.69 224.69C124.47 236.14 141.25 240 160 240H297.5C283.33 264.16 264.06 284.58 239.69 298.75C215.31 312.9100000000001 188.75 320 160 320C135 320 111.66 314.69 90 304.06C68.33 293.44 48.28 277.9700000000001 33.59 258.12L80 180C84.58 197.91 94.89 213.22 109.69 224.69zM160 78.12C143.75 78.12 128.96 82.5 115.62 91.24C102.28 99.99 92.28 111.24 85.62 124.99L20 240C6.25 215.41 0 187.91 0 160C0 120 13.02 85.1 39.06 55.31C65.1 25.52 97.5 7.71 136.25 1.87L182.66 82.18C177.99 80.81 170.2 78.12 160 78.12z" />
    <glyph glyph-name="cloud-upload"
      unicode="&#xEA16;"
      horiz-adv-x="320" d=" M243.475 219.587C230.852 251.637 200.045 272.81 165.223 272.81C124.595 272.81 89.898 243.295 82.566 204.118C54.481 197.348 34.286 172.318 34.286 142.558C34.286 107.61 62.716 79.181 97.658 79.181H125.715C132.023 79.181 137.143 84.296 137.143 90.611C137.143 96.919 132.023 102.039 125.715 102.039H97.658C75.321 102.039 57.143 120.211 57.143 142.559C57.143 163.594 72.921 180.931 93.841 182.879C99.391 183.399 103.751 187.834 104.179 193.389C106.602 225.109 133.419 249.954 165.224 249.954C191.894 249.954 215.316 232.908 223.527 207.531A11.424 11.424 0 0 1 230.277 200.394C250.064 192.736 262.859 174.114 262.859 152.948C262.859 124.878 240.019 102.038 211.944 102.038H194.287C187.973 102.038 182.859 96.918 182.859 90.611C182.859 84.296 187.973 79.181 194.287 79.181H211.944C252.624 79.181 285.716 112.274 285.716 152.948C285.716 181.822 269.31 207.434 243.476 219.588 M191.918 120.826A11.383 11.383 0 0 1 199.998 117.476C202.924 117.476 205.85 118.591 208.078 120.826C212.541 125.289 212.541 132.523 208.078 136.986L168.078 176.986C163.6150000000001 181.449 156.375 181.449 151.918 176.986L111.918 136.986C107.455 132.523 107.455 125.289 111.918 120.826C116.375 116.363 123.6210000000001 116.363 128.078 120.826L148.57 141.316V64.329C148.57 58.019 153.69 52.899 159.998 52.899C166.313 52.899 171.428 58.019 171.428 64.329V141.316L191.918 120.826z" />
    <glyph glyph-name="cog-inverse"
      unicode="&#xEA17;"
      horiz-adv-x="320" d=" M159.998 188.57C144.244 188.57 131.428 175.754 131.428 160S144.244 131.43 159.998 131.43C175.753 131.43 188.57 144.246 188.57 160S175.753 188.57 159.998 188.57 M159.998 108.57C131.593 108.57 108.57 131.594 108.57 160S131.593 211.43 159.998 211.43C188.404 211.43 211.428 188.406 211.428 160S188.404 108.57 159.998 108.57M256.775 167.303L279.655 198.56A126.246 126.246 0 0 1 268.873 222.857A126.21 126.21 0 0 1 253.22 244.35L214.713 240.16C210.638 242.93 206.427 245.45 202.015 247.566L186.438 282.896A125.58 125.58 0 0 1 133.57 282.914L117.935 247.464C115.753 246.406 113.565 245.36 111.427 244.126C109.29 242.896 107.29 241.526 105.29 240.1600000000001L66.77 244.35A125.522 125.522 0 0 1 40.347 198.554L63.157 167.394C62.781 162.52 62.855 157.611 63.221 152.697L40.34 121.44C43.02 113.143 46.593 105 51.124 97.143A125.94 125.94 0 0 1 66.774 75.657L105.284 79.84C109.358 77.07 113.57 74.55 117.981 72.434L133.559 37.104A125.58 125.58 0 0 1 186.429 37.086L202.062 72.543C204.246 73.593 206.435 74.64 208.572 75.873C210.709 77.103 212.709 78.473 214.709 79.84L253.229 75.65A125.522 125.522 0 0 1 279.652 121.446L256.84 152.606C257.217 157.48 257.143 162.389 256.777 167.303" />
    <glyph glyph-name="cog"
      unicode="&#xEA18;"
      horiz-adv-x="320" d=" M159.95 285.7200000000001C151.157 285.7200000000001 142.317 284.794 133.568 282.914L117.934 247.464C115.751 246.406 113.562 245.36 111.424 244.126C109.294 242.896 107.294 241.526 105.288 240.1600000000001L66.768 244.35A125.684 125.684 0 0 1 40.345 198.554L63.157 167.394C62.779 162.52 62.854 157.611 63.225 152.697L40.34 121.44A126.272 126.272 0 0 1 51.128 97.143A126.183 126.183 0 0 1 66.774 75.651L105.288 79.841C109.358 77.071 113.574 74.551 117.978 72.435L133.562 37.105A125.54 125.54 0 0 1 186.432 37.088L202.059 72.538C204.247 73.595 206.436 74.641 208.567 75.875C210.704 77.105 212.704 78.475 214.71 79.841L253.2300000000001 75.651A125.59 125.59 0 0 1 279.648 121.447L256.8420000000001 152.607C257.2190000000001 157.481 257.1390000000001 162.39 256.7740000000001 167.304L279.6540000000001 198.561A125.896 125.896 0 0 1 268.8710000000001 222.858A126.21 126.21 0 0 1 253.2210000000001 244.35L214.7110000000001 240.1600000000001C210.638 242.93 206.4260000000001 245.45 202.0150000000001 247.5660000000001L186.4380000000001 282.896A125.79 125.79 0 0 1 159.9520000000001 285.7200000000001M159.9520000000001 262.863C163.4840000000001 262.863 167.0160000000001 262.68 170.5360000000001 262.313L181.1010000000001 238.343A22.88 22.88 0 0 1 192.1460000000001 226.949C195.2260000000001 225.473 198.3980000000001 223.616 201.8430000000001 221.269A22.854 22.854 0 0 1 214.7130000000001 217.302C215.5350000000001 217.302 216.3580000000001 217.342 217.1800000000001 217.432L243.3400000000001 220.279A103.55 103.55 0 0 0 249.0770000000001 211.429A102.933 102.933 0 0 0 253.8710000000001 202.033L238.3290000000001 180.805A22.867 22.867 0 0 1 233.9790000000001 165.599C234.2890000000001 161.439 234.3190000000001 157.765 234.0550000000001 154.365A22.86 22.86 0 0 1 238.3980000000001 139.102L253.8830000000001 117.952A101.64 101.64 0 0 0 243.3630000000001 99.719L217.18 102.565A22.33 22.33 0 0 1 214.71 102.695C210.1400000000001 102.695 205.648 101.325 201.8420000000001 98.73L201.597 98.566C199.911 97.416 198.454 96.423 197.1390000000001 95.669C195.829 94.909 194.2410000000001 94.142 192.4010000000001 93.256L192.1330000000001 93.13A22.883 22.883 0 0 1 181.143 81.76L170.5270000000001 57.674A102.395 102.395 0 0 0 149.4640000000001 57.684L138.8940000000001 81.657A22.868 22.868 0 0 1 127.8540000000001 93.051C124.7740000000001 94.527 121.6010000000001 96.384 118.1560000000001 98.731A22.867 22.867 0 0 1 105.2860000000001 102.698C104.4640000000001 102.698 103.6360000000001 102.658 102.8130000000001 102.568L76.66 99.72A102.184 102.184 0 0 0 66.128 117.966L81.665 139.194A22.87 22.87 0 0 1 86.02 154.4C85.705 158.56 85.682 162.234 85.945 165.634A22.86 22.86 0 0 1 81.602 180.897L66.117 202.047A101.64 101.64 0 0 0 76.637 220.28L102.814 217.434C103.642 217.344 104.464 217.304 105.288 217.304C109.858 217.304 114.345 218.674 118.158 221.269L118.402 221.4330000000001C120.088 222.583 121.545 223.576 122.854 224.3300000000001C124.168 225.09 125.757 225.8570000000001 127.597 226.7430000000001L127.859 226.8690000000001A22.883 22.883 0 0 1 138.847 238.2390000000001L149.47 262.3250000000001C152.95 262.6790000000001 156.454 262.862 159.95 262.862M160 211.43C131.595 211.43 108.572 188.406 108.572 160S131.595 108.57 160 108.57C188.406 108.57 211.43 131.594 211.43 160S188.406 211.43 160 211.43M160 188.57C175.755 188.57 188.572 175.754 188.572 160S175.755 131.43 160 131.43C144.246 131.43 131.43 144.246 131.43 160S144.246 188.57 160 188.57" />
    <glyph glyph-name="compass"
      unicode="&#xEA19;"
      horiz-adv-x="320" d=" M159.714 286C90.286 286 34 229.714 34 160.286C34 90.856 90.286 34.571 159.714 34.571C229.144 34.571 285.429 90.858 285.429 160.287C285.43 229.714 229.142 286 159.713 286M159.713 263.1430000000001C216.428 263.1430000000001 262.57 217 262.57 160.286C262.57 103.571 216.43 57.429 159.714 57.429C103 57.429 56.857 103.569 56.857 160.285C56.857 217 103 263.1430000000001 159.714 263.1430000000001M176.857 160.286C176.857 150.816 169.183 143.143 159.714 143.143C150.246 143.143 142.571 150.817 142.571 160.286C142.571 169.754 150.247 177.429 159.715 177.429C169.185 177.429 176.858 169.753 176.858 160.285M216.678 228.855C215.615 228.855 214.541 228.708 213.488 228.41L131.078 204.863A23.212 23.212 0 0 1 115.136 188.92L91.594 106.51C90.434 102.457 91.564 98.097 94.542 95.114A11.62 11.62 0 0 1 105.942 92.16L188.354 115.71A23.212 23.212 0 0 1 204.296 131.65L227.839 214.063A11.608 11.608 0 0 1 216.679 228.857M200.296 200.869L182.314 137.929C182.284 137.809 182.194 137.719 182.074 137.685L119.131 119.702L137.113 182.639A0.355 0.355 0 0 0 137.359 182.885L200.295 200.868" />
    <glyph glyph-name="computer"
      unicode="&#xEA1A;"
      horiz-adv-x="321" d=" M284.444 114.053V276.223C284.444 286.443 277.156 294 266.738 294H49.973C39.591 294 35.556 286.444 35.556 276.222V114.052L0 62.89V45.11C0 35.28 7.947 27.333 17.778 27.333H302.2220000000001C312.052 27.333 320.0000000000001 35.28 320.0000000000001 45.111V62.8910000000001L284.4440000000001 114.0540000000001zM248.889 116.223H71.11V258.442H248.89V116.222zM195.555 62.889H124.443V80.666H195.555V62.888zM97.777 151.777H222.221C227.128 151.777 231.111 155.759 231.111 160.667V178.4430000000001C231.111 183.3500000000001 227.128 187.333 222.221 187.333H97.778C92.871 187.333 88.888 183.35 88.888 178.4430000000001V160.6660000000001C88.888 155.7590000000001 92.871 151.7760000000001 97.778 151.7760000000001zM97.777 205.11H222.221C227.128 205.11 231.111 209.093 231.111 214V231.778C231.111 236.6840000000001 227.128 240.668 222.221 240.668H97.778C92.871 240.668 88.888 236.6840000000001 88.888 231.778V214C88.888 209.093 92.871 205.11 97.778 205.11z" />
    <glyph glyph-name="crown"
      unicode="&#xEA1B;"
      horiz-adv-x="320" d=" M159.998 280C155.775 280 151.873 277.583 149.735 273.646L110.485 201.246L66.593 256.016C64.278 258.909 60.97 260.456 57.598 260.456C55.89 260.456 54.164 260.063 52.548 259.24C47.724 256.794 44.998 251.19 45.873 245.514L67.615 104.09C70.261 86.89 84.038 74.286 100.187 74.286H219.81C235.958 74.286 249.735 86.896 252.375 104.091L274.118 245.6C274.993 251.28 272.261 256.886 267.438 259.33A11.15 11.15 0 0 1 262.393 260.543C259.021 260.543 255.707 258.989 253.393 256.097L209.513 201.234L170.261 273.646C168.125 277.583 164.22 280 160 280M160 244.617L205.846 160.047L245.463 209.583L229.79 107.566C228.876 101.623 224.59 97.143 219.813 97.143H100.187C95.41 97.143 91.124 101.623 90.21 107.566L74.524 209.566L114.17 160.091L159.998 244.618M239.998 40.001H79.998C73.69 40.001 68.57 45.121 68.57 51.431C68.57 57.7380000000001 73.69 62.8580000000001 79.998 62.8580000000001H239.998C246.308 62.8580000000001 251.428 57.7380000000001 251.428 51.4300000000001C251.428 45.1200000000001 246.308 40.0000000000001 239.998 40.0000000000001M159.998 199.9730000000001V159.9790000000001H137.148L137.141 159.9660000000001L160 119.973L182.857 159.967L160 199.973z" />
    <glyph glyph-name="ellipsis-vertical"
      unicode="&#xEA1C;"
      horiz-adv-x="320" d=" M159.998 274.49C144.221 274.49 131.428 261.695 131.428 245.918S144.221 217.346 159.998 217.346C175.775 217.346 188.57 230.141 188.57 245.918S175.775 274.488 159.998 274.488M159.998 251.632A5.724 5.724 0 0 0 165.713 245.918A5.724 5.724 0 0 0 159.998 240.203A5.724 5.724 0 0 0 154.284 245.918A5.724 5.724 0 0 0 159.998 251.632M159.998 188.572C144.221 188.572 131.428 175.777 131.428 160S144.221 131.43 159.998 131.43C175.775 131.43 188.57 144.223 188.57 160C188.57 175.777 175.775 188.57 159.998 188.57M159.998 165.714A5.724 5.724 0 0 0 165.713 160A5.724 5.724 0 0 0 159.998 154.286A5.724 5.724 0 0 0 154.284 160A5.724 5.724 0 0 0 159.998 165.714M159.998 102.856C144.221 102.856 131.428 90.062 131.428 74.286C131.428 58.506 144.221 45.713 159.998 45.713C175.775 45.713 188.57 58.507 188.57 74.285C188.57 90.062 175.775 102.855 159.998 102.855M159.998 79.999A5.724 5.724 0 0 0 165.713 74.284A5.724 5.724 0 0 0 159.998 68.569A5.724 5.724 0 0 0 154.284 74.284A5.724 5.724 0 0 0 159.998 79.998" />
    <glyph glyph-name="ellipsis"
      unicode="&#xEA1D;"
      horiz-adv-x="320" d=" M274.386 160.1C274.386 175.878 261.5920000000001 188.673 245.8160000000001 188.673C230.0380000000001 188.673 217.243 175.878 217.243 160.101C217.243 144.325 230.038 131.531 245.8150000000001 131.531S274.3850000000001 144.325 274.3850000000001 160.101M251.5290000000001 160.101A5.724 5.724 0 0 0 245.8140000000001 154.388A5.724 5.724 0 0 0 240.1000000000001 160.102A5.724 5.724 0 0 0 245.8150000000001 165.817A5.724 5.724 0 0 0 251.5290000000001 160.103M188.4690000000001 160.103C188.4690000000001 175.881 175.6730000000001 188.676 159.8960000000001 188.676C144.1190000000001 188.676 131.3260000000001 175.881 131.3260000000001 160.104C131.3260000000001 144.328 144.1190000000001 131.534 159.8960000000001 131.534C175.673 131.534 188.4680000000001 144.328 188.4680000000001 160.104M165.6080000000001 160.104A5.724 5.724 0 0 0 159.8950000000001 154.391A5.724 5.724 0 0 0 154.1810000000001 160.105A5.724 5.724 0 0 0 159.8950000000001 165.82A5.724 5.724 0 0 0 165.6090000000001 160.106M102.7520000000001 160.106C102.7520000000001 175.884 89.9580000000001 188.679 74.1820000000001 188.679C58.4040000000001 188.679 45.6090000000001 175.8840000000001 45.6090000000001 160.107C45.6090000000001 144.331 58.4040000000001 131.537 74.1810000000001 131.537S102.7510000000001 144.3310000000001 102.7510000000001 160.107M79.8950000000001 160.107A5.724 5.724 0 0 0 74.1810000000001 154.394A5.724 5.724 0 0 0 68.4660000000001 160.108A5.724 5.724 0 0 0 74.1810000000001 165.823A5.724 5.724 0 0 0 79.8950000000001 160.109" />
    <glyph glyph-name="emoji&face"
      unicode="&#xEA1E;"
      horiz-adv-x="320" d=" M159.714 286C90.286 286 34 229.714 34 160.286C34 90.856 90.286 34.571 159.714 34.571C229.144 34.571 285.429 90.858 285.429 160.287C285.43 229.714 229.142 286 159.713 286M159.713 263.1430000000001C216.428 263.1430000000001 262.57 217 262.57 160.286C262.57 103.571 216.43 57.429 159.714 57.429C103 57.429 56.857 103.569 56.857 160.285C56.857 217 103 263.1430000000001 159.714 263.1430000000001M132.037 183.149C132.037 173.679 124.362 166.005 114.894 166.005C105.424 166.005 97.751 173.68 97.751 183.148S105.426 200.29 114.895 200.29C124.363 200.29 132.038 192.616 132.038 183.147M159.715 84.435C132.225 84.435 107.875 100.96 97.675 126.525C95.332 132.395 98.19 139.04 104.052 141.378C109.912 143.71 116.568 140.864 118.899 135.001C125.619 118.167 141.636 107.293 159.716 107.293C177.796 107.293 193.819 118.167 200.533 135.001C202.873 140.859 209.506 143.733 215.38 141.379C221.243 139.042 224.1 132.397 221.757 126.529C211.5570000000001 100.962 187.209 84.437 159.7170000000001 84.437M192.1450000000001 164.071C189.6750000000001 164.071 187.1950000000001 164.8650000000001 185.1050000000001 166.505C180.1330000000001 170.397 179.2590000000001 177.58 183.1550000000001 182.545C184.4190000000001 184.168 196.1330000000001 198.477 216.3330000000001 201.945A11.404 11.404 0 0 0 229.5330000000001 192.615C230.6030000000001 186.397 226.4250000000001 180.488 220.2080000000001 179.42C208.6300000000001 177.426 201.2180000000001 168.54 201.1450000000001 168.455A11.396 11.396 0 0 0 192.1450000000001 164.072" />
    <glyph glyph-name="eye-slash"
      unicode="&#xEA1F;"
      horiz-adv-x="320" d=" M154.342 149.494C152.474 149.002 150.548 148.654 148.519 148.654C145.176 148.654 142.027 149.408 139.164 150.699C142.736 142.727 150.714 137.139 159.998 137.139C162.026 137.139 163.963 137.493 165.843 137.989L183.186 120.647C176.38 116.63 168.472 114.281 159.996 114.281C134.752 114.281 114.283 134.751 114.283 159.996C114.283 168.47 116.633 176.378 120.649 183.184L154.341 149.494zM199.348 136.814V136.808L182.005 154.158L170.519 165.638L136.809 199.345L102.673 233.488L87.267 248.888C82.81 253.358 75.564 253.358 71.107 248.894C66.637 244.431 66.637 237.191 71.107 232.728L81.885 221.95C63.577 209.642 48.382 193.174 37.782 173.87C33.114 165.368 33.119 154.614 37.788 146.11C61.278 103.345 107.182 74.282 159.998 74.282C180.451 74.282 199.845 78.682 217.325 86.512L232.731 71.105A11.393 11.393 0 0 1 240.811 67.757C243.738 67.757 246.663 68.871 248.891 71.105C253.361 75.568 253.361 82.802 248.891 87.265L238.115 98.042L199.349 136.814zM159.998 245.714C148.542 245.714 137.434 244.284 126.788 241.694L162.918 205.564C185.828 204.114 204.114 185.827 205.565 162.918L256.057 112.428C266.439 122.221 275.307 133.553 282.211 146.113C286.875 154.61 286.8810000000001 165.375 282.218 173.873C258.726 216.65 212.818 245.713 160 245.713" />
    <glyph glyph-name="eye-solid"
      unicode="&#xEA20;"
      horiz-adv-x="320" d=" M169.373 180.794C170.641 177.954 171.378 174.824 171.378 171.509C171.378 158.885 161.144 148.649 148.521 148.649C145.179 148.649 142.025 149.409 139.168 150.702C142.738 142.73 150.716 137.142 160.002 137.142C172.602 137.142 182.86 147.392 182.86 159.999C182.86 169.256 177.306 177.205 169.375 180.793M160 114.285C134.755 114.285 114.286 134.753 114.286 159.999S134.756 205.713 160 205.713C185.246 205.713 205.715 185.245 205.715 159.999S185.245 114.285 160 114.285M282.217 173.873C258.727 216.65 212.823 245.713 160 245.713C107.183 245.713 61.275 216.65 37.783 173.873C33.116 165.37 33.121 154.616 37.796 146.113C61.281 103.343 107.19 74.285 160.001 74.285C212.818 74.285 258.721 103.342 282.213 146.113C286.8810000000001 154.61 286.887 165.376 282.218 173.873" />
    <glyph glyph-name="eye"
      unicode="&#xEA21;"
      horiz-adv-x="320" d=" M262.176 157.118C241.856 120.124 202.706 97.141 159.999 97.141C117.295 97.141 78.141 120.125 57.821 157.119C56.924 158.765 56.918 161.234 57.815 162.874C78.135 199.874 117.289 222.856 159.998 222.856C202.705 222.856 241.86 199.874 262.18 162.874C263.077 161.234 263.077 158.764 262.1740000000001 157.119M282.2140000000001 173.874C258.7240000000001 216.651 212.8200000000001 245.714 159.9970000000001 245.714C107.1790000000001 245.714 61.2700000000001 216.651 37.7790000000001 173.874C33.1090000000001 165.371 33.1160000000001 154.616 37.7840000000001 146.114C61.2760000000001 103.348 107.1840000000001 74.284 159.9960000000001 74.284C212.8120000000001 74.284 258.7160000000001 103.348 282.2060000000001 146.114C286.8760000000001 154.611 286.8810000000001 165.376 282.2120000000001 173.874M159.994 137.144C150.709 137.144 142.731 142.732 139.16 150.698C142.023 149.412 145.17 148.652 148.514 148.652C161.144 148.652 171.371 158.888 171.371 171.512C171.371 174.825 170.634 177.956 169.366 180.796C177.296 177.208 182.851 169.259 182.851 160.002C182.851 147.396 172.601 137.145 159.994 137.145M159.994 205.715C134.749 205.715 114.28 185.248 114.28 160.002C114.28 134.756 134.75 114.288 159.994 114.288C185.24 114.288 205.709 134.756 205.709 160.002S185.239 205.716 159.994 205.716" />
    <glyph glyph-name="feedback"
      unicode="&#xEA22;"
      horiz-adv-x="319" d=" M238.998 179.6L158.998 133.314L78.998 179.6V251.43C78.998 257.714 84.141 262.8570000000001 90.428 262.8570000000001H227.57C233.855 262.8570000000001 238.998 257.714 238.998 251.429V179.599zM67.57 61.257C61.398 61.257 56.14 66.514 56.14 72.687V166.457L237.855 61.257H67.57zM270.713 207.77L261.855 214.286V251.43C261.855 270.286 246.427 285.714 227.57 285.714H90.427C71.57 285.714 56.141 270.286 56.141 251.429V214.285L47.285 207.77A34.32 34.32 0 0 1 33.285 180.114V72.686C33.285 53.829 48.715 38.4 67.571 38.4H250.428C269.285 38.4 284.714 53.83 284.714 72.686V180.114C284.714 191.029 279.514 201.314 270.714 207.771z M204.713 240H113.283C106.975 240 101.855 234.88 101.855 228.57C101.855 222.263 106.975 217.143 113.285 217.143H204.713C211.021 217.143 216.141 222.263 216.141 228.571C216.141 234.881 211.021 240.001 204.714 240.001M158.998 194.286H113.284C106.974 194.286 101.854 189.166 101.854 182.856C101.854 176.549 106.974 171.429 113.284 171.429H158.998C165.308 171.429 170.428 176.549 170.428 182.856C170.428 189.166 165.308 194.286 158.998 194.286" />
    <glyph glyph-name="horn"
      unicode="&#xEA23;"
      horiz-adv-x="320" d=" M282.5 300C272.822 300 265 292.177 265 282.5V279.157L33.825 229.615A17.494 17.494 0 0 1 20 212.5V142.5C20 134.257 25.758 127.135 33.825 125.403L72.5 117.107V72.5C72.5 65.343 76.858 58.92 83.507 56.26L171.007 21.26C173.09 20.42 175.295 20 177.5 20C180.947 20 184.377 21.033 187.3 23.01C192.113 26.283 195 31.69 195 37.5V90.857L265 75.86V72.5C265 62.84 272.822 55 282.5 55S300 62.84 300 72.5V282.5C300 292.177 292.178 300 282.5 300zM160 63.348L107.5 84.348V109.618L160 98.365V63.348zM55 156.658V198.36L265 243.353V111.665L55 156.658z" />
    <glyph glyph-name="idea&lamp-bulb-lean"
      unicode="&#xEA24;"
      horiz-adv-x="320" d=" M179.767 110.77C163.933 111.696 148.037 107.244 135.007 98.233L117.293 85.987L85.179 118.097L97.429 135.817C106.435 148.839 110.886 164.737 109.959 180.577C108.726 201.741 116.583 222.45 131.519 237.387C160.486 266.347 207.612 266.347 236.579 237.387C265.543 208.421 265.543 161.297 236.579 132.33C221.639 117.393 200.932 109.536 179.766 110.77M88.9 73.54L72.74 89.707A5.708 5.708 0 0 0 72.74 97.787C74.967 100.021 78.584 100.017 80.82 97.787L96.98 81.621A5.708 5.708 0 0 0 96.98 73.541A5.708 5.708 0 0 0 88.9 73.541M72.74 57.381L56.573 73.541C54.343 75.777 54.339 79.394 56.573 81.621A5.708 5.708 0 0 0 64.653 81.621L80.819 65.461A5.708 5.708 0 0 0 80.819 57.381A5.708 5.708 0 0 0 72.739 57.381M252.739 253.548C214.799 291.485 153.299 291.485 115.359 253.548C94.959 233.148 85.583 205.942 87.143 179.245A48.562 48.562 0 0 0 78.629 148.817L63.909 127.525C60.132 122.068 58.955 115.531 60.075 109.371L44.663 93.961C35.778 85.074 35.778 70.525 44.663 61.634L60.829 45.474C69.715 36.582 84.263 36.582 93.149 45.474L108.566 60.884C114.726 59.764 121.258 60.942 126.72 64.714L148.007 79.434C156.933 85.604 167.601 88.582 178.437 87.954C205.133 86.394 232.339 95.764 252.7390000000001 116.1640000000001C290.675 154.102 290.675 215.6110000000001 252.7390000000001 253.5480000000001M130.1590000000001 176.678A11.393 11.393 0 0 0 126.8090000000001 184.7580000000001C126.8090000000001 200.0210000000001 132.7530000000001 214.376 143.5470000000001 225.1700000000001C153.84 235.46 167.52 241.39 182.063 241.87C188.365 242.075 193.651 237.133 193.857 230.824C194.067 224.514 189.12 219.234 182.811 219.024A34.148 34.148 0 0 1 159.709 209.001C153.235 202.527 149.669 193.915 149.669 184.761C149.669 178.447 144.555 173.327 138.246 173.327C135.086 173.327 132.229 174.607 130.161 176.674" />
    <glyph glyph-name="jianliao"
      unicode="&#xEA25;"
      horiz-adv-x="321" d=" M163.137 319.893C162.497 320 161.857 320 161.11 320H107.67C95.94 320 86.34 310.4 86.34 298.6670000000001V234.667H22.34C10.606 234.667 1.007 225.067 1.007 213.333V160C1.007 159.253 1.007 158.507 1.113 157.867C1.327 132.693 7.513 109.013 18.18 88L1.753 26.88A21.036 21.036 0 0 1 7.3 6.293C11.353 2.24 16.793 0 22.34 0C24.153 0 26.073 0.213 27.886 0.747L89.006 17.173C110.657 6.187 135.083 0 161.002 0C216.895 0 266.1720000000001 28.8 294.76 72.32C311.4 97.493 321 127.573 321 160V160.107C320.893 247.573 250.388 318.827 163.137 319.8930000000001zM52.527 51.52L63.939 94.08C51.14 112.853 43.67 135.573 43.67 160V192H86.335V160C86.335 159.253 86.335 158.507 86.442 157.76C86.442 157.547 86.442 157.227 86.549 157.013C86.442 156.8 86.549 156.693 86.549 156.48C86.549 154.773 86.655 153.173 86.869 151.573C86.975 150.187 87.189 148.8 87.509 147.52C87.615 146.24 87.829 145.067 88.149 143.787C88.362 143.04 88.469 142.293 88.682 141.44C88.789 141.12 88.789 140.907 88.895 140.587C89.002 140.373 89.002 140.053 89.108 139.84C89.428 138.56 89.856 137.387 90.283 136.107C90.923 134.293 91.563 132.4799999999999 92.309 130.773A36.154 36.154 0 0 1 94.229 126.613C94.657 125.6529999999999 95.189 124.8 95.617 123.947C96.15 122.88 96.79 121.92 97.537 120.853C98.07 119.68 98.817 118.613 99.67 117.44C100.845 115.733 102.125 114.0269999999999 103.51 112.4269999999999C103.618 112.3199999999999 103.618 112.3199999999999 103.618 112.2129999999999C104.471 111.2529999999999 105.324 110.293 106.284 109.3329999999999C106.498 109.013 106.818 108.8 107.138 108.4799999999999C107.884 107.6269999999999 108.524 106.8799999999999 109.378 106.1329999999999L109.484 106.0269999999999C110.764 104.7469999999999 112.151 103.5729999999999 113.538 102.3999999999999C114.604 101.4399999999999 115.778 100.5869999999999 116.951 99.8399999999999C117.485 99.4129999999999 118.019 98.9869999999999 118.551 98.6669999999999C118.979 98.3469999999999 119.405 98.0269999999999 119.939 97.7069999999999C121.859 96.3199999999999 123.885 95.1469999999999 126.019 94.0799999999999C126.339 93.8669999999999 126.765 93.6529999999999 127.085 93.5469999999999C128.578 92.6929999999999 130.072 91.9469999999999 131.672 91.3069999999999C133.806 90.3469999999999 136.046 89.5999999999999 138.392 88.8529999999999C138.819 88.7469999999999 139.139 88.6399999999999 139.459 88.5329999999999C139.886 88.3199999999999 140.312 88.3199999999999 140.632 88.2129999999999C142.019 87.7869999999999 143.512 87.3599999999999 145.006 87.0399999999999C145.752 86.9329999999999 146.499 86.7199999999999 147.139 86.6129999999999C149.166 86.1869999999999 151.299 85.9729999999999 153.432 85.7599999999999C155.885 85.4399999999999 158.445 85.3329999999999 161.005 85.3329999999999C202.178 85.3329999999999 235.67 118.8269999999999 235.67 159.9999999999999C235.67 162.5599999999999 235.564 165.1199999999999 235.2440000000001 167.5729999999999C235.2440000000001 167.8929999999999 235.2440000000001 168.3199999999999 235.1370000000001 168.6399999999999A59.973 59.973 0 0 1 234.177 174.72C234.07 175.573 233.8570000000001 176.3199999999999 233.6440000000001 177.067C233.4300000000001 178.24 233.1100000000001 179.413 232.7910000000001 180.587C232.576 181.44 232.2560000000001 182.293 232.0430000000001 183.147C231.9360000000001 183.253 231.9360000000001 183.253 231.9360000000001 183.36A29.224 29.224 0 0 1 230.3360000000001 187.627C230.3360000000001 187.733 230.2300000000001 187.733 230.2300000000001 187.84A48.915 48.915 0 0 1 228.4150000000001 192L228.0950000000001 192.6399999999999C228.0950000000001 192.7469999999999 227.9890000000001 192.8529999999999 227.9890000000001 192.9599999999999C227.7740000000001 193.2799999999999 227.6690000000001 193.5999999999999 227.4540000000001 193.9199999999999A50.7 50.7 0 0 1 225.6410000000001 197.2269999999999A3.194 3.194 0 0 1 225.2140000000001 198.0799999999999C225.1080000000001 198.1869999999999 225.1080000000001 198.2929999999999 225.0010000000001 198.3999999999999C224.8940000000001 198.6129999999999 224.6810000000001 198.8269999999999 224.5740000000001 199.0399999999999C223.8280000000001 200.4269999999999 222.9740000000001 201.5999999999999 222.1210000000001 202.8799999999999C222.0140000000001 202.8799999999999 222.0140000000001 202.9869999999999 222.0140000000001 202.9869999999999A72.372 72.372 0 0 1 203.9880000000001 221.0129999999999S203.8800000000001 221.0129999999999 203.8800000000001 221.1199999999999C202.6000000000001 221.9729999999999 201.4270000000001 222.8269999999999 200.0400000000001 223.5729999999999C199.8270000000001 223.6799999999999 199.6140000000001 223.8929999999999 199.4000000000001 223.9999999999999C199.2940000000001 224.1069999999999 199.1870000000001 224.1069999999999 199.0800000000001 224.2129999999999A3.194 3.194 0 0 1 198.2270000000001 224.6399999999999A50.7 50.7 0 0 1 194.9200000000001 226.4529999999999C194.6000000000001 226.6669999999999 194.2800000000001 226.7729999999999 193.9600000000001 226.9869999999999C193.8530000000001 226.9869999999999 193.7460000000001 227.0929999999999 193.6400000000001 227.0929999999999H193.5330000000001C193.4260000000001 227.2 193.4260000000001 227.2 193.3200000000001 227.2C191.2930000000001 228.2669999999999 189.1600000000001 229.2269999999999 186.9200000000001 229.9729999999999C186.6000000000001 230.08 186.2800000000001 230.2929999999999 185.9600000000001 230.2929999999999C183.8270000000001 231.1469999999999 181.6930000000001 231.7869999999999 179.4530000000001 232.3199999999999C179.2400000000001 232.4269999999999 178.9200000000001 232.4269999999999 178.7070000000001 232.5329999999999C178.3870000000001 232.6399999999999 178.1730000000001 232.6399999999999 177.8530000000001 232.7469999999999C177.6400000000001 232.7469999999999 177.4270000000001 232.8529999999999 177.2130000000001 232.8529999999999C176.5730000000001 233.0669999999999 175.8270000000001 233.0669999999999 175.1870000000001 233.2799999999999C174.9730000000001 233.3869999999999 174.6530000000001 233.3869999999999 174.4400000000001 233.3869999999999C174.2270000000001 233.3869999999999 174.1200000000001 233.4929999999999 173.9070000000001 233.4929999999999A28.783 28.783 0 0 1 169.5330000000001 234.1329999999999C169.2130000000001 234.1329999999999 168.7870000000001 234.2399999999999 168.4670000000001 234.2399999999999C166.8670000000001 234.4529999999999 165.1600000000001 234.5599999999999 163.3470000000001 234.5599999999999H163.2400000000001C162.4940000000001 234.6669999999999 161.7470000000001 234.6669999999999 161.0000000000001 234.6669999999999H129.0000000000001V277.333H161.0000000000001C182.3330000000001 277.333 202.1730000000001 271.68 219.3460000000001 261.76A117.72 117.72 0 0 0 262.7560000000001 218.347C272.6760000000001 201.173 278.3300000000001 181.333 278.3300000000001 160C278.3300000000001 154.453 277.9040000000001 149.013 277.1570000000001 143.573C275.4510000000001 131.307 271.8250000000001 119.573 266.7050000000001 108.8C247.6120000000001 69.653 207.3990000000001 42.667 161.0000000000001 42.667C136.5740000000001 42.667 113.8550000000001 50.133 95.0820000000001 62.9330000000001L52.5220000000001 51.52zM161.002 192C178.602 192 193.002 177.6 193.002 160S178.602 128 161.002 128S129.002 142.4 129.002 160V192H161.002z" />
    <glyph glyph-name="ladder"
      unicode="&#xEA26;"
      horiz-adv-x="320" d=" M148.01 261H266.082C279.082 261 289.67 250.43 289.67 237.393V83.955C289.67 70.923 279.11 60.347 266.082 60.347H124.422V83.954H266.062V237.394H124.422C124.425 250.424 134.985 261 148.013 261z M230.65 261H124.424V178.378H207.104C220.141 178.378 230.652 189.774 230.652 202.811V261zM148.03 201.985H207.045V237.395H148.03V201.985z M183.438 201.985H77.21V119.363H161.196C174.232 119.363 183.438 130.505 183.438 143.547V201.985zM100.818 142.969H159.832V178.377H100.817V142.967z M30 142.97H136.228V60.347H53.575C40.555 60.347 30 70.895 30 83.913V142.97zM53.606 119.363H112.622V83.953H53.606V119.363z" />
    <glyph glyph-name="lamp-bulb"
      unicode="&#xEA27;"
      horiz-adv-x="320" d=" M48 207.06C48 178.09 58.95 151.755 76.82 131.765C92.325 116.198 99.375 96.055 102.338 84.518C103.631 79.492 108.431 75.294 113.625 75.294H207.375C212.55 75.294 217.369 79.492 218.662 84.518C221.625 96.056 228.675 116.198 244.182 131.765C262.05 151.755 273 178.09 273 207.06C273 269.42 222.62 320 160.5 320C98.362 320 48 269.42 48 207.06zM216.806 157.515C202.95 143.305 194.1 126.945 188.531 112.941H132.471C126.901 126.947 118.051 143.305 104.195 157.516C92.12 171.332 85.5 188.875 85.5 207.06C85.5 248.565 119.156 282.353 160.5 282.353S235.5 248.565 235.5 207.059C235.5 188.874 228.863 171.331 216.806 157.514zM123 18.825C123 8.415 131.38 0 141.75 0H179.25C189.62 0 198 8.414 198 18.824H207.375C212.55 18.824 216.75 23.04 216.75 28.234V47.06C216.75 52.254 212.55 56.47 207.375 56.47H113.625C108.431 56.47 104.25 52.254 104.25 47.06V28.235C104.25 23.04 108.43 18.825 113.625 18.825H123z" />
    <glyph glyph-name="life-belt"
      unicode="&#xEA28;"
      horiz-adv-x="320" d=" M159.998 285.714C90.57 285.714 34.284 229.43 34.284 160C34.284 90.57 90.57 34.286 159.998 34.286C229.428 34.286 285.713 90.571 285.713 160C285.713 229.43 229.427 285.714 159.998 285.714M159.998 262.857C216.713 262.857 262.855 216.714 262.855 160S216.713 57.143 159.998 57.143C103.284 57.143 57.14 103.286 57.14 160S103.285 262.857 160 262.857 M186.43 210.676L235.922 260.168C229.619 265.014 222.912 269.138 216.002 272.574L160.57 217.14C160.38 217.142 160.19 217.143 159.998 217.143C128.438 217.143 102.855 191.56 102.855 160C102.855 159.81 102.855 159.62 102.858 159.43L47.425 103.997C50.859 97.087 54.985 90.379 59.831 84.077L109.323 133.567A57.396 57.396 0 0 1 133.567 109.325L84.077 59.831C90.38 54.986 97.089 50.866 103.997 47.431L159.427 102.8610000000001C159.617 102.859 159.807 102.8580000000001 159.999 102.8580000000001C191.559 102.8580000000001 217.142 128.4410000000001 217.142 160.0010000000001C217.142 160.1910000000001 217.142 160.3830000000001 217.14 160.5740000000001L272.57 216.0040000000001C269.1359999999999 222.9120000000001 265.016 229.6200000000001 260.17 235.9240000000001L210.676 186.4340000000001A57.396 57.396 0 0 1 186.432 210.6770000000001zM159.998 194.286C178.901 194.286 194.284 178.903 194.284 160C194.284 141.097 178.901 125.714 159.998 125.714C141.095 125.714 125.713 141.097 125.713 160C125.713 178.903 141.095 194.286 159.998 194.286" />
    <glyph glyph-name="linux"
      unicode="&#xEA29;"
      horiz-adv-x="320" d=" M178.507 120.952C168.312 109.032 151.687 109.032 141.493 120.952L88.483 183.688C84.09 171.454 81.581 158.28 81.581 144.478C81.581 118.286 90.521 94.604 105.108 77.508C128.633 75.94 148.865 66.686 156.551 50.375H163.451C171.137 66.059 190.584 74.842 214.267 76.567C229.167 93.663 238.42 117.817 238.42 144.477C238.42 158.28 235.91 171.454 231.518 183.687L178.508 120.952zM285.4700000000001 22.93C285.4700000000001 14.302 274.492 3.324 265.8660000000001 3.324H179.6060000000001C170.9790000000001 3.324 160.0000000000001 14.302 160.0000000000001 22.929C160.0000000000001 14.301 149.0200000000001 3.323 140.3950000000001 3.323H54.1350000000001C45.5080000000001 3.323 34.5300000000001 14.301 34.5300000000001 22.9280000000001C34.5300000000001 43.316 49.2720000000001 61.1950000000001 70.6020000000001 71.5460000000001C58.0550000000001 92.092 50.2120000000001 117.3430000000001 50.2120000000001 144.4760000000001C34.5300000000001 113.1080000000001 14.1420000000001 104.3260000000001 4.5720000000001 113.1080000000001C-4.6799999999999 121.8910000000001 -0.1319999999999 147.1420000000001 20.4140000000001 169.4130000000001C32.0200000000001 182.1170000000001 50.2140000000001 197.4870000000001 62.9170000000001 203.2900000000001C67.9370000000001 214.1120000000001 74.3670000000001 223.9930000000001 81.5810000000001 232.6200000000001V238.5800000000001C81.58 281.89 116.69 317 160 317S238.42 281.89 238.42 238.58V232.62C245.634 223.995 252.064 214.114 257.0830000000001 203.292C269.7870000000001 197.489 287.98 182.119 299.586 169.415C320.132 147.145 324.68 121.893 315.426 113.11C305.859 104.328 285.47 113.11 269.786 144.478C269.786 117.031 261.9460000000001 91.624 248.926 70.921C270.571 60.884 285.47 43.475 285.47 22.931zM126.75 207.212C120.163 199.37 120.163 187.294 126.75 179.766L146.355 156.24C152.785 148.713 163.295 148.713 169.881 156.24L189.487 179.767C195.917 187.295 195.917 199.371 189.487 207.213H126.75zM128.632 266.027C120.006 266.027 112.949 255.832 112.949 238.58C112.949 221.33 120.005 211.134 128.631 211.134C137.257 211.134 144.315 221.329 144.315 238.581C144.315 255.834 137.257 266.029 128.631 266.029zM191.368 266.027C182.742 266.027 175.684 255.832 175.684 238.58C175.684 221.33 182.742 211.134 191.368 211.134S207.05 221.33 207.05 238.58C207.05 255.833 199.994 266.028 191.368 266.028z" />
    <glyph glyph-name="lock-solid"
      unicode="&#xEA2A;"
      horiz-adv-x="320" d=" M171.427 126.026V105.718C171.427 99.403 166.307 94.288 159.997 94.288C153.69 94.288 148.57 99.403 148.57 105.718V126.026C141.764 129.986 137.14 137.272 137.14 145.712C137.14 158.335 147.375 168.569 159.998 168.569C172.621 168.569 182.855 158.334 182.855 145.711C182.855 137.271 178.233 129.985 171.427 126.025zM131.427 234.283C131.427 250.038 144.244 262.855 159.997 262.855C175.753 262.855 188.57 250.038 188.57 234.283V228.569H131.427V234.282zM222.855 228.569H211.427V234.282C211.427 262.568 188.284 285.712 159.997 285.712C131.713 285.712 108.57 262.568 108.57 234.282V228.568H97.14C78.284 228.568 62.855 213.138 62.855 194.281V68.57C62.855 49.712 78.285 34.283 97.141 34.283H222.856C241.714 34.283 257.142 49.713 257.142 68.569V194.282C257.142 213.14 241.715 228.568 222.857 228.568z" />
    <glyph glyph-name="lock"
      unicode="&#xEA2B;"
      horiz-adv-x="320" d=" M234.284 68.57C234.284 62.377 229.05 57.143 222.854 57.143H97.142C90.949 57.143 85.715 62.377 85.715 68.571V194.287C85.715 200.481 90.949 205.715 97.143 205.715H222.858C229.053 205.715 234.288 200.481 234.288 194.287V68.57zM131.427 234.287C131.427 250.041 144.244 262.8570000000001 159.997 262.8570000000001C175.753 262.8570000000001 188.57 250.041 188.57 234.287V228.572H131.427V234.288zM222.855 228.572H211.427V234.288C211.427 262.573 188.284 285.716 159.997 285.716C131.713 285.716 108.57 262.573 108.57 234.288V228.573H97.14C78.284 228.573 62.855 213.146 62.855 194.289V68.57C62.855 49.714 78.285 34.286 97.141 34.286H222.856C241.714 34.286 257.142 49.714 257.142 68.571V194.287C257.142 213.144 241.715 228.572 222.857 228.572z M159.998 168.57C147.375 168.57 137.141 158.336 137.141 145.713C137.141 137.273 141.765 129.987 148.571 126.027V105.719C148.571 99.404 153.691 94.289 159.999 94.289C166.309 94.289 171.429 99.404 171.429 105.719V126.026C178.234 129.986 182.856 137.272 182.856 145.712C182.856 158.335 172.622 168.569 159.999 168.569" />
    <glyph glyph-name="mail"
      unicode="&#xEA2C;"
      horiz-adv-x="319" d=" M56.14 72.7V166.448L237.816 61.27H67.57C61.375 61.27 56.14 66.505 56.14 72.7zM152.233 256.51A11.357 11.357 0 0 0 158.998 258.728C160.708 258.728 163.268 258.345 165.764 256.511L256.574 189.803L159 133.312L61.42 189.8L152.233 256.51zM270.723 207.774L179.295 274.934A34.245 34.245 0 0 1 158.998 281.584A34.245 34.245 0 0 1 138.701 274.934L47.274 207.774A34.28 34.28 0 0 1 33.284 180.144V72.7C33.284 53.842 48.714 38.414 67.571 38.414H250.428C269.285 38.414 284.714 53.842 284.714 72.699V180.144A34.28 34.28 0 0 1 270.724 207.774z" />
    <glyph glyph-name="markdown-inverse"
      unicode="&#xEA2D;"
      horiz-adv-x="320" d=" M228.57 108.57C228.57 102.263 223.45 97.143 217.14 97.143C210.833 97.143 205.713 102.263 205.713 108.571V185.515L167.707 150.812A11.428 11.428 0 0 0 152.29 150.812L114.284 185.516V108.573C114.284 102.266 109.164 97.146 102.854 97.146C96.547 97.146 91.427 102.266 91.427 108.574V211.43C91.427 215.954 94.101 220.057 98.244 221.886A11.434 11.434 0 0 0 110.564 219.869L159.998 174.725L209.433 219.868A11.45 11.45 0 0 0 221.753 221.884A11.434 11.434 0 0 0 228.57 211.427V108.567zM251.427 285.714H68.57C49.713 285.714 34.284 270.286 34.284 251.429V68.569C34.284 49.713 49.714 34.285 68.57 34.285H251.427C270.284 34.285 285.713 49.713 285.713 68.57V251.43C285.713 270.286 270.283 285.714 251.427 285.714z" />
    <glyph glyph-name="markdown"
      unicode="&#xEA2E;"
      horiz-adv-x="320" d=" M252.143 286H69.286C50.43 286 35 270.57 35 251.714V68.857C35 50 50.43 34.57 69.286 34.57H252.143C271 34.57 286.429 50 286.429 68.857V251.714C286.43 270.57 271 286 252.142 286M252.142 263.1430000000001C258.336 263.1430000000001 263.57 257.909 263.57 251.713V68.857C263.57 62.663 258.337 57.429 252.143 57.429H69.286C63.091 57.429 57.856 62.662 57.856 68.856V251.714C57.856 257.909 63.091 263.144 69.286 263.144H252.143M217.769 97.604C211.459 97.604 206.339 102.724 206.339 109.034V185.977L168.333 151.274A11.428 11.428 0 0 0 152.916 151.274L114.91 185.977V109.0340000000001C114.91 102.7240000000001 109.79 97.604 103.483 97.604C97.173 97.604 92.053 102.7240000000001 92.053 109.0340000000001V211.89C92.053 216.417 94.729 220.52 98.871 222.348A11.434 11.434 0 0 0 111.191 220.331L160.627 175.189L210.06 220.33A11.45 11.45 0 0 0 222.38 222.348A11.434 11.434 0 0 0 229.197 211.891V109.035C229.197 102.725 224.077 97.605 217.769 97.605" />
    <glyph glyph-name="member&user"
      unicode="&#xEA2F;"
      horiz-adv-x="320" d=" M159.998 252.082C144.244 252.082 131.428 238.996 131.428 222.916S144.244 193.75 159.998 193.75C175.753 193.75 188.57 206.836 188.57 222.916S175.753 252.082 159.998 252.082M159.998 170.892C131.644 170.892 108.57 194.23 108.57 222.916S131.644 274.939 159.998 274.939C188.358 274.939 211.428 251.601 211.428 222.915S188.358 170.892 159.998 170.892M160.255 147.918C121.735 147.918 85.455 139.153 53.615 123.695C41.809 117.965 34.283 105.958 34.283 92.833V79.347C34.283 60.41 49.633 45.061 68.569 45.061H251.425C270.362 45.061 285.711 60.4110000000001 285.711 79.348V93.074A34.32 34.32 0 0 1 266.294 123.9760000000001C234.602 139.2560000000001 198.54 147.9190000000001 160.254 147.9190000000001M160.254 125.0620000000001C193.722 125.0620000000001 226.957 117.5660000000001 256.368 103.3890000000001C260.31 101.4920000000001 262.853 97.4390000000001 262.853 93.0750000000001V79.3490000000001C262.853 73.0460000000001 257.727 67.9190000000001 251.423 67.9190000000001H68.57C62.266 67.9190000000001 57.14 73.0460000000001 57.14 79.3490000000001V92.8350000000001C57.14 97.1890000000001 59.678 101.2290000000001 63.598 103.1320000000001C93.152 117.4800000000001 126.575 125.0620000000001 160.255 125.0620000000001" />
    <glyph glyph-name="menu"
      unicode="&#xEA30;"
      horiz-adv-x="320" d=" M251.427 205.714H68.57C62.26 205.714 57.14 210.834 57.14 217.144C57.14 223.451 62.26 228.571 68.57 228.571H251.427C257.735 228.571 262.855 223.451 262.855 217.144C262.855 210.834 257.735 205.714 251.427 205.714M251.427 148.57H68.57C62.26 148.57 57.14 153.69 57.14 160S62.26 171.43 68.57 171.43H251.427C257.735 171.43 262.855 166.31 262.855 160S257.735 148.57 251.427 148.57M251.427 91.43H68.57C62.26 91.43 57.14 96.55 57.14 102.857C57.14 109.167 62.26 114.287 68.57 114.287H251.427C257.735 114.287 262.855 109.167 262.855 102.857C262.855 96.549 257.735 91.429 251.427 91.429" />
    <glyph glyph-name="mobile"
      unicode="&#xEA31;"
      horiz-adv-x="320" d=" M222.855 91.43C222.855 85.114 217.741 80 211.427 80H108.57C102.255 80 97.14 85.114 97.14 91.43V251.43C97.14 257.743 102.255 262.8570000000001 108.57 262.8570000000001H211.427C217.741 262.8570000000001 222.855 257.743 222.855 251.429V91.429zM182.855 51.43H137.14A5.713 5.713 0 0 0 131.427 57.143C131.427 60.3030000000001 133.987 62.857 137.141 62.857H182.856A5.71 5.71 0 0 0 188.571 57.143A5.71 5.71 0 0 0 182.856 51.429zM211.427 285.714H108.57C89.713 285.714 74.284 270.286 74.284 251.429V68.569C74.284 49.713 89.714 34.285 108.57 34.285H211.427C230.284 34.285 245.713 49.713 245.713 68.57V251.43C245.713 270.286 230.283 285.714 211.427 285.714z M159.998 121.518C144.524 121.518 129.638 125.775 116.935 133.832A5.72 5.72 0 0 0 115.175 141.722C116.867 144.386 120.398 145.186 123.061 143.489C133.925 136.591 146.696 132.945 159.999 132.945C173.296 132.945 186.069 136.591 196.936 143.488A5.727 5.727 0 0 0 204.828 141.721A5.72 5.72 0 0 0 203.062 133.831C190.36 125.773 175.475 121.516 160 121.516M136.11 198.975A11.377 11.377 0 0 0 137.137 194.285C137.137 187.975 132.023 182.855 125.709 182.855C123.616 182.855 121.685 183.461 119.999 184.438V177.141C119.999 170.834 125.113 165.714 131.429 165.714C137.736 165.714 142.856 170.834 142.856 177.142V188.572C142.856 193.212 140.079 197.189 136.108 198.977M193.33 198.975C193.975 197.541 194.398 195.965 194.398 194.285C194.398 187.975 189.221 182.855 182.913 182.855C180.821 182.855 177.141 183.461 177.141 184.438V177.141C177.141 170.834 182.261 165.714 188.571 165.714C194.885 165.714 199.999 170.834 199.999 177.142V188.572C199.999 193.212 197.302 197.189 193.331 198.977" />
    <glyph glyph-name="mute&bell-slash"
      unicode="&#xEA32;"
      horiz-adv-x="320" d=" M248.894 87.27L87.266 248.893C82.803 253.355 75.569 253.355 71.106 248.893C66.643 244.43 66.643 237.195 71.106 232.733L94.9 208.938L83.5 197.538A45.715 45.715 0 0 0 58.79 184.79L46.397 182.693C42.18 181.983 38.717 178.973 37.414 174.898A11.42 11.42 0 0 1 40.22 163.344L78.71 124.847C73.014 112.23 75.254 96.897 85.626 86.527C95.996 76.155 111.329 73.921 123.946 79.617L162.443 41.121A11.427 11.427 0 0 1 173.997 38.316A11.425 11.425 0 0 1 181.791 47.299L183.891 59.694A45.677 45.677 0 0 0 196.638 84.402L208.038 95.802L232.73 71.106C237.19 66.643 244.43 66.643 248.894 71.106C253.357 75.569 253.357 82.809 248.894 87.272zM186.986 107.075L106.174 187.887L111.06 192.773L191.87 111.961L186.986 107.076zM71.516 164.373C77.74 166.293 83.563 169.183 88.969 172.767L171.865 89.87C168.275 84.464 165.39 78.64 163.47 72.418L71.517 164.373zM182.736 240.683C198.062 240.683 212.41 234.769 223.142 224.043C233.867 213.313 239.782 198.963 239.782 183.633C239.782 168.815 234.21 154.946 224.147 144.341L240.319 128.171C262.986 151.701 268.359 185.959 256.426 214.593C262.524 215.97 268.336 218.953 273.084 223.696C286.472 237.09 286.472 258.793 273.084 272.186C266.386 278.879 257.609 282.226 248.838 282.226C240.065 282.226 231.288 278.879 224.591 272.186C220.071 267.662 217.208 262.159 215.741 256.382C205.277 261.097 194.021 263.542 182.734 263.542C162.694 263.542 142.694 256.062 127.277 241.212L143.437 225.052C154.042 235.114 167.91 240.685 182.733 240.685M248.84 259.37C250.605 259.37 254.01 258.935 256.92 256.02C261.3760000000001 251.563 261.3760000000001 244.318 256.92 239.86C254.01 236.946 250.605 236.512 248.84 236.512C247.073 236.512 243.667 236.946 240.76 239.862C237.845 242.769 237.41 246.175 237.41 247.942C237.41 249.706 237.845 253.112 240.76 256.022C243.673 258.935 247.073 259.369 248.84 259.369" />
    <glyph glyph-name="open-drawer"
      unicode="&#xEA33;"
      horiz-adv-x="320" d=" M291.25 310H28.75C18.38 310 10 301.62 10 291.25V28.75C10 18.38 18.38 10 28.75 10H291.25C301.62 10 310 18.38 310 28.75V291.25C310 301.62 301.62 310 291.25 310zM272.5 47.5H235V272.5H272.5V47.5zM114.297 106.056C118.477 102.062 122.491 103.376 122.491 109.019V141.249H169.385C174.56 141.249 178.76 145.449 178.76 150.624V169.374C178.76 174.549 174.56 178.749 169.384 178.749H122.49V210.979C122.49 216.605 118.76 217.936 114.597 213.962L69.577 167.218C65.417 163.223 66.017 156.773 70.141 152.778L114.298 106.054zM197.5 47.5H47.5V272.5H197.5V47.5z" />
    <glyph glyph-name="paperclip-lean"
      unicode="&#xEA34;"
      horiz-adv-x="320" d=" M254.308 206.13C232.085 228.34 194.554 227.13 172.338 204.913L109.965 142.535C96.628 129.205 95.542 106.301 108.875 92.965L108.891 92.947C122.229 79.615 145.115 80.717 158.451 94.05L222.011 157.615C226.481 162.078 226.481 169.313 222.011 173.775C217.549 178.238 210.315 178.238 205.851 173.775L142.286 110.21C137.909 105.833 130.516 105.82 126.12 110.22C121.737 114.604 121.742 121.993 126.125 126.375L188.497 188.747C201.867 202.117 223.617 202.117 236.987 188.747C250.354 175.381 250.354 153.627 236.987 140.261L170.4670000000001 73.741C148.1870000000001 51.461 111.931 51.461 89.651 73.741S67.371 132.2740000000001 89.651 154.554L201.81 266.707C206.274 271.175 206.274 278.41 201.81 282.873C197.348 287.3350000000001 190.114 287.3350000000001 185.645 282.873L73.49 170.713C42.377 139.603 41.268 87.838 72.382 56.723L72.445 56.661C103.559 25.548 155.515 26.468 186.628 57.576L253.148 124.102C275.371 146.32 276.518 183.9090000000001 254.308 206.132" />
    <glyph glyph-name="paperclip"
      unicode="&#xEA35;"
      horiz-adv-x="320" d=" M230 300C230 311.06 238.94 320 250 320S270 311.06 270 300V110C270 49.26 220.74 0 160 0S50 49.26 50 110V240C50 284.18 85.82 320 130 320S210 284.18 210 240V110C210 82.38 187.62 60 160 60S110 82.38 110 110V240C110 251.04 118.94 260 130 260S150 251.04 150 240V110C150 104.48 154.48 100 160 100S170 104.48 170 110V240C170 262.1 152.08 280 130 280C107.9 280 90 262.1 90 240V110C90 71.32 121.34 40 160 40S230 71.32 230 110V300z" />
    <glyph glyph-name="pencil"
      unicode="&#xEA36;"
      horiz-adv-x="320" d=" M106.25 74.67L98.17 82.75L224.65 209.23L232.73 201.15L106.25 74.67zM59.19 89.415L65.847 82.752L82.007 66.592H82.013L88.671 59.932L58.501 59.245L59.191 89.415zM200.405 233.477L208.485 225.391L82.005 98.918L73.925 106.998L183.022 216.095L200.405 233.478zM225.177 257.1910000000001C228.051 260.0710000000001 231.474 260.501 233.257 260.501C235.039 260.501 238.462 260.0710000000001 241.337 257.1910000000001L257.497 241.031C261.879 236.651 261.879 229.251 257.497 224.867L249.417 216.787L217.09 249.11L225.177 257.19zM284.039 195.891C279.576 200.358 272.341 200.358 267.879 195.891L264.359 199.404L273.661 208.707C286.993 222.037 286.993 243.861 273.661 257.192L257.496 273.3590000000001C250.833 280.022 242.044 283.3590000000001 233.256 283.3590000000001C224.466 283.3590000000001 215.678 280.022 209.01 273.3590000000001L39.715 105.107C37.72 103.111 36.835 100.157 36.772 97.307L35.772 47.551C35.704 44.427 37.002 41.307 39.242 39.067C41.487 36.827 44.567 35.557 47.699 35.627L97.069 37.01C99.921 37.07 102.367 38.466 104.361 40.46L247.675 183.77L251.715 179.73L203.229 131.237C198.766 126.774 198.766 119.54 203.229 115.077A11.417 11.417 0 0 1 211.309 111.729C214.235 111.729 217.159 112.849 219.3890000000001 115.076L284.0390000000001 179.728C288.5030000000001 184.188 288.5030000000001 191.424 284.0390000000001 195.888z" />
    <glyph glyph-name="pin"
      unicode="&#xEA37;"
      horiz-adv-x="320" d=" M196.615 167.137L167.22 196.53L225.695 242.994L226.325 242.484L243.621 225.182L196.616 167.137zM108.627 190.474L139.157 184.679C140.707 184.359 142.501 184.439 144.055 184.439C144.958 184.439 145.855 184.564 146.747 184.679L184.535 146.889C184.13 144.307 184.153 141.679 184.678 139.159L190.473 108.627L108.627 190.473zM282.89 218.24L218.238 282.89C212.655 277.308 210.57 269.548 211.97 262.337L144.295 207.531L83.37 220.235A13.69 13.69 0 0 1 80.62 220.52C75.758 220.52 70.7 217.394 68.318 212.988C65.49 207.754 65.964 200.818 70.17 196.611L125.307 141.469L40.455 56.619C35.993 52.155 35.993 44.919 40.455 40.459C44.918 35.995 52.153 35.995 56.615 40.459L141.467 125.309L196.61 70.172C199.193 67.584 203.113 66.704 206.598 66.704C208.775 66.704 211.21 67.47 213.221 68.561C218.456 71.389 221.325 77.435 220.114 83.251L207.474 144.241L262.336 211.971C269.548 210.571 277.308 212.658 282.891 218.241z" />
    <glyph glyph-name="plus-circle"
      unicode="&#xEA38;"
      horiz-adv-x="319" d=" M158.998 57.143C102.284 57.143 56.14 103.286 56.14 160S102.285 262.857 159 262.857C215.715 262.857 261.857 216.714 261.857 160S215.715 57.143 159 57.143M159 285.713C89.57 285.714 33.284 229.43 33.284 160C33.284 90.57 89.57 34.286 158.998 34.286C228.428 34.286 284.713 90.571 284.713 160C284.713 229.43 228.427 285.714 158.998 285.714M210.428 171.429H170.428V211.429C170.428 217.736 165.308 222.856 158.998 222.856C152.69 222.856 147.57 217.736 147.57 211.428V171.428H107.57C101.26 171.428 96.14 166.308 96.14 159.998S101.26 148.568 107.57 148.568H147.57V108.568C147.57 102.261 152.69 97.141 158.998 97.141C165.308 97.141 170.428 102.261 170.428 108.569V148.569H210.428C216.735 148.569 221.855 153.689 221.855 159.999S216.735 171.429 210.427 171.429" />
    <glyph glyph-name="plus"
      unicode="&#xEA39;"
      horiz-adv-x="319" d=" M170.425 148.574H261.855C268.163 148.57 273.283 153.69 273.283 160.001C273.279 166.317 268.1670000000001 171.429 261.856 171.429H170.426V262.8590000000001C170.429 269.1670000000001 165.306 274.291 158.998 274.2870000000001C152.688 274.2870000000001 147.568 269.1670000000001 147.571 262.86V171.428H56.14C49.83 171.428 44.714 166.312 44.714 160.001C44.714 156.851 45.99 153.991 48.059 151.921A11.397 11.397 0 0 1 56.139 148.575H147.569V57.145C147.569 53.992 148.847 51.132 150.916 49.063A11.417 11.417 0 0 1 158.9960000000001 45.717C165.309 45.717 170.424 50.833 170.424 57.144V148.574z" />
    <glyph glyph-name="poop"
      unicode="&#xEA3A;"
      horiz-adv-x="320" d=" M214.278 112.288C198.53 100.151 179.758 93.738 159.998 93.738C140.238 93.738 121.468 100.151 105.713 112.288A5.708 5.708 0 0 0 104.678 120.298A5.693 5.693 0 0 0 112.69 121.338C126.427 110.758 142.787 105.168 159.998 105.168C177.215 105.168 193.57 110.758 207.301 121.338A5.705 5.705 0 0 0 215.319 120.298A5.714 5.714 0 0 0 214.279 112.288M130.336 171.4310000000001C135.634 171.4310000000001 140.314 168.9750000000001 143.456 165.198C142.428 165.5 141.366 165.7180000000001 140.239 165.7180000000001C133.931 165.7180000000001 128.811 160.5980000000001 128.811 154.2880000000001C128.811 147.9750000000001 133.931 142.8600000000001 140.239 142.8600000000001C141.365 142.8600000000001 142.429 143.0700000000001 143.456 143.3740000000001C140.314 139.5970000000001 135.634 137.1440000000001 130.336 137.1440000000001C120.868 137.1440000000001 113.194 144.8190000000001 113.194 154.2880000000001C113.194 163.7510000000001 120.868 171.4310000000001 130.336 171.4310000000001M194.382 171.4310000000001C199.68 171.4310000000001 204.355 168.9750000000001 207.502 165.1980000000001C206.475 165.5000000000001 205.412 165.7180000000001 204.286 165.7180000000001C197.972 165.7180000000001 192.856 160.5980000000001 192.856 154.2880000000001C192.856 147.9750000000001 197.972 142.8600000000001 204.286 142.8600000000001C205.412 142.8600000000001 206.476 143.0700000000001 207.503 143.3740000000001C204.356 139.5970000000001 199.681 137.1440000000001 194.383 137.1440000000001C184.916 137.1440000000001 177.241 144.8190000000001 177.241 154.2880000000001C177.241 163.7510000000001 184.916 171.4310000000001 194.384 171.4310000000001M246.774 126.3290000000001C249.717 131.3860000000001 251.431 137.2490000000001 251.431 143.5230000000001C251.431 162.4600000000001 236.081 177.8090000000001 217.145 177.8090000000001H212.523C215.443 182.8590000000001 217.146 188.6990000000001 217.146 194.9520000000001C217.146 211.4720000000001 205.461 225.2620000000001 189.906 228.5070000000001C188.376 243.0610000000001 179.284 255.9700000000001 165.839 262.1930000000001C166.039 257.2450000000001 165.696 252.2000000000001 164.599 247.1310000000001A59.39 59.39 0 0 0 161.067 236.1370000000001A11.445 11.445 0 0 0 150.571 229.2400000000001H137.14C118.204 229.2400000000001 102.855 213.8900000000001 102.855 194.9540000000001C102.855 188.7040000000001 104.558 182.8640000000001 107.478 177.8120000000001H102.855C83.918 177.8120000000001 68.57 162.4620000000001 68.57 143.5260000000001C68.57 137.2520000000001 70.284 131.3890000000001 73.227 126.3320000000001C54.787 125.7660000000001 39.997 110.6820000000001 39.997 92.0980000000001C39.997 73.1660000000001 55.347 57.8120000000001 74.284 57.8120000000001H245.714C264.65 57.8120000000001 279.998 73.1660000000001 279.998 92.0980000000001C279.998 110.6810000000001 265.21 125.7660000000001 246.77 126.3320000000001" />
    <glyph glyph-name="pre"
      unicode="&#xEA3B;"
      horiz-adv-x="320" d=" M102.863 68.57C99.298 68.57 95.783 70.234 93.555 73.36L36.412 153.36A11.442 11.442 0 0 0 36.412 166.645L93.555 246.645C97.223 251.782 104.365 252.971 109.498 249.297C114.635 245.627 115.823 238.491 112.155 233.354L59.76 160L112.155 86.64C115.823 81.508 114.635 74.37 109.498 70.697A11.402 11.402 0 0 0 102.863 68.571M217.13 68.57C214.833 68.57 212.507 69.263 210.502 70.697C205.359 74.371 204.17 81.509 207.839 86.64L260.239 160L207.839 233.354C204.169 238.491 205.359 245.629 210.501 249.297C215.621 252.971 222.764 251.777 226.444 246.647L283.586 166.647A11.442 11.442 0 0 0 283.586 153.36L226.444 73.36A11.422 11.422 0 0 0 217.129 68.57" />
    <glyph glyph-name="print"
      unicode="&#xEA3C;"
      horiz-adv-x="321" d=" M280 81H260V121H60V81H40V201H280V81zM220 41H100V81H220V41zM100 281H220V241H100V281zM300 241H260V301C260 312.06 251.06 321 240 321H80C68.94 321 60 312.06 60 301V241H20C8.94 241 0 232.06 0 221V61C0 49.94 8.94 41 20 41H60V21C60 9.94 68.94 1 80 1H240C251.06 1 260 9.94 260 21V41H300C311.06 41 320 49.94 320 61V221C320 232.06 311.06 241 300 241zM200 181H160V141H200V181zM260 181H220V141H260V181z" />
    <glyph glyph-name="private-chat-solid"
      unicode="&#xEA3D;"
      horiz-adv-x="319" d=" M200 209H120V239C120 261.06 137.94 279 160 279C182.04 279 200 261.06 200 239V209zM180 102.76C180 91.7 171.04 82.76 160 82.76S140 91.7 140 102.76V142.74C140 153.8 148.96 162.74 160 162.74S180 153.8 180 142.74V102.76zM268.02 207.04C267.76 207.18 267.46 207.24 267.18 207.36C266.12 207.78 265.14 208.38 264 208.6C262.8 208.8 261.4 209 260 209H240V239C240 283.12 204.12 319 160 319S80 283.12 80 239V209H60C58.6 209 57.2 208.8 56 208.6C54.86 208.38 53.88 207.78 52.82 207.36C52.54 207.24 52.24 207.18 51.98 207.04C44.96 203.92 40 197.08 40 189V58.04C40 46.8 49 39 60 39H100V9.04C100 1.56 107.9 -3.28 114.56 0.1L191.3 39H260C271 39 280 46.8 280 58.04V189C280 197.08 275.04 203.92 268.02 207.04z" />
    <glyph glyph-name="private-chat"
      unicode="&#xEA3E;"
      horiz-adv-x="323" d=" M122.075 166.714C115.761 166.714 110.645 161.6 110.645 155.286C110.645 148.971 115.761 143.856 122.075 143.856S133.503 148.971 133.503 155.286C133.503 161.6 128.389 166.714 122.075 166.714M162.287 166.714C155.9730000000001 166.714 150.859 161.6 150.859 155.286C150.859 148.971 155.972 143.856 162.286 143.856C168.601 143.856 173.716 148.971 173.716 155.286C173.716 161.6 168.601 166.714 162.286 166.714M201.921 166.714C195.607 166.714 190.493 161.6 190.493 155.286C190.493 148.971 195.607 143.856 201.921 143.856C208.236 143.856 213.351 148.971 213.351 155.286C213.351 161.6 208.236 166.714 201.921 166.714M247.711 103.594C247.711 97.441 242.586 92.429 236.283 92.429H188.34C184.77 92.429 181.404 90.759 179.244 87.914L161.998 65.204L144.753 87.914A11.418 11.418 0 0 1 135.655 92.428H87.713C81.41 92.428 76.283 97.438 76.283 103.593V206.452C76.283 212.789 81.518 218.142 87.713 218.142H236.283C242.478 218.142 247.713 212.789 247.713 206.452V103.595zM162 263.86C175.8 263.86 187.337 254.025 189.995 241.003H134.005C136.662 254.024 148.2 263.86 162 263.86zM236.284 241H213.084C210.221 266.618 188.354 286.7150000000001 161.998 286.7150000000001C135.644 286.7150000000001 113.775 266.618 110.913 241.001H87.713C68.803 241.001 53.427 225.504 53.427 206.453V103.596C53.427 84.836 68.804 69.573 87.713 69.573H129.981L152.896 39.403A11.438 11.438 0 0 1 171.102 39.403L194.017 69.573H236.287C255.195 69.573 270.572 84.836 270.572 103.596V206.452C270.572 225.502 255.195 241.002 236.286 241.002z" />
    <glyph glyph-name="qrcode"
      unicode="&#xEA3F;"
      horiz-adv-x="320" d=" M133.75 300H28.75C23.92 300 20 296.08 20 291.25V186.25C20 181.42 23.92 177.5 28.75 177.5H133.75C138.58 177.5 142.5 181.42 142.5 186.25V291.25C142.5 296.08 138.58 300 133.75 300zM107.5 212.5H55V265H107.5V212.5zM291.25 142.5H186.25C181.42 142.5 177.5 138.58 177.5 133.75V28.75C177.5 23.92 181.42 20 186.25 20H291.25C296.08 20 300 23.92 300 28.75V133.75C300 138.58 296.08 142.5 291.25 142.5zM76.875 55H55V133.75C55 138.58 51.08 142.5 46.25 142.5H28.75C23.92 142.5 20 138.58 20 133.75V28.75C20 26.335 20.98 24.147 22.564 22.564A8.723 8.723 0 0 1 28.75 20H133.75C138.58 20 142.5 23.92 142.5 28.75V46.25C142.5 51.08 138.58 55 133.75 55H76.875zM265 55H212.5V107.5H265V55zM177.5 186.25V291.25C177.5 296.08 181.42 300 186.25 300H203.75C208.58 300 212.5 296.08 212.5 291.25V186.25C212.5 181.42 208.58 177.5 203.75 177.5H186.25C181.42 177.5 177.5 181.42 177.5 186.25zM247.5 186.25V291.25C247.5 296.08 251.42 300 256.25 300H291.25C296.08 300 300 296.08 300 291.25V186.25C300 181.42 296.08 177.5 291.25 177.5H256.25C251.42 177.5 247.5 181.42 247.5 186.25zM142.5 133.75V98.75C142.5 93.92 138.58 90 133.75 90H98.75C93.92 90 90 93.92 90 98.75V133.75C90 138.58 93.92 142.5 98.75 142.5H133.75C138.58 142.5 142.5 138.58 142.5 133.75z" />
    <glyph glyph-name="redirect"
      unicode="&#xEA40;"
      horiz-adv-x="320" d=" M102.647 85L210.294 192.647V93.824H235V235H93.824V210.294H192.647L85 102.647L102.647 85z" />
    <glyph glyph-name="refresh"
      unicode="&#xEA41;"
      horiz-adv-x="320" d=" M156.75 60C145.812 60 135.396 61.823 125.5 65.47C115.604 69.115 106.62 74.193 98.547 80.703S83.443 94.961 77.453 103.945C71.463 112.93 67.167 122.891 64.563 133.828L63 140.858H86.047L87.219 136.953C89.562 129.141 93.012 121.913 97.569 115.273C102.127 108.633 107.465 102.903 113.585 98.086C119.705 93.268 126.475 89.556 133.897 86.953C141.319 84.349 148.937 83.047 156.749 83.047C166.905 83.047 176.345 85 185.069 88.907C193.793 92.813 201.476 98.151 208.116 104.922C214.756 111.692 219.966 119.635 223.741 128.75C227.517 137.865 229.405 147.5 229.405 157.656C229.405 168.073 227.517 177.838 223.741 186.953C219.965 196.068 214.757 204.01 208.116 210.781C201.476 217.553 193.793 222.891 185.069 226.798C176.345 230.704 166.905 232.658 156.749 232.658C139.822 232.658 124.719 227.058 111.436 215.86L138 188.124L69.25 187.734V260L95.422 232.266C104.016 239.818 113.586 245.612 124.132 249.648C134.68 253.685 145.552 255.703 156.75 255.703C170.03 255.703 182.466 253.099 194.055 247.891C205.643 242.683 215.735 235.651 224.328 226.798C232.922 217.944 239.693 207.592 244.641 195.743C249.591 183.893 252.064 171.199 252.064 157.657C252.064 144.117 249.59 131.42 244.642 119.571C239.695 107.721 232.924 97.371 224.33 88.517C215.736 79.662 205.645 72.697 194.057 67.617C182.465 62.54 170.03 60 156.75 60z" />
    <glyph glyph-name="remove-circle"
      unicode="&#xEA42;"
      horiz-adv-x="319" d=" M158.998 57.143C102.284 57.143 56.14 103.286 56.14 160S102.285 262.857 159 262.857C215.715 262.857 261.857 216.714 261.857 160S215.715 57.143 159 57.143M159 285.713C89.57 285.714 33.284 229.43 33.284 160C33.284 90.57 89.57 34.286 158.998 34.286C228.428 34.286 284.713 90.571 284.713 160C284.713 229.43 228.427 285.714 158.998 285.714M203.445 131.714L175.159 160.001L203.444 188.288C207.907 192.745 207.907 199.985 203.444 204.448C198.981 208.911 191.747 208.911 187.284 204.448L159 176.16L130.714 204.447C126.251 208.91 119.017 208.91 114.554 204.447C110.091 199.984 110.091 192.744 114.554 188.287L142.834 160L114.554 131.715C110.091 127.253 110.091 120.018 114.554 115.555C119.017 111.093 126.251 111.093 130.714 115.555L159 143.835L187.285 115.555C191.748 111.093 198.982 111.093 203.445 115.555C207.908 120.018 207.908 127.253 203.445 131.715" />
    <glyph glyph-name="remove"
      unicode="&#xEA43;"
      horiz-adv-x="319" d=" M175.158 160L239.808 224.653C244.272 229.11 244.272 236.35 239.808 240.813C235.341 245.275 228.112 245.275 223.648 240.813L159 176.16L94.346 240.814C89.889 245.276 82.643 245.276 78.186 240.814C73.723 236.351 73.723 229.111 78.186 224.654L142.838 160L78.186 95.35C73.723 90.887 73.723 83.653 78.186 79.19A11.397 11.397 0 0 1 86.266 75.84C89.192 75.84 92.118 76.96 94.346 79.19L158.998 143.84L223.648 79.19A11.397 11.397 0 0 1 231.728 75.84C234.648 75.84 237.575 76.96 239.808 79.19C244.272 83.653 244.272 90.887 239.808 95.35L175.16 160z" />
    <glyph glyph-name="rich-text"
      unicode="&#xEA44;"
      horiz-adv-x="320" d=" M239.998 137.143H194.284C175.427 137.143 159.998 121.771 159.998 102.913V57.143H91.428C85.255 57.143 79.998 62.4 79.998 68.571V251.43C79.998 257.6 85.255 262.8570000000001 91.428 262.8570000000001H228.57C234.74 262.8570000000001 239.998 257.6 239.998 251.429V137.142zM182.855 57.143V102.913C182.855 109.086 188.113 114.286 194.285 114.286H239.998L182.855 57.143zM228.57 285.713H91.427C72.57 285.713 57.141 270.286 57.141 251.4290000000001V68.569C57.141 49.713 72.571 34.285 91.428 34.285H182.874A22.854 22.854 0 0 1 199.039 40.982L256.159 98.102A22.854 22.854 0 0 1 262.856 114.268V251.43C262.856 270.286 247.428 285.714 228.571 285.714zM131.427 137.143H108.57C102.26 137.143 97.14 132.023 97.14 125.713C97.14 119.406 102.26 114.286 108.57 114.286H131.427C137.735 114.286 142.855 119.406 142.855 125.714C142.855 132.024 137.735 137.144 131.427 137.144M131.427 102.857H108.57C102.26 102.857 97.14 97.737 97.14 91.429C97.14 85.119 102.26 79.999 108.57 79.999H131.427C137.735 79.999 142.855 85.119 142.855 91.429C142.855 97.736 137.735 102.856 131.427 102.856M170.502 243.862A11.424 11.424 0 0 1 149.496 243.862L115.21 163.862C112.725 158.062 115.41 151.342 121.21 148.862C127.022 146.359 133.73 149.062 136.216 154.862L143.319 171.428H176.684L183.781 154.861C185.631 150.529 189.8550000000001 147.929 194.2890000000001 147.929C195.792 147.929 197.3190000000001 148.2290000000001 198.7860000000001 148.862C204.5860000000001 151.342 207.2720000000001 158.062 204.7860000000001 163.862L170.5010000000001 243.862zM114.037 87.566L160 210.354L166.885 194.286H153.113z" />
    <glyph glyph-name="roster"
      unicode="&#xEA45;"
      horiz-adv-x="320" d=" M272.5 47.5H85V272.5H272.5V47.5zM291.25 310H66.25C55.937 310 47.5 301.562 47.5 291.25H28.75C18.437 291.25 10 282.812 10 272.5C10 262.187 18.438 253.75 28.75 253.75H47.5V235H28.75C18.437 235 10 226.562 10 216.25C10 205.937 18.438 197.5 28.75 197.5H47.5V178.75H28.75C18.437 178.75 10 170.312 10 160C10 149.687 18.438 141.25 28.75 141.25H47.5V122.5H28.75C18.437 122.5 10 114.062 10 103.75C10 93.437 18.438 85 28.75 85H47.5V66.25H28.75C18.437 66.25 10 57.812 10 47.5C10 37.187 18.438 28.75 28.75 28.75H47.5C47.5 18.437 55.938 10 66.25 10H291.25C301.563 10 310 18.438 310 28.75V291.25C310 301.563 301.562 310 291.25 310zM235 128.5V105.625C235 102.062 233.125 98.875 229.937 97.375C214.563 89.5 197.313 85 178.75 85C160.187 85 142.937 89.5 127.562 97.375C124.375 98.875 122.5 102.063 122.5 105.625V128.5C122.5 133.75 125.313 141.063 129.625 144.063C138.25 150.625 148.938 155.125 160 157.75V165.25C148.75 171.625 141.25 183.625 141.25 197.5C141.25 218.125 158.125 235 178.75 235S216.25 218.125 216.25 197.5C216.25 183.625 208.75 171.625 197.5 165.25V157.75C208.563 155.125 219.25 150.625 227.875 144.062C232.188 141.062 235 133.75 235 128.5" />
    <glyph glyph-name="search"
      unicode="&#xEA46;"
      horiz-adv-x="320" d=" M244.128 69.243A5.876 5.876 0 0 0 239.962 67.518C238.454 67.518 236.952 68.095 235.797 69.243L206.642 98.398A5.887 5.887 0 0 0 206.642 106.728A5.887 5.887 0 0 0 214.974 106.728L244.128 77.575A5.887 5.887 0 0 0 244.128 69.243M125.711 125.713C107.398 125.713 90.181 132.849 77.226 145.798C50.489 172.535 50.489 216.038 77.226 242.7750000000001C90.18 255.7230000000001 107.398 262.855 125.712 262.855C144.032 262.855 161.25 255.723 174.204 242.7750000000001C200.936 216.0380000000001 200.936 172.535 174.204 145.798C161.25 132.8480000000001 144.034 125.7120000000001 125.714 125.7120000000001M281.644 71.6820000000001L231.656 121.6720000000001C225.433 127.8950000000001 216.546 129.7860000000001 208.604 127.5620000000001L197.89 138.2780000000001C225.787 174.1410000000001 223.324 225.9750000000001 190.364 258.9350000000001C172.514 276.7850000000001 149.114 285.7120000000001 125.714 285.7120000000001C102.319 285.7120000000001 78.919 276.7860000000001 61.067 258.9350000000001C25.359 223.232 25.359 165.3410000000001 61.067 129.638C78.919 111.786 102.319 102.855 125.713 102.855C145.52 102.855 165.285 109.323 181.725 122.112L192.44 111.398C190.217 103.448 192.108 94.568 198.33 88.346L248.32 38.3580000000001C252.897 33.775 261.16 33.015 265.742 37.5980000000001L282.4 54.26C286.983 58.843 286.217 67.1 281.64 71.683" />
    <glyph glyph-name="sharp"
      unicode="&#xEA47;"
      horiz-adv-x="319" d=" M189.14 125.714H121.014L128.934 194.286H197.06L189.14 125.714zM273.283 217.144H224.283L230.6310000000001 272.104C231.4110000000001 278.806 226.611 284.8640000000001 219.9070000000001 285.634C213.2720000000001 286.366 207.1470000000001 281.611 206.381 274.909L199.707 217.142H131.575L137.925 272.102C138.695 278.799 133.89 284.856 127.192 285.632C120.485 286.41 114.432 281.605 113.662 274.902L106.992 217.142H56.14C49.83 217.142 44.71 212.022 44.71 205.712C44.71 199.405 49.83 194.285 56.14 194.285H104.35L96.426 125.713H44.71C38.403 125.713 33.283 120.593 33.283 114.285C33.283 107.975 38.403 102.855 44.711 102.855H93.787L87.437 47.895C86.667 41.193 91.472 35.135 98.17 34.37C98.643 34.31 99.117 34.286 99.586 34.286C105.7 34.286 110.98 38.869 111.7 45.096L118.374 102.856H186.5L180.15 47.903C179.374 41.2 184.174 35.143 190.877 34.371C191.351 34.3150000000001 191.827 34.2910000000001 192.294 34.2910000000001C198.409 34.2910000000001 203.689 38.8750000000001 204.404 45.0980000000001L211.077 102.8580000000001H261.854C268.169 102.8580000000001 273.284 107.9780000000001 273.284 114.2880000000001C273.284 120.5950000000001 268.169 125.7150000000001 261.854 125.7150000000001H213.717L221.643 194.2870000000001H273.283C279.597 194.2870000000001 284.711 199.4070000000001 284.711 205.7150000000001C284.711 212.0250000000001 279.598 217.1450000000001 273.284 217.1450000000001z" />
    <glyph glyph-name="star"
      unicode="&#xEA48;"
      horiz-adv-x="320" d=" M248.532 2.02L160.012 50.76L71.472 2.04C62.592 -2.84 56.752 1.42 58.412 11.6L75.372 115.04L4.134 187.72C-2.966 194.98 -0.706 202.12 9.274 203.62L107.554 218.56L152.094 313.04C156.474 322.32 163.554 322.32 167.934 313.04L212.454 218.56L310.7320000000001 203.62C320.692 202.12 322.9720000000001 194.98 315.872 187.72L244.632 115.04L261.592 11.6C263.252 1.42 257.412 -2.86 248.532 2.02zM68.372 174.88L114.432 127.86L103.652 62.14L160.012 93.12L216.352 62.14L205.572 127.86L251.632 174.88L187.992 184.54L160.012 243.94L132.012 184.54L68.372 174.88z" />
    <glyph glyph-name="tag-solid"
      unicode="&#xEA49;"
      horiz-adv-x="320" d=" M228.54 204.297C221.842 197.6 210.99 197.6 204.294 204.297C197.602 210.994 197.602 221.847 204.294 228.543C210.991 235.233 221.842 235.233 228.539 228.543C235.236 221.846 235.236 210.993 228.539 204.297zM203.465 154.977L146.895 98.411A11.373 11.373 0 0 0 138.815 95.064C135.888 95.064 132.962 96.178 130.735 98.412C126.271 102.876 126.271 110.112 130.735 114.572L187.305 171.139C191.768 175.602 199.002 175.602 203.465 171.139C207.928 166.676 207.928 159.442 203.465 154.979zM110.528 134.777A11.373 11.373 0 0 0 102.448 131.429C99.522 131.429 96.598 132.542 94.368 134.776C89.905 139.239 89.905 146.473 94.368 150.936L150.934 207.502C155.397 211.97 162.637 211.97 167.099 207.502C171.561 203.045 171.561 195.805 167.099 191.342L110.527 134.776zM284.39 184.68L268.997 241.846A38.477 38.477 0 0 1 241.842 268.9940000000001L184.677 284.39A38.47 38.47 0 0 1 147.459 274.44L45.556 172.537C30.526 157.509 30.526 133.143 45.556 118.114L118.116 45.554C133.144 30.531 157.504 30.531 172.533 45.554L274.4410000000001 147.464A38.492 38.492 0 0 1 284.391 184.68z" />
    <glyph glyph-name="tag"
      unicode="&#xEA4A;"
      horiz-adv-x="320" d=" M174.673 285.714A38.474 38.474 0 0 1 147.463 274.44L45.552 172.537C30.524 157.509 30.524 133.143 45.552 118.114L118.112 45.554C125.626 38.046 135.478 34.2859999999999 145.324 34.2859999999999C155.174 34.2859999999999 165.021 38.04 172.534 45.554L274.438 147.464A38.48 38.48 0 0 1 284.385 184.68L268.991 241.846A38.48 38.48 0 0 1 241.843 268.994L184.68 284.39A38.428 38.428 0 0 1 174.673 285.714M174.673 262.857C176.039 262.857 177.405 262.674 178.736 262.32L235.902 246.926A15.67 15.67 0 0 0 246.925 235.903L262.319 178.737A15.687 15.687 0 0 0 258.279 163.623L156.37 61.72A15.503 15.503 0 0 0 145.325 57.143C141.153 57.143 137.227 58.766 134.279 61.72L61.719 134.28C55.626 140.37 55.626 150.28 61.719 156.37L163.62 258.28A15.526 15.526 0 0 0 174.67 262.857M102.45 131.43C99.524 131.43 96.6 132.543 94.37 134.777C89.907 139.24 89.907 146.474 94.37 150.937L150.936 207.503C155.399 211.971 162.639 211.971 167.096 207.503C171.564 203.046 171.564 195.806 167.096 191.343L110.53 134.777A11.373 11.373 0 0 0 102.45 131.429M138.815 95.059C135.889 95.059 132.963 96.174 130.735 98.409C126.272 102.872 126.272 110.106 130.735 114.569L187.305 171.134C191.769 175.604 199.003 175.604 203.465 171.134C207.929 166.677 207.929 159.437 203.465 154.974L146.895 98.409A11.373 11.373 0 0 0 138.815 95.059M228.541 204.296C221.843 197.599 210.991 197.599 204.294 204.296C197.604 210.993 197.604 221.846 204.294 228.542C210.991 235.232 221.844 235.232 228.54 228.542C235.236 221.845 235.236 210.992 228.54 204.296" />
    <glyph glyph-name="tick"
      unicode="&#xEA4B;"
      horiz-adv-x="321" d=" M53.925 151.175C50.025 154.935 50.025 161.055 53.925 164.855L68.065 178.515C71.965 182.277 78.305 182.277 82.205 178.515L131.005 130.675L239.788 237.18C243.688 240.94 250.028 240.94 253.928 237.18L268.068 223.5C271.968 219.74 271.968 213.598 268.068 209.858L138.068 82.831C134.168 79.071 127.828 79.071 123.928 82.831L53.926 151.176z" />
    <glyph glyph-name="trash"
      unicode="&#xEA4C;"
      horiz-adv-x="320" d=" M206.507 59.58A2.88 2.88 0 0 0 203.677 57.14H188.724L198.587 217.14H229.924L206.507 59.58zM154.175 57.14C154.165 57.14 154.153 57.46 154.141 57.626L144.308 217.14H175.691L165.856 57.626C165.846 57.46 165.834 57.14 165.822 57.14H154.177zM113.49 59.58L90.073 217.14H121.41L131.273 57.14H116.318A2.88 2.88 0 0 0 113.49 59.58zM142.855 239.997H177.141V262.854H142.856V239.997zM262.855 239.997H199.998V263.99C199.998 276.563 189.713 285.71 177.141 285.71H142.856C130.286 285.71 119.999 276.563 119.999 263.99V239.997H57.14C50.833 239.997 45.713 234.883 45.713 228.569C45.713 222.259 50.833 217.139 57.141 217.139H66.965L90.885 56.2190000000001C92.755 43.6130000000001 103.575 34.282 116.319 34.282H203.679C216.422 34.282 227.245 43.612 229.119 56.2190000000001L253.034 217.1390000000001H262.856C269.171 217.1390000000001 274.286 222.2590000000001 274.286 228.5690000000001C274.286 234.8820000000001 269.171 239.9960000000001 262.856 239.9960000000001z" />
    <glyph glyph-name="users"
      unicode="&#xEA4D;"
      horiz-adv-x="320" d=" M281.88 203.36C293.02 215.76 300 232 300 250C300 288.68 268.68 320 230 320S160 288.68 160 250C160 232 166.98 215.76 178.12 203.36C170.62 198.04 164.12 191.52 158.56 184.2C152 216.06 123.8 240 90 240C51.32 240 20 208.68 20 170C20 152 26.98 135.76 38.12 123.36C15.12 107.08 0 80.36 0 50V20C0 8.94 8.94 0 20 0H160C171.06 0 180 8.94 180 20V50C180 68.6 176.56 74.38 174.5 80H300C311.06 80 320 88.94 320 100V130C320 160.36 304.88 187.08 281.88 203.36zM280 120H180V130C180 157.58 202.42 180 230 180S280 157.58 280 130V120zM260 250C260 233.44 246.58 220 230 220S200 233.44 200 250C200 266.56 213.42 280 230 280S260 266.56 260 250zM140 40H40V50C40 77.58 62.42 100 90 100S140 77.58 140 50V40zM120 170C120 153.44 106.58 140 90 140S60 153.44 60 170C60 186.56 73.42 200 90 200S120 186.56 120 170z" />
    <glyph glyph-name="wave"
      unicode="&#xEA4E;"
      horiz-adv-x="320" d=" M190 0C189.58 0 189.12 0.02 188.68 0.04C179.76 0.62 172.32 7.08 170.44 15.8L125.18 227.06L98.82 153.293C96 145.333 88.46 140.013 80 140.013H20C8.94 140.013 0 148.953 0 160.013C0 171.075 8.94 180.016 20 180.016H65.9L111.18 306.7460000000001C114.18 315.17 122.1 320.27 131.32 319.99C140.24 319.4100000000001 147.68 312.95 149.56 304.23L194.82 92.97L221.18 166.737C224 174.697 231.54 180.017 240 180.017H300C311.06 180.017 320 171.077 320 160.017C320 148.955 311.06 140.014 300 140.014H254.1L208.82 13.284C205.98 5.28 198.4 0 190 0" />
    <glyph glyph-name="wechat"
      unicode="&#xEA4F;"
      horiz-adv-x="321" d=" M313.093 88.53C306.423 74.955 295.336 64.174 283.173 55.487C286.391 46.231 289.363 36.879 292.151 27.49C281.291 32.693 271.253 39.738 260.0610000000001 44.105C241.374 38.66 221.4740000000001 36.37 202.221 40.281C175.637 45.095 150.091 60.063 135.941 83.517C126.448 99.147 122.6210000000001 118.432 126.8770000000001 136.34C132.047 160.68 150.1940000000001 180.68 171.947 191.85C203.221 208.027 242.267 208.146 273.653 192.226C291.423 183.214 306.7460000000001 168.653 314.863 150.27C323.603 130.83 323.008 107.428 313.093 88.53zM256.5900000000001 160.902C249.6700000000001 160.627 245.6070000000001 154.285 244.1100000000001 148.195C245.2300000000001 144.81 245.9130000000001 140.985 248.7150000000001 138.463C254.498 132.413 266.2150000000001 134.215 269.569 142.036C274.5660000000001 150.593 266.165 162.211 256.589 160.902zM188.8300000000001 160.202C180.006 157.482 177.387 144.675 184.1220000000001 138.568C190.21 131.936 202.882 134.558 205.6370000000001 143.246C209.9370000000001 153.044 198.6450000000001 164.336 188.8310000000001 160.202z M233.408 210.068C202.388 212.258 169.785 203.161 146.793 181.63C133.133 169.232 123.255 152.516 120.125 134.25C118.165 121.086 119.185 107.494 123.489 94.878C106.973 94.346 90.445 96.764 74.709 101.798C61.669 94.878 48.723 87.782 35.626 80.978C39.248 92.391 43.091 103.72 46.99 115.045C26.278 128.788 9.27 149.35 3.5 173.893C-2.265 196.003 2.21 220.1 14.132 239.421C27.278 260.854 48.572 276.588 72.076 285.057C107.861 297.98 149.306 295.1570000000001 182.556 276.432C207.629 262.555 227.613 238.508 233.408 210.07zM152.164 244.068C140.464 240.458 137.638 223.098 147.604 215.972C157.212 207.262 174.292 215.255 174.194 228.08C175.004 239.356 162.627 248.18 152.164 244.068zM72.058 244.184C60.171 240.629 57.348 222.93 67.448 215.804C76.172 208.334 91.108 213.708 93.423 224.846C96.923 236.853 83.691 248.676 72.058 244.184z" />
    <glyph glyph-name="weibo"
      unicode="&#xEA50;"
      horiz-adv-x="321" d=" M1 123.488C1 175.192 96.802 256.828 133.447 256.828C148.817 256.828 178.975 245.191 157.877 208.332C156.401 205.755 205.457 229.762 232.277 213.972C259.0970000000001 198.182 232.277 172.806 232.277 169.987C232.277 167.167 286.134 167.167 286.134 123.487C286.134 71.785 222.784 29.871 143.874 29.871C64.968 29.87 1 71.786 1 123.49zM147.735 58.548C198.148 65.633 235.225 98.356 230.545 131.636C225.8690000000001 164.916 181.21 186.152 130.797 179.066C80.384 171.982 43.309 139.259 47.987 105.979C52.663 72.697 97.322 51.462 147.735 58.547z M138.425 67.614C168.408 73.442 188.715 98.739 183.783 124.116C178.851 149.492 150.545 165.34 120.563 159.511C90.578 153.684 70.27 128.387 75.203 103.011C80.136 77.634 108.441 61.787 138.425 67.615zM95.46 97.707C92.182 104.737 97.006 113.922 106.233 118.225C115.461 122.528 125.599 120.318 128.876 113.289C132.154 106.259 127.33 97.073 118.103 92.769C108.875 88.467 98.737 90.677 95.46 97.706zM130.048 123.487C130.048 128.659 134.175 132.85 139.266 132.85C144.356 132.85 148.484 128.66 148.484 123.488C148.484 118.318 144.357 114.126 139.266 114.126C134.176 114.126 130.048 118.318 130.048 123.488zM318.017 176.54C317.893 175.73 317.114 175.062 316.291 175.062H294.845C294.032 175.062 293.482 175.719 293.641 176.529C293.641 176.529 302.791 218.482 284.471 245.189C266.147 271.899 214.504 267.089 214.504 267.089C213.686 267.032 213.009 267.645 213.009 268.469V290.51C213.009 291.33 213.679 292.04 214.503 292.088C214.503 292.088 267.813 296.301 298.35 266.978C328.887 237.655 318.017 176.538 318.017 176.538z M275.8 187.875C275.685 187.343 275.14 186.905 274.594 186.905H257.142C256.594 186.905 256.297 187.315 256.475 187.821C256.475 187.821 265.0350000000001 210.589 256.1520000000001 221.303C247.2680000000001 232.017 223.222 229.29 223.222 229.29A0.893 0.893 0 0 0 222.226 230.197V244.19C222.226 244.747 222.658 245.28 223.192 245.39C223.192 245.39 250.6 251.753 267.2560000000001 236.528C283.913 221.302 275.8 187.875 275.8 187.875z" />
    <glyph glyph-name="windows"
      unicode="&#xEA51;"
      horiz-adv-x="321" d=" M319.7200000000001 168.32L146.92 167.04V295.04L319.7200000000001 320V168.32zM1 152.96V44.16L131.56 26.24V152.32L1 152.96zM146.28 151.04V24.3200000000001L319.7200000000001 0V151.04H146.28zM1 274.56V165.76L130.92 166.4V291.84L1 274.56z" />
    </font>
</defs>
</svg>
